<svg width="24" height="13" viewBox="0 0 24 13" fill="none" xmlns="http://www.w3.org/2000/svg">
<path d="M22.3341 0.291459L11.9989 10.6523L1.66374 0.291459C1.47908 0.105971 1.2312 0.00212646 0.973069 0.00212646C0.714943 0.00212646 0.467057 0.105971 0.282401 0.291459C0.192991 0.381551 0.12196 0.489085 0.0734686 0.607763C0.0249771 0.726441 0 0.853878 0 0.982608C0 1.11134 0.0249771 1.23877 0.0734686 1.35745C0.12196 1.47613 0.192991 1.58366 0.282401 1.67376L11.2773 12.6981C11.4703 12.8917 11.7293 13 11.9989 13C12.2686 13 12.5275 12.8917 12.7206 12.6981L23.7155 1.67588C23.8055 1.58572 23.8771 1.47793 23.926 1.35885C23.9748 1.23978 24 1.11185 24 0.982608C24 0.853366 23.9748 0.725432 23.926 0.60636C23.8771 0.487289 23.8055 0.379491 23.7155 0.289331C23.5308 0.103843 23.2829 0 23.0248 0C22.7667 0 22.5188 0.103843 22.3341 0.289331V0.291459Z" fill="black"/>
</svg>
