<svg width="155" height="195" viewBox="0 0 155 195" fill="none" xmlns="http://www.w3.org/2000/svg">
<path fill-rule="evenodd" clip-rule="evenodd" d="M5.09298 28.7896C3.56346 29.198 2.50029 30.5818 2.50023 32.1643L2.50005 37.0219L2.88191 37.0224C2.89104 37.1469 2.91203 37.2723 2.94564 37.3973L40.2719 176.231C40.5587 177.298 41.6563 177.932 42.7235 177.647L81.181 167.377L84.1656 178.478C84.2156 178.664 84.1544 178.862 84.0083 178.987L79.7678 182.616L81.7221 184.895L85.9627 181.265C86.9855 180.39 87.4138 179.005 87.0641 177.704L84.0795 166.603L143.475 150.741C143.991 150.604 144.406 150.276 144.664 149.854L145.065 150.258L148.232 147.114C149.123 146.23 149.47 144.936 149.143 143.724L111.455 4.00555C110.952 2.14035 109.032 1.03296 107.166 1.53139L5.09298 28.7896ZM144.444 146.643L146.116 144.985C146.243 144.858 146.292 144.674 146.246 144.5L109.018 6.48898L107.486 9.23135C107.515 9.30508 107.541 9.38136 107.562 9.46L144.444 146.643ZM104.639 8.1705L106.517 4.80984L5.87189 31.6867C5.65338 31.745 5.5015 31.9427 5.50149 32.1688L5.5014 34.6448L104.639 8.1705ZM83.3006 163.706L141.73 148.102L104.923 11.1997L6.10371 37.589L42.9107 174.492L80.4021 164.48L45.7624 35.6381L48.6608 34.864L83.3006 163.706Z" fill="black"/>
<path d="M4.39451 37.0105C4.32282 36.7438 4.48097 36.4699 4.74777 36.3986L105.499 9.49329C105.766 9.42204 106.041 9.58047 106.112 9.84714L143.439 148.681C143.518 148.976 143.353 149.222 143.114 149.286C130.567 152.643 89.3384 163.71 79.9722 166.224C78.0686 166.735 77.0386 168.676 77.5409 170.512L80.6369 181.826C80.7403 182.204 80.3885 182.547 80.0127 182.436L79.5876 183.873L80.0127 182.436L51.9896 174.124C51.367 173.939 50.7056 173.931 50.0792 174.1L42.3336 176.192C42.0664 176.264 41.7911 176.106 41.7193 175.839L4.39451 37.0105Z" fill="#FEFFE0" stroke="black" stroke-width="3"/>
<path d="M23.2211 65.352L20.3075 52.7237L27.1212 50.6034L30.0348 63.2316L28.3085 63.7688L25.6863 52.4034L22.3252 53.4493L24.9475 64.8147L23.2211 65.352ZM31.9639 62.6313L29.0503 50.0031L32.121 49.0475C32.8645 48.8162 33.4876 48.7727 33.9903 48.917C34.5008 49.0478 34.9178 49.3413 35.2414 49.7976C35.565 50.2539 35.812 50.851 35.9822 51.589C36.1357 52.2542 36.1517 52.8675 36.0301 53.4288C35.9188 53.9871 35.6702 54.471 35.2844 54.8807C34.8962 55.28 34.366 55.5843 33.6938 55.7934L32.3341 56.2165L33.6902 62.0941L31.9639 62.6313ZM32.0428 54.9537L32.8372 54.7065C33.3362 54.5512 33.7152 54.372 33.974 54.1689C34.2328 53.9659 34.3909 53.705 34.4484 53.3863C34.5035 53.0573 34.471 52.6329 34.3511 52.1132C34.2121 51.5104 34.0595 51.0622 33.8935 50.7685C33.7377 50.4716 33.5079 50.3036 33.2041 50.2645C32.9004 50.2253 32.4582 50.2961 31.8777 50.4767L31.068 50.7287L32.0428 54.9537ZM42.499 59.5034C41.6638 59.7633 40.9583 59.8046 40.3825 59.6273C39.8067 59.45 39.3411 59.088 38.9858 58.5413C38.628 57.9843 38.3532 57.29 38.1614 56.4585L37.0571 51.6722C36.8652 50.8407 36.8079 50.0955 36.8851 49.4365C36.9701 48.764 37.221 48.1957 37.638 47.7318C38.0627 47.2543 38.6926 46.8856 39.5278 46.6257C40.363 46.3658 41.0622 46.3209 41.6254 46.491C42.1886 46.661 42.6455 47.009 42.9961 47.5349C43.3568 48.0576 43.6331 48.7347 43.8249 49.5662L44.9328 54.368C45.1223 55.1891 45.1757 55.9411 45.0931 56.6241C45.0207 57.3039 44.7797 57.8913 44.3699 58.3864C43.9578 58.8712 43.3341 59.2435 42.499 59.5034ZM42.1788 58.1158C42.6371 57.9732 42.9618 57.7719 43.1529 57.5119C43.3416 57.2415 43.4371 56.9222 43.4395 56.5538C43.4394 56.1751 43.3855 55.7519 43.2775 55.2842L42.0006 49.7496C41.8927 49.2819 41.7596 48.8944 41.6014 48.5871C41.4408 48.2695 41.223 48.0588 40.948 47.955C40.6705 47.8408 40.3027 47.855 39.8443 47.9976C39.386 48.1403 39.0562 48.3431 38.855 48.6063C38.6615 48.8559 38.5635 49.1649 38.5612 49.5332C38.5565 49.8911 38.608 50.304 38.716 50.7717L39.9929 56.3063C40.1008 56.774 40.2363 57.1719 40.3993 57.4999C40.5599 57.8175 40.7801 58.0386 41.0599 58.1632C41.3475 58.2742 41.7205 58.2584 42.1788 58.1158ZM47.274 60.3234L46.4538 56.7688L47.0191 56.5929C47.1587 56.3935 47.286 56.1645 47.401 55.9059C47.5261 55.6442 47.6217 55.3248 47.6875 54.9479C47.7612 54.5573 47.7979 54.078 47.7979 53.5099C47.7954 52.9314 47.7464 52.2225 47.6511 51.3833C47.5659 50.5409 47.4156 49.5349 47.2004 48.3654L46.5357 44.5619L51.7147 42.9503L54.337 54.3157L55.5286 53.9449L56.3487 57.4995L55.0196 57.9131L54.3533 55.6641L48.2118 57.5752L48.6031 59.9098L47.274 60.3234ZM48.6232 56.0937L52.6259 54.8481L50.3058 44.7923L48.3045 45.4151L48.8405 48.3062C49.0588 49.4414 49.2108 50.4078 49.2966 51.2054C49.3902 51.9895 49.4334 52.65 49.4263 53.187C49.4269 53.7103 49.3869 54.1517 49.306 54.511C49.233 54.8568 49.1315 55.1502 49.0015 55.3912C48.8817 55.629 48.7556 55.8631 48.6232 56.0937ZM57.1178 54.8038L54.2042 42.1756L57.0458 41.2913C57.606 41.117 58.1042 41.0288 58.5403 41.0268C58.9867 41.0215 59.3774 41.1061 59.7123 41.2803C60.0472 41.4546 60.3277 41.7238 60.5536 42.0879C60.7771 42.4417 60.9512 42.8888 61.0759 43.4293C61.1958 43.949 61.234 44.4217 61.1903 44.8474C61.1544 45.2597 61.0292 45.6161 60.8148 45.9168C60.6105 46.2143 60.3119 46.4576 59.9189 46.6467C60.4443 46.6057 60.8922 46.678 61.2625 46.8636C61.6304 47.0387 61.936 47.3224 62.1793 47.7145C62.4304 48.0931 62.6254 48.5839 62.7645 49.1867C62.8892 49.7272 62.942 50.2399 62.9229 50.7248C62.9038 51.2098 62.7978 51.6494 62.605 52.0436C62.4223 52.4346 62.1476 52.7819 61.781 53.0853C61.4222 53.3753 60.9677 53.6058 60.4178 53.7769L57.1178 54.8038ZM58.5528 53.0038L59.7139 52.6425C60.488 52.4016 60.9603 52.0596 61.131 51.6166C61.3095 51.1601 61.304 50.5212 61.1146 49.7001C60.9923 49.1701 60.8191 48.7505 60.5949 48.4415C60.3786 48.1189 60.0973 47.9168 59.751 47.8352C59.4124 47.7401 58.9886 47.7717 58.4793 47.9302L57.4557 48.2487L58.5528 53.0038ZM57.1464 46.9079L58.17 46.5894C58.6588 46.4373 59.0252 46.2509 59.269 46.0302C59.5104 45.7991 59.6512 45.5102 59.6913 45.1635C59.7314 44.8169 59.6939 44.3941 59.5788 43.8952C59.4445 43.3131 59.2608 42.9191 59.0277 42.7132C58.7946 42.5072 58.4875 42.4301 58.1065 42.4818C57.723 42.5232 57.2359 42.6358 56.6452 42.8196L56.2327 42.948L57.1464 46.9079ZM65.1295 52.3107L62.2159 39.6825L63.7437 39.207L65.7616 47.9533L67.3644 38.0803L68.6019 37.6952L71.5155 50.3235L70.003 50.7941L67.9527 41.9076L66.4128 51.9114L65.1295 52.3107ZM73.4545 49.7201L70.5409 37.0918L72.2672 36.5546L73.5262 42.0113L76.7039 41.0224L75.4449 35.5658L77.1713 35.0286L80.0849 47.6568L78.3585 48.194L76.9953 42.2853L73.8176 43.2741L75.1808 49.1829L73.4545 49.7201ZM82.3079 49.0204L81.9949 47.664C82.5365 47.5512 82.9439 47.4244 83.2171 47.2837C83.5005 47.1398 83.679 46.9673 83.7527 46.7661C83.8389 46.5722 83.8509 46.3401 83.7885 46.0698C83.7238 45.7892 83.6165 45.4661 83.4666 45.1006L78.4324 34.6361L80.0671 34.1274L82.3469 39.1829L83.8977 42.9947L83.5305 38.848L83.2142 33.1481L84.8642 32.6347L85.246 44.5803C85.2617 45.1213 85.2782 45.5951 85.2956 46.0019C85.3233 46.4055 85.3071 46.7614 85.2473 47.0697C85.1976 47.3748 85.0736 47.6417 84.8753 47.8705C84.677 48.0993 84.37 48.3062 83.9542 48.4913C83.5486 48.6732 82.9998 48.8496 82.3079 49.0204ZM87.6508 45.3024L87.3486 43.9928C87.5751 43.9335 87.7752 43.8545 87.9489 43.7559C88.1328 43.6541 88.2781 43.5031 88.3847 43.3028C88.5015 43.0993 88.5776 42.8139 88.6129 42.4464C88.6482 42.079 88.6406 41.5967 88.5902 40.9997C88.5398 40.4027 88.4444 39.6582 88.3041 38.7661L87.1663 31.9183L92.605 30.2258L95.5186 42.8541L93.7923 43.3913L91.1808 32.0726L88.9503 32.7667L89.9082 38.2669C90.0444 39.0935 90.1472 39.8468 90.2168 40.527C90.284 41.1967 90.2925 41.8012 90.2422 42.3404C90.1998 42.8661 90.0833 43.3312 89.8928 43.7358C89.7101 44.1269 89.4358 44.4517 89.0697 44.7105C88.7037 44.9692 88.2307 45.1665 87.6508 45.3024ZM97.4597 42.25L94.5461 29.6218L96.0738 29.1464L98.0918 37.8926L99.6946 28.0197L100.932 27.6346L103.846 40.2628L102.333 40.7335L100.283 31.8469L98.743 41.8507L97.4597 42.25ZM30.0043 82.19C29.3321 82.3992 28.7419 82.4436 28.2338 82.3232C27.7257 82.2028 27.3033 81.9332 26.9665 81.5145C26.6298 81.0957 26.3846 80.5537 26.2312 79.8885L26.134 79.4676L27.7534 78.9636C27.7702 79.0364 27.7882 79.1144 27.8074 79.1975C27.8242 79.2703 27.8449 79.3362 27.8694 79.3954C28.0145 79.9296 28.2183 80.3396 28.4807 80.6255C28.7432 80.9115 29.1443 80.9704 29.6841 80.8025C30.0813 80.6789 30.3602 80.4918 30.5207 80.2414C30.6789 79.9805 30.754 79.6675 30.7462 79.3023C30.736 78.9267 30.6781 78.5103 30.5726 78.053C30.4215 77.3982 30.153 76.8969 29.7671 76.5491C29.3812 76.2013 28.7851 76.125 27.9786 76.3203C27.9355 76.3225 27.8834 76.3332 27.8223 76.3522C27.7713 76.3681 27.7153 76.3855 27.6542 76.4045C27.6033 76.4204 27.5524 76.4362 27.5014 76.452L27.1921 75.1113C27.2328 75.0986 27.2787 75.0843 27.3296 75.0685C27.3907 75.0495 27.4467 75.032 27.4977 75.0162C27.5564 74.9868 27.601 74.9673 27.6316 74.9578C28.4038 74.6618 28.8956 74.286 29.1071 73.8303C29.3263 73.361 29.3592 72.7938 29.2057 72.1286C29.0738 71.5569 28.8563 71.1345 28.553 70.8612C28.2576 70.5744 27.8298 70.5181 27.2697 70.6925C26.7299 70.8604 26.3836 71.1576 26.2309 71.5839C26.0758 71.9997 26.0426 72.4946 26.1313 73.0686C26.1457 73.1309 26.1613 73.1985 26.1781 73.2713C26.1925 73.3336 26.2081 73.4012 26.2249 73.4739L24.5902 73.9826L24.4931 73.5617C24.3372 72.8861 24.3263 72.2712 24.4604 71.717C24.5946 71.1629 24.8659 70.683 25.2745 70.2773C25.683 69.8717 26.2234 69.5643 26.8956 69.3551C27.578 69.1428 28.1846 69.0988 28.7155 69.2233C29.2541 69.3341 29.702 69.5958 30.0592 70.0082C30.4241 70.4071 30.6845 70.9443 30.8404 71.6199C31.0154 72.3786 30.9952 73.0478 30.7795 73.6273C30.5741 74.2037 30.2195 74.6538 29.7157 74.9777C30.1111 74.9883 30.4724 75.0875 30.7995 75.2753C31.1267 75.4632 31.4107 75.748 31.6516 76.1297C31.8902 76.5011 32.0754 76.9726 32.2072 77.5443C32.3799 78.2926 32.4291 78.9791 32.3549 79.6037C32.2783 80.218 32.0507 80.7456 31.6721 81.1864C31.2935 81.6273 30.7376 81.9618 30.0043 82.19ZM33.9359 80.8162L33.65 67.3702L35.3152 66.852L40.8718 78.6578L39.2371 79.1665L37.9381 76.162L35.4173 76.9464L35.5553 80.3122L33.9359 80.8162ZM35.3551 75.6122L37.4176 74.9704L35.0658 69.6032L35.3551 75.6122ZM45.6186 77.1807L42.705 64.5525L49.5187 62.4321L52.4323 75.0604L50.7059 75.5976L48.0837 64.2322L44.7227 65.2781L47.3449 76.6435L45.6186 77.1807ZM53.6891 74.6693L53.4032 61.2233L55.0684 60.7051L60.625 72.5109L58.9903 73.0196L57.6913 70.0151L55.1705 70.7995L55.3085 74.1653L53.6891 74.6693ZM55.1083 69.4653L57.1708 68.8235L54.819 63.4563L55.1083 69.4653ZM61.8806 72.1202L58.967 59.4919L62.0378 58.5364C62.7813 58.305 63.4044 58.2615 63.9071 58.4058C64.4176 58.5366 64.8346 58.8302 65.1582 59.2865C65.4818 59.7427 65.7287 60.3399 65.899 61.0778C66.0525 61.743 66.0684 62.3563 65.9469 62.9177C65.8355 63.4759 65.587 63.9599 65.2012 64.3696C64.813 64.7689 64.2828 65.0731 63.6106 65.2823L62.2509 65.7054L63.607 71.583L61.8806 72.1202ZM61.9595 64.4426L62.754 64.1954C63.253 64.04 63.6319 63.8609 63.8907 63.6578C64.1495 63.4547 64.3077 63.1939 64.3652 62.8752C64.4202 62.5461 64.3878 62.1218 64.2679 61.6021C64.1288 60.9993 63.9763 60.551 63.8103 60.2573C63.6545 59.9605 63.4247 59.7925 63.1209 59.7533C62.8171 59.7142 62.375 59.7849 61.7944 59.9656L60.9847 60.2176L61.9595 64.4426ZM69.5106 71.8012L69.1977 70.4448C69.7393 70.332 70.1467 70.2052 70.4198 70.0645C70.7032 69.9206 70.8817 69.7481 70.9554 69.5469C71.0417 69.353 71.0536 69.1209 70.9913 68.8506C70.9265 68.57 70.8192 68.2469 70.6694 67.8814L65.6351 57.4169L67.2698 56.9082L69.5497 61.9637L71.1005 65.7755L70.7332 61.6288L70.417 55.9289L72.0669 55.4155L72.4487 67.3611C72.4644 67.9021 72.4809 68.3759 72.4984 68.7827C72.526 69.1863 72.5099 69.5422 72.45 69.8505C72.4003 70.1556 72.2763 70.4225 72.078 70.6513C71.8798 70.8801 71.5727 71.087 71.157 71.2721C70.7514 71.454 70.2026 71.6304 69.5106 71.8012ZM31.2839 100.44L28.5995 87.7404L30.2953 87.2127L34.8432 96.7757L34.6799 85.8482L36.3604 85.3253L39.5031 97.8822L38.1129 98.3148L35.8603 89.1905L35.8824 99.0089L34.9046 99.3132L30.7119 90.7926L32.6894 100.003L31.2839 100.44ZM41.3999 97.292L38.4863 84.6637L43.2834 83.1709L43.5856 84.4805L40.5148 85.4361L41.4788 89.6143L43.969 88.8394L44.2568 90.0867L41.7666 90.8616L42.8349 95.4919L45.9362 94.5268L46.2276 95.7897L41.3999 97.292ZM50.755 94.5312C49.8791 94.8038 49.1535 94.829 48.5783 94.607C48.0133 94.3818 47.5609 93.9823 47.2211 93.4085C46.8915 92.8315 46.6367 92.1533 46.4569 91.3738L45.4281 86.9149C45.2315 86.0626 45.1517 85.291 45.1888 84.5999C45.236 83.9057 45.4594 83.3126 45.8589 82.8206C46.2663 82.3151 46.9079 81.9261 47.7838 81.6535C48.5579 81.4126 49.2025 81.368 49.7178 81.5196C50.2433 81.668 50.6651 81.9823 50.9833 82.4625C51.3117 82.9396 51.5635 83.5575 51.7385 84.3162L51.9687 85.314L50.334 85.8227L50.129 84.9341C50.0211 84.4664 49.9009 84.0637 49.7685 83.7262C49.6438 83.3751 49.4568 83.1325 49.2076 82.9984C48.9583 82.8643 48.5943 82.8718 48.1156 83.0207C47.6268 83.1728 47.2955 83.3929 47.1217 83.6809C46.9456 83.9585 46.8675 84.3059 46.8873 84.723C46.9149 85.1266 46.9887 85.5882 47.1086 86.1079L48.2633 91.1124C48.4095 91.7464 48.5768 92.2347 48.7649 92.5772C48.9507 92.9092 49.1787 93.1168 49.4489 93.1998C49.7192 93.2828 50.0529 93.2625 50.4501 93.1389C50.9186 92.9931 51.2307 92.7846 51.3865 92.5133C51.5398 92.2317 51.5988 91.8958 51.5634 91.5058C51.528 91.1158 51.4527 90.6713 51.3376 90.1725L51.1218 89.237L52.7565 88.7283L52.9723 89.6638C53.1497 90.4329 53.2151 91.1422 53.1685 91.7917C53.1195 92.4308 52.9092 92.9863 52.5378 93.4584C52.1641 93.92 51.5698 94.2777 50.755 94.5312ZM54.7199 93.147L56.0077 86.6639C55.4002 86.5856 54.8624 86.3129 54.3944 85.8458C53.9342 85.3652 53.5998 84.6728 53.3912 83.7685C53.2353 83.093 53.2196 82.4573 53.3442 81.8615C53.4663 81.2554 53.7778 80.7129 54.2786 80.234C54.7794 79.7551 55.5085 79.3667 56.4659 79.0687L58.9714 78.2891L61.885 90.9173L60.1586 91.4545L58.95 86.2162L57.9723 86.5204C57.9519 86.5268 57.8857 86.5474 57.7737 86.5822C57.6592 86.6067 57.5918 86.6221 57.5715 86.6284L56.6448 92.548L54.7199 93.147ZM58.017 85.153L58.6587 84.9533L57.5364 80.0891L56.8489 80.303C56.0749 80.5439 55.5288 80.8977 55.2107 81.3643C54.9028 81.8277 54.84 82.4543 55.0223 83.2443C55.2285 84.1381 55.5602 84.7478 56.0174 85.0734C56.4746 85.399 57.1411 85.4256 58.017 85.153ZM71.1512 90.4901L70.485 88.2411L63.8087 90.3187L60.8951 77.6904L62.6215 77.1532L65.2437 88.5186L68.7575 87.4252L66.1353 76.0598L67.8616 75.5226L70.4839 86.888L71.6602 86.5219L72.4804 90.0765L71.1512 90.4901ZM73.3124 87.3613L70.3988 74.7331L75.1959 73.2403L75.498 74.5499L72.4273 75.5054L73.3913 79.6837L75.8815 78.9088L76.1692 80.156L73.679 80.9309L74.7473 85.5613L77.8486 84.5962L78.14 85.859L73.3124 87.3613ZM79.5337 85.4253L76.6201 72.7971L79.4617 71.9128C80.0219 71.7385 80.5201 71.6503 80.9562 71.6482C81.4026 71.643 81.7932 71.7275 82.1282 71.9018C82.4631 72.0761 82.7436 72.3453 82.9695 72.7094C83.193 73.0632 83.3671 73.5103 83.4918 74.0508C83.6117 74.5705 83.6498 75.0432 83.6062 75.4689C83.5703 75.8811 83.4451 76.2376 83.2306 76.5383C83.0264 76.8358 82.7277 77.0791 82.3347 77.2682C82.8602 77.2272 83.308 77.2995 83.6783 77.4851C84.0462 77.6602 84.3518 77.9439 84.5951 78.336C84.8462 78.7146 85.0413 79.2054 85.1804 79.8082C85.3051 80.3486 85.3579 80.8614 85.3388 81.3463C85.3197 81.8313 85.2137 82.2709 85.0208 82.6651C84.8382 83.0561 84.5635 83.4034 84.1969 83.7068C83.838 83.9967 83.3836 84.2273 82.8336 84.3984L79.5337 85.4253ZM80.9687 83.6253L82.1298 83.264C82.9038 83.0231 83.3762 82.6811 83.5469 82.2381C83.7254 81.7816 83.7199 81.1427 83.5305 80.3216C83.4082 79.7915 83.2349 79.372 83.0108 79.063C82.7945 78.7404 82.5132 78.5383 82.1668 78.4567C81.8283 78.3615 81.4044 78.3932 80.8952 78.5517L79.8716 78.8702L80.9687 83.6253ZM79.5623 77.5294L80.5858 77.2109C81.0747 77.0588 81.4411 76.8723 81.6849 76.6517C81.9263 76.4206 82.0671 76.1317 82.1072 75.785C82.1473 75.4383 82.1097 75.0156 81.9946 74.5167C81.8604 73.9346 81.6767 73.5406 81.4436 73.3347C81.2105 73.1287 80.9034 73.0516 80.5224 73.1033C80.1389 73.1447 79.6518 73.2573 79.0611 73.4411L78.6486 73.5694L79.5623 77.5294ZM87.9249 85.0031L87.4998 84.3667C87.7532 84.1876 87.9287 83.9548 88.0263 83.6682C88.1365 83.3888 88.1544 83.088 88.0801 82.7658L87.2093 83.0368L86.7956 81.2439L88.4761 80.7209L88.8826 82.4827C89.0097 83.0335 88.9933 83.5065 88.8334 83.9016C88.6759 84.3071 88.373 84.6742 87.9249 85.0031ZM35.3611 117.97L32.4475 105.341L35.5183 104.386C36.2618 104.154 36.8849 104.111 37.3876 104.255C37.8981 104.386 38.3151 104.68 38.6387 105.136C38.9623 105.592 39.2092 106.189 39.3795 106.927C39.533 107.592 39.5489 108.206 39.4274 108.767C39.316 109.325 39.0674 109.809 38.6817 110.219C38.2935 110.618 37.7633 110.923 37.0911 111.132L35.7314 111.555L37.0875 117.432L35.3611 117.97ZM35.44 110.292L36.2344 110.045C36.7335 109.889 37.1124 109.71 37.3712 109.507C37.63 109.304 37.7882 109.043 37.8456 108.725C37.9007 108.396 37.8683 107.971 37.7484 107.452C37.6093 106.849 37.4568 106.4 37.2908 106.107C37.135 105.81 36.9052 105.642 36.6014 105.603C36.2976 105.564 35.8555 105.634 35.2749 105.815L34.4652 106.067L35.44 110.292ZM42.7014 115.685L39.7878 103.057L44.5849 101.564L44.8871 102.874L41.8163 103.83L42.7803 108.008L45.2705 107.233L45.5583 108.48L43.0681 109.255L44.1364 113.885L47.2377 112.92L47.5291 114.183L42.7014 115.685ZM51.6593 113.048C50.987 113.257 50.3969 113.302 49.8888 113.181C49.3807 113.061 48.9583 112.792 48.6215 112.373C48.2847 111.954 48.0396 111.412 47.8861 110.747L47.789 110.326L49.4084 109.822C49.4252 109.895 49.4432 109.973 49.4624 110.056C49.4792 110.129 49.4999 110.195 49.5244 110.254C49.6695 110.788 49.8733 111.198 50.1357 111.484C50.3982 111.77 50.7993 111.829 51.3391 111.661C51.7363 111.537 52.0152 111.35 52.1757 111.1C52.3339 110.839 52.409 110.526 52.4012 110.161C52.3909 109.785 52.3331 109.369 52.2276 108.911C52.0765 108.256 51.808 107.755 51.4221 107.407C51.0362 107.06 50.44 106.983 49.6336 107.179C49.5905 107.181 49.5384 107.191 49.4773 107.21C49.4263 107.226 49.3703 107.244 49.3092 107.263C49.2583 107.279 49.2074 107.294 49.1564 107.31L48.8471 105.97C48.8878 105.957 48.9337 105.943 48.9846 105.927C49.0457 105.908 49.1017 105.89 49.1526 105.874C49.2114 105.845 49.256 105.826 49.2865 105.816C50.0588 105.52 50.5506 105.144 50.7621 104.689C50.9813 104.219 51.0142 103.652 50.8607 102.987C50.7288 102.415 50.5112 101.993 50.208 101.719C49.9126 101.433 49.4848 101.376 48.9247 101.551C48.3849 101.719 48.0386 102.016 47.8859 102.442C47.7308 102.858 47.6976 103.353 47.7863 103.927C47.8007 103.989 47.8163 104.057 47.8331 104.13C47.8475 104.192 47.8631 104.259 47.8799 104.332L46.2452 104.841L46.1481 104.42C45.9922 103.744 45.9813 103.129 46.1154 102.575C46.2496 102.021 46.5209 101.541 46.9295 101.136C47.338 100.73 47.8784 100.423 48.5506 100.213C49.233 100.001 49.8396 99.9571 50.3705 100.082C50.9091 100.192 51.357 100.454 51.7142 100.866C52.0791 101.265 52.3395 101.803 52.4954 102.478C52.6704 103.237 52.6501 103.906 52.4345 104.486C52.2291 105.062 51.8745 105.512 51.3707 105.836C51.7661 105.847 52.1274 105.946 52.4545 106.134C52.7817 106.321 53.0657 106.606 53.3066 106.988C53.5451 107.359 53.7303 107.831 53.8622 108.403C54.0349 109.151 54.0841 109.837 54.0099 110.462C53.9333 111.076 53.7057 111.604 53.3271 112.045C52.9485 112.486 52.3926 112.82 51.6593 113.048ZM56.5528 113.43L56.2398 112.074C56.7814 111.961 57.1888 111.834 57.462 111.694C57.7454 111.55 57.9239 111.377 57.9976 111.176C58.0838 110.982 58.0958 110.75 58.0334 110.48C57.9687 110.199 57.8614 109.876 57.7115 109.511L52.6773 99.0462L54.312 98.5375L56.5918 103.593L58.1426 107.405L57.7754 103.258L57.4591 97.5582L59.1091 97.0447L59.4909 108.99C59.5066 109.531 59.5231 110.005 59.5405 110.412C59.5682 110.816 59.552 111.171 59.4922 111.48C59.4425 111.785 59.3185 112.052 59.1202 112.281C58.9219 112.509 58.6149 112.716 58.1991 112.901C57.7935 113.083 57.2447 113.26 56.5528 113.43ZM61.8957 109.712L61.5935 108.403C61.82 108.344 62.0201 108.265 62.1938 108.166C62.3777 108.064 62.523 107.913 62.6296 107.713C62.7464 107.509 62.8225 107.224 62.8578 106.856C62.8931 106.489 62.8855 106.007 62.8351 105.41C62.7847 104.813 62.6893 104.068 62.549 103.176L61.4112 96.3283L66.8499 94.6359L69.7635 107.264L68.0372 107.801L65.4257 96.4827L63.1952 97.1768L64.1531 102.677C64.2893 103.504 64.3921 104.257 64.4617 104.937C64.5289 105.607 64.5374 106.211 64.4871 106.75C64.4447 107.276 64.3282 107.741 64.1377 108.146C63.9551 108.537 63.6807 108.862 63.3147 109.121C62.9486 109.379 62.4756 109.577 61.8957 109.712ZM71.7046 106.66L68.791 94.0319L70.5173 93.4946L71.7295 98.7486L72.2184 98.5965C73.1147 98.3176 73.8783 98.1969 74.5092 98.2345C75.1377 98.2618 75.6557 98.496 76.0631 98.9374C76.4808 99.3755 76.8011 100.078 77.0242 101.045C77.1752 101.699 77.2283 102.284 77.1835 102.8C77.1362 103.304 76.9844 103.758 76.728 104.161C76.4818 104.561 76.1311 104.909 75.6758 105.207C75.2283 105.491 74.6684 105.738 73.9962 105.947L71.7046 106.66ZM73.1396 104.86L73.7048 104.684C74.2243 104.523 74.6338 104.334 74.9333 104.118C75.2406 103.889 75.435 103.572 75.5164 103.168C75.5979 102.764 75.5594 102.219 75.4012 101.533C75.2021 100.67 74.8977 100.108 74.4878 99.8453C74.078 99.583 73.4351 99.5881 72.5592 99.8606L72.0245 100.027L73.1396 104.86ZM80.6135 103.888L78.002 92.5691L75.909 93.2205L75.6069 91.9109L81.4581 90.09L81.7603 91.3996L79.7284 92.0319L82.3398 103.351L80.6135 103.888ZM84.8924 102.556L84.6066 89.1103L86.2718 88.5921L91.8284 100.398L90.1937 100.907L88.8946 97.902L86.3739 98.6864L86.5118 102.052L84.8924 102.556ZM86.3117 97.3523L88.3741 96.7105L86.0223 91.3433L86.3117 97.3523ZM94.0409 99.7094L91.4294 88.3907L89.3364 89.0421L89.0343 87.7325L94.8855 85.9116L95.1876 87.2212L93.1557 87.8535L95.7672 99.1722L94.0409 99.7094ZM102.187 97.3249C101.352 97.5848 100.646 97.6261 100.07 97.4488C99.4946 97.2715 99.029 96.9095 98.6736 96.3628C98.3159 95.8058 98.0411 95.1115 97.8492 94.28L96.7449 89.4937C96.5531 88.6623 96.4958 87.917 96.573 87.258C96.658 86.5855 96.9089 86.0172 97.3259 85.5533C97.7506 85.0758 98.3805 84.7071 99.2157 84.4472C100.051 84.1873 100.75 84.1424 101.313 84.3125C101.876 84.4825 102.333 84.8305 102.684 85.3564C103.045 85.8791 103.321 86.5562 103.513 87.3877L104.621 92.1895C104.81 93.0106 104.864 93.7626 104.781 94.4456C104.709 95.1254 104.468 95.7128 104.058 96.2079C103.646 96.6927 103.022 97.065 102.187 97.3249ZM101.867 95.9373C102.325 95.7947 102.65 95.5934 102.841 95.3334C103.03 95.063 103.125 94.7437 103.127 94.3753C103.127 93.9966 103.073 93.5734 102.965 93.1057L101.688 87.5711C101.581 87.1034 101.447 86.7159 101.289 86.4086C101.129 86.091 100.911 85.8803 100.636 85.7765C100.358 85.6623 99.9905 85.6765 99.5322 85.8191C99.0739 85.9618 98.7441 86.1646 98.5428 86.4278C98.3493 86.6774 98.2514 86.9864 98.2491 87.3547C98.2443 87.7126 98.2959 88.1255 98.4038 88.5932L99.6808 94.1278C99.7887 94.5955 99.9242 94.9934 100.087 95.3214C100.248 95.639 100.468 95.8601 100.748 95.9847C101.035 96.0958 101.408 96.0799 101.867 95.9373ZM107.197 95.6154L104.513 82.9159L106.208 82.3882L110.756 91.9512L110.593 81.0237L112.273 80.5008L115.416 93.0577L114.026 93.4903L111.773 84.366L111.795 94.1844L110.818 94.4887L106.625 85.9681L108.602 95.178L107.197 95.6154ZM39.1421 138.048L38.322 134.493L38.8873 134.317C39.0268 134.118 39.1541 133.889 39.2691 133.63C39.3943 133.369 39.4898 133.049 39.5557 132.672C39.6293 132.282 39.6661 131.802 39.666 131.234C39.6635 130.656 39.6146 129.947 39.5192 129.108C39.434 128.265 39.2838 127.259 39.0685 126.09L38.4039 122.286L43.5829 120.675L46.2051 132.04L47.3968 131.669L48.2169 135.224L46.8878 135.638L46.2215 133.389L40.08 135.3L40.4713 137.634L39.1421 138.048ZM40.4914 133.818L44.4941 132.573L42.174 122.517L40.1726 123.14L40.7087 126.031C40.9269 127.166 41.0789 128.132 41.1647 128.93C41.2583 129.714 41.3015 130.374 41.2944 130.911C41.2951 131.435 41.255 131.876 41.1742 132.235C41.1011 132.581 40.9996 132.875 40.8696 133.116C40.7498 133.353 40.6238 133.588 40.4914 133.818ZM52.1808 131.684C51.3456 131.944 50.6401 131.986 50.0643 131.808C49.4885 131.631 49.023 131.269 48.6676 130.722C48.3098 130.165 48.035 129.471 47.8432 128.64L46.7389 123.853C46.547 123.022 46.4897 122.277 46.5669 121.618C46.6519 120.945 46.9029 120.377 47.3198 119.913C47.7445 119.435 48.3745 119.067 49.2096 118.807C50.0448 118.547 50.744 118.502 51.3072 118.672C51.8704 118.842 52.3273 119.19 52.6779 119.716C53.0386 120.239 53.3149 120.916 53.5068 121.747L54.6147 126.549C54.8041 127.37 54.8575 128.122 54.7749 128.805C54.7025 129.485 54.4615 130.072 54.0517 130.568C53.6396 131.052 53.0159 131.425 52.1808 131.684ZM51.8606 130.297C52.319 130.154 52.6437 129.953 52.8348 129.693C53.0234 129.423 53.119 129.103 53.1213 128.735C53.1213 128.356 53.0673 127.933 52.9594 127.465L51.6824 121.931C51.5745 121.463 51.4414 121.075 51.2832 120.768C51.1226 120.451 50.9048 120.24 50.6298 120.136C50.3524 120.022 49.9845 120.036 49.5262 120.179C49.0678 120.321 48.738 120.524 48.5368 120.787C48.3433 121.037 48.2454 121.346 48.243 121.714C48.2383 122.072 48.2899 122.485 48.3978 122.953L49.6747 128.487C49.7826 128.955 49.9181 129.353 50.0811 129.681C50.2417 129.999 50.4619 130.22 50.7418 130.344C51.0294 130.455 51.4023 130.44 51.8606 130.297ZM57.2215 129.966L54.3079 117.337L57.1495 116.453C57.7096 116.279 58.2078 116.191 58.644 116.188C59.0903 116.183 59.481 116.268 59.8159 116.442C60.1509 116.616 60.4313 116.885 60.6572 117.25C60.8808 117.603 61.0549 118.051 61.1796 118.591C61.2995 119.111 61.3376 119.583 61.2939 120.009C61.258 120.421 61.1328 120.778 60.9184 121.078C60.7141 121.376 60.4155 121.619 60.0225 121.808C60.5479 121.767 60.9958 121.84 61.3661 122.025C61.734 122.2 62.0396 122.484 62.2829 122.876C62.534 123.255 62.7291 123.746 62.8682 124.348C62.9928 124.889 63.0456 125.402 63.0265 125.887C63.0074 126.371 62.9015 126.811 62.7086 127.205C62.5259 127.596 62.2512 127.944 61.8846 128.247C61.5258 128.537 61.0714 128.767 60.5214 128.939L57.2215 129.966ZM58.6564 128.165L59.8175 127.804C60.5916 127.563 61.0639 127.221 61.2346 126.778C61.4131 126.322 61.4076 125.683 61.2182 124.862C61.0959 124.332 60.9227 123.912 60.6986 123.603C60.4822 123.281 60.2009 123.079 59.8546 122.997C59.5161 122.902 59.0922 122.933 58.5829 123.092L57.5593 123.41L58.6564 128.165ZM57.25 122.07L58.2736 121.751C58.7625 121.599 59.1288 121.413 59.3726 121.192C59.614 120.961 59.7548 120.672 59.7949 120.325C59.835 119.979 59.7975 119.556 59.6824 119.057C59.5481 118.475 59.3644 118.081 59.1313 117.875C58.8982 117.669 58.5911 117.592 58.2101 117.644C57.8267 117.685 57.3396 117.797 56.7488 117.981L56.3364 118.11L57.25 122.07ZM68.4279 126.629C67.5928 126.889 66.8873 126.93 66.3115 126.753C65.7357 126.575 65.2701 126.213 64.9147 125.667C64.557 125.11 64.2822 124.415 64.0903 123.584L62.986 118.797C62.7942 117.966 62.7369 117.221 62.8141 116.562C62.899 115.889 63.15 115.321 63.5669 114.857C63.9917 114.38 64.6216 114.011 65.4568 113.751C66.2919 113.491 66.9911 113.446 67.5543 113.616C68.1176 113.786 68.5745 114.134 68.925 114.66C69.2858 115.183 69.5621 115.86 69.7539 116.691L70.8618 121.493C71.0512 122.314 71.1047 123.066 71.0221 123.749C70.9497 124.429 70.7086 125.017 70.2989 125.512C69.8867 125.996 69.2631 126.369 68.4279 126.629ZM68.1078 125.241C68.5661 125.098 68.8908 124.897 69.0819 124.637C69.2706 124.367 69.3661 124.047 69.3685 123.679C69.3684 123.3 69.3144 122.877 69.2065 122.409L67.9296 116.875C67.8217 116.407 67.6886 116.02 67.5304 115.712C67.3698 115.395 67.1519 115.184 66.8769 115.08C66.5995 114.966 66.2316 114.98 65.7733 115.123C65.315 115.266 64.9852 115.468 64.7839 115.732C64.5904 115.981 64.4925 116.29 64.4902 116.658C64.4854 117.016 64.537 117.429 64.6449 117.897L65.9219 123.432C66.0298 123.899 66.1652 124.297 66.3283 124.625C66.4889 124.943 66.7091 125.164 66.9889 125.288C67.2765 125.399 67.6495 125.384 68.1078 125.241ZM72.5367 125.2L72.2345 123.89C72.461 123.831 72.6611 123.752 72.8348 123.653C73.0188 123.551 73.164 123.4 73.2706 123.2C73.3874 122.997 73.4635 122.711 73.4988 122.344C73.5341 121.976 73.5265 121.494 73.4761 120.897C73.4257 120.3 73.3303 119.555 73.19 118.663L72.0522 111.816L77.4909 110.123L80.4045 122.751L78.6782 123.289L76.0667 111.97L73.8362 112.664L74.7941 118.164C74.9303 118.991 75.0331 119.744 75.1027 120.424C75.1699 121.094 75.1784 121.698 75.1281 122.238C75.0857 122.763 74.9692 123.228 74.7787 123.633C74.5961 124.024 74.3217 124.349 73.9557 124.608C73.5896 124.866 73.1166 125.064 72.5367 125.2ZM82.3456 122.147L79.432 109.519L81.1583 108.982L82.3705 114.236L82.8594 114.084C83.7557 113.805 84.5193 113.684 85.1502 113.722C85.7787 113.749 86.2967 113.983 86.7041 114.425C87.1218 114.863 87.4421 115.565 87.6652 116.532C87.8162 117.186 87.8693 117.772 87.8245 118.287C87.7772 118.792 87.6254 119.245 87.369 119.648C87.1228 120.048 86.7721 120.397 86.3168 120.694C85.8693 120.978 85.3094 121.225 84.6372 121.434L82.3456 122.147ZM83.7806 120.347L84.3458 120.171C84.8653 120.01 85.2748 119.821 85.5743 119.605C85.8816 119.376 86.076 119.059 86.1574 118.655C86.2389 118.251 86.2004 117.706 86.0422 117.02C85.8431 116.157 85.5387 115.595 85.1288 115.332C84.719 115.07 84.0761 115.075 83.2002 115.348L82.6655 115.514L83.7806 120.347ZM89.8948 119.798L86.9812 107.17L88.7075 106.633L89.9665 112.089L93.1442 111.1L91.8852 105.644L93.6116 105.107L96.5252 117.735L94.7988 118.272L93.4355 112.363L90.2578 113.352L91.6211 119.261L89.8948 119.798ZM98.4585 117.133L95.5449 104.505L97.2712 103.968L98.4834 109.222L98.9723 109.07C99.8686 108.791 100.632 108.67 101.263 108.708C101.892 108.735 102.41 108.969 102.817 109.41C103.235 109.849 103.555 110.551 103.778 111.518C103.929 112.172 103.982 112.757 103.937 113.273C103.89 113.778 103.738 114.231 103.482 114.634C103.236 115.034 102.885 115.383 102.43 115.68C101.982 115.964 101.422 116.211 100.75 116.42L98.4585 117.133ZM99.8935 115.333L100.459 115.157C100.978 114.996 101.388 114.807 101.687 114.591C101.994 114.362 102.189 114.045 102.27 113.641C102.352 113.237 102.313 112.692 102.155 112.006C101.956 111.143 101.652 110.581 101.242 110.318C100.832 110.056 100.189 110.061 99.3131 110.334L98.7784 110.5L99.8935 115.333ZM105.914 114.813L103 102.185L104.727 101.648L107.64 114.276L105.914 114.813ZM112.763 109.791L109.952 100.022L111.602 99.5081L113.344 109.61L112.763 109.791ZM112.866 112.65L112.47 110.935L114.12 110.421L114.516 112.136L112.866 112.65Z" fill="black"/>
<path d="M95.0852 146.223L94.7488 139.609L95.3675 139.445L98.3564 145.357L97.7764 145.511L97.0227 143.915L95.5301 144.31L95.6575 146.072L95.0852 146.223ZM95.5026 143.862L96.8327 143.51L95.2727 140.306L95.5026 143.862ZM99.1109 145.157L97.4521 138.893L98.7977 138.537C99.0813 138.462 99.3306 138.434 99.5456 138.455C99.7606 138.475 99.9459 138.539 100.101 138.647C100.257 138.755 100.386 138.9 100.49 139.082C100.597 139.258 100.681 139.462 100.743 139.694C100.796 139.895 100.822 140.097 100.821 140.302C100.824 140.5 100.786 140.681 100.708 140.845C100.629 141.004 100.492 141.131 100.296 141.227C100.556 141.23 100.778 141.295 100.961 141.423C101.142 141.546 101.287 141.709 101.396 141.912C101.509 142.109 101.595 142.32 101.655 142.547C101.721 142.794 101.76 143.035 101.772 143.269C101.788 143.497 101.762 143.708 101.692 143.903C101.627 144.097 101.513 144.268 101.348 144.416C101.182 144.559 100.951 144.67 100.658 144.748L99.1109 145.157ZM99.5819 144.561L100.425 144.338C100.832 144.23 101.074 144.047 101.149 143.79C101.229 143.532 101.207 143.168 101.083 142.699C101.016 142.446 100.926 142.23 100.812 142.05C100.698 141.871 100.553 141.747 100.374 141.678C100.2 141.603 99.9864 141.599 99.7338 141.666L98.8754 141.893L99.5819 144.561ZM98.7546 141.437L99.6053 141.211C99.8476 141.147 100.021 141.052 100.125 140.925C100.228 140.793 100.284 140.637 100.291 140.459C100.298 140.275 100.27 140.067 100.209 139.835C100.142 139.582 100.051 139.383 99.9349 139.237C99.8242 139.09 99.6735 139 99.4829 138.968C99.2923 138.936 99.0371 138.962 98.7175 139.046L98.1607 139.194L98.7546 141.437ZM103.766 143.925L102.228 138.117L101.045 138.43L100.924 137.974L103.847 137.2L103.968 137.656L102.816 137.961L104.354 143.769L103.766 143.925ZM107.7 142.966C107.283 143.076 106.934 143.083 106.655 142.986C106.379 142.882 106.154 142.699 105.979 142.436C105.809 142.167 105.674 141.844 105.574 141.468L104.886 138.87C104.785 138.488 104.746 138.145 104.771 137.841C104.799 137.53 104.908 137.266 105.099 137.05C105.295 136.833 105.597 136.67 106.004 136.562C106.407 136.456 106.744 136.449 107.017 136.542C107.295 136.634 107.521 136.809 107.694 137.067C107.866 137.319 108.002 137.636 108.103 138.018L108.793 140.624C108.893 141 108.932 141.346 108.91 141.66C108.893 141.968 108.79 142.236 108.601 142.462C108.413 142.689 108.113 142.856 107.7 142.966ZM107.575 142.494C107.849 142.421 108.043 142.312 108.159 142.166C108.273 142.014 108.33 141.833 108.33 141.624C108.333 141.408 108.3 141.168 108.23 140.905L107.479 138.067C107.409 137.804 107.32 137.582 107.211 137.401C107.108 137.219 106.97 137.095 106.799 137.031C106.626 136.96 106.403 136.962 106.129 137.034C105.851 137.108 105.651 137.219 105.531 137.366C105.413 137.508 105.353 137.684 105.348 137.895C105.348 138.104 105.383 138.341 105.453 138.604L106.204 141.442C106.274 141.705 106.361 141.93 106.466 142.117C106.574 142.298 106.716 142.426 106.89 142.501C107.069 142.57 107.297 142.568 107.575 142.494ZM111.732 141.898C111.31 142.01 110.959 142.009 110.681 141.895C110.407 141.78 110.188 141.587 110.022 141.316C109.856 141.04 109.724 140.722 109.629 140.361L108.969 137.871C108.867 137.484 108.821 137.132 108.831 136.815C108.846 136.497 108.947 136.224 109.135 135.998C109.324 135.772 109.624 135.604 110.037 135.494C110.413 135.395 110.726 135.389 110.976 135.478C111.23 135.565 111.44 135.73 111.603 135.973C111.766 136.212 111.896 136.514 111.992 136.88L112.093 137.259L111.536 137.406L111.44 137.043C111.367 136.77 111.282 136.541 111.184 136.358C111.091 136.173 110.963 136.044 110.8 135.971C110.637 135.898 110.427 135.896 110.169 135.964C109.886 136.039 109.687 136.155 109.575 136.312C109.465 136.462 109.413 136.65 109.417 136.875C109.427 137.099 109.469 137.35 109.542 137.628L110.249 140.296C110.331 140.605 110.427 140.856 110.539 141.047C110.655 141.237 110.799 141.364 110.971 141.429C111.143 141.494 111.357 141.492 111.615 141.424C111.878 141.354 112.059 141.246 112.158 141.098C112.262 140.949 112.308 140.769 112.296 140.557C112.288 140.338 112.247 140.092 112.175 139.819L112.066 139.409L112.623 139.262L112.722 139.633C112.818 139.999 112.861 140.336 112.848 140.642C112.839 140.943 112.748 141.201 112.574 141.418C112.405 141.634 112.124 141.794 111.732 141.898ZM114.109 141.186L112.451 134.921L114.716 134.321L114.837 134.778L113.167 135.22L113.789 137.571L115.151 137.211L115.265 137.644L113.904 138.004L114.588 140.587L116.274 140.141L116.391 140.581L114.109 141.186ZM117.198 140.368L115.54 134.103L117.04 133.706C117.416 133.606 117.731 133.598 117.984 133.679C118.238 133.761 118.441 133.914 118.594 134.139C118.753 134.361 118.876 134.64 118.965 134.976C119.043 135.269 119.066 135.556 119.035 135.834C119.008 136.106 118.903 136.346 118.721 136.555C118.544 136.762 118.278 136.912 117.922 137.006L117.002 137.25L117.786 140.212L117.198 140.368ZM116.885 136.809L117.635 136.61C117.888 136.544 118.082 136.454 118.217 136.34C118.357 136.221 118.439 136.064 118.465 135.869C118.491 135.675 118.464 135.428 118.385 135.129C118.3 134.81 118.204 134.57 118.096 134.411C117.986 134.247 117.845 134.152 117.672 134.126C117.504 134.094 117.28 134.114 117.002 134.188L116.244 134.389L116.885 136.809ZM120.937 139.378L119.278 133.113L120.624 132.757C120.907 132.682 121.156 132.655 121.371 132.675C121.586 132.695 121.772 132.759 121.927 132.867C122.083 132.975 122.212 133.12 122.315 133.302C122.423 133.478 122.507 133.682 122.568 133.914C122.622 134.115 122.648 134.318 122.647 134.522C122.649 134.72 122.612 134.901 122.534 135.065C122.455 135.224 122.317 135.351 122.122 135.447C122.382 135.45 122.604 135.515 122.787 135.644C122.968 135.767 123.113 135.929 123.222 136.132C123.335 136.329 123.421 136.54 123.481 136.767C123.547 137.015 123.586 137.255 123.598 137.489C123.614 137.717 123.587 137.928 123.518 138.123C123.453 138.317 123.338 138.488 123.173 138.636C123.007 138.78 122.777 138.89 122.483 138.968L120.937 139.378ZM121.408 138.781L122.251 138.558C122.658 138.45 122.899 138.267 122.975 138.01C123.055 137.752 123.033 137.388 122.909 136.919C122.842 136.666 122.752 136.45 122.638 136.27C122.524 136.091 122.378 135.967 122.2 135.898C122.026 135.823 121.812 135.819 121.56 135.886L120.701 136.113L121.408 138.781ZM120.58 135.657L121.431 135.432C121.673 135.367 121.847 135.272 121.951 135.145C122.054 135.013 122.109 134.857 122.117 134.679C122.124 134.495 122.096 134.287 122.035 134.055C121.968 133.802 121.877 133.603 121.761 133.457C121.65 133.31 121.499 133.22 121.309 133.188C121.118 133.156 120.863 133.182 120.543 133.267L119.986 133.414L120.58 135.657ZM124.811 138.352L123.152 132.088L123.678 131.948L124.993 136.913L125.704 131.412L126.16 131.291L127.819 137.555L127.293 137.694L125.972 132.706L125.275 138.229L124.811 138.352ZM130.386 136.958C129.963 137.07 129.613 137.069 129.334 136.955C129.061 136.84 128.842 136.647 128.676 136.376C128.509 136.1 128.378 135.782 128.283 135.421L127.623 132.931C127.521 132.544 127.475 132.192 127.484 131.875C127.499 131.557 127.601 131.285 127.789 131.058C127.978 130.832 128.278 130.664 128.69 130.555C129.067 130.455 129.38 130.449 129.629 130.538C129.884 130.625 130.093 130.79 130.257 131.033C130.42 131.272 130.549 131.574 130.646 131.94L130.747 132.319L130.19 132.467L130.094 132.103C130.021 131.83 129.936 131.601 129.838 131.418C129.745 131.233 129.617 131.104 129.454 131.031C129.291 130.958 129.081 130.956 128.823 131.024C128.54 131.099 128.341 131.215 128.228 131.372C128.119 131.522 128.067 131.71 128.071 131.935C128.081 132.159 128.122 132.41 128.196 132.688L128.903 135.356C128.985 135.666 129.081 135.916 129.193 136.107C129.309 136.297 129.453 136.424 129.625 136.489C129.796 136.554 130.011 136.552 130.269 136.484C130.532 136.414 130.713 136.306 130.812 136.158C130.916 136.009 130.962 135.829 130.95 135.617C130.941 135.398 130.901 135.153 130.829 134.879L130.72 134.469L131.277 134.322L131.375 134.693C131.472 135.059 131.515 135.396 131.502 135.702C131.493 136.003 131.402 136.261 131.228 136.479C131.058 136.694 130.778 136.854 130.386 136.958ZM90.4926 150.667C90.4639 150.559 90.4352 150.451 90.4065 150.342C90.3779 150.234 90.3492 150.126 90.3205 150.018C90.2359 149.698 90.2083 149.438 90.2379 149.237C90.2712 149.029 90.3886 148.869 90.5902 148.754L90.7728 148.913C90.6449 149.013 90.5741 149.131 90.5604 149.267C90.5454 149.398 90.5686 149.579 90.6301 149.811L90.9472 149.728L91.1499 150.493L90.4926 150.667ZM91.5366 150.391C91.5079 150.282 91.4792 150.174 91.4506 150.066C91.4219 149.958 91.3932 149.849 91.3645 149.741C91.2799 149.421 91.2523 149.161 91.2819 148.96C91.3152 148.753 91.4327 148.592 91.6342 148.478L91.8168 148.637C91.6889 148.737 91.6181 148.855 91.6044 148.991C91.5894 149.122 91.6127 149.303 91.6741 149.535L91.9912 149.451L92.1939 150.217L91.5366 150.391ZM95.7916 154.345C95.4204 154.444 95.1074 154.449 94.8527 154.362C94.5979 154.275 94.3886 154.11 94.2248 153.866C94.061 153.623 93.9313 153.321 93.8358 152.96L93.762 152.681L94.3189 152.534L94.3864 152.789C94.4574 153.057 94.5402 153.286 94.6347 153.476C94.7343 153.665 94.8655 153.796 95.0282 153.869C95.1909 153.942 95.4038 153.943 95.6667 153.874C95.9503 153.798 96.1459 153.683 96.2537 153.528C96.3615 153.372 96.4106 153.183 96.4011 152.959C96.3966 152.734 96.3576 152.482 96.2838 152.204L95.9664 151.005L94.6285 151.36L94.522 150.957L95.8599 150.603L95.5794 149.544C95.4974 149.234 95.3982 148.985 95.2818 148.795C95.1691 148.598 95.0276 148.47 94.8573 148.411C94.6856 148.346 94.4735 148.347 94.2208 148.414C93.9579 148.483 93.7744 148.593 93.6704 148.742C93.5716 148.889 93.5256 149.07 93.5324 149.283C93.5393 149.496 93.5789 149.74 93.6512 150.013L93.7311 150.314L93.1743 150.462L93.1047 150.199C93.0077 149.833 92.9636 149.5 92.9724 149.199C92.985 148.893 93.0783 148.631 93.2525 148.414C93.4268 148.196 93.7072 148.037 94.0939 147.934C94.5166 147.822 94.8653 147.826 95.14 147.947C95.4184 148.061 95.6403 148.253 95.8058 148.524C95.9713 148.794 96.1025 149.113 96.1994 149.479L96.8568 151.961C96.9592 152.348 97.0036 152.703 96.99 153.027C96.9801 153.344 96.8811 153.615 96.6928 153.842C96.5096 154.067 96.2092 154.235 95.7916 154.345ZM98.3344 153.639L96.6755 147.375L98.0212 147.018C98.3047 146.943 98.554 146.916 98.769 146.936C98.9841 146.956 99.1693 147.021 99.3247 147.128C99.4802 147.236 99.6096 147.381 99.7131 147.563C99.8203 147.739 99.9046 147.943 99.9661 148.175C100.019 148.376 100.045 148.579 100.044 148.783C100.047 148.981 100.01 149.162 99.9316 149.326C99.8523 149.485 99.715 149.613 99.5197 149.708C99.7798 149.711 100.001 149.777 100.184 149.905C100.366 150.028 100.511 150.191 100.62 150.394C100.732 150.59 100.819 150.802 100.879 151.028C100.944 151.276 100.983 151.517 100.996 151.751C101.012 151.978 100.985 152.189 100.915 152.384C100.851 152.578 100.736 152.749 100.571 152.897C100.405 153.041 100.175 153.151 99.8811 153.229L98.3344 153.639ZM98.8054 153.042L99.6483 152.819C100.056 152.711 100.297 152.529 100.372 152.272C100.453 152.013 100.431 151.649 100.307 151.18C100.24 150.927 100.149 150.711 100.036 150.532C99.9219 150.352 99.776 150.228 99.5978 150.159C99.4234 150.084 99.2099 150.08 98.9572 150.147L98.0988 150.374L98.8054 153.042ZM97.978 149.918L98.8287 149.693C99.071 149.629 99.2443 149.533 99.3486 149.406C99.4516 149.274 99.507 149.119 99.5149 148.94C99.5214 148.756 99.4939 148.548 99.4325 148.316C99.3656 148.064 99.2742 147.864 99.1583 147.719C99.0476 147.571 98.8969 147.482 98.7063 147.449C98.5157 147.417 98.2606 147.443 97.9409 147.528L97.3841 147.675L97.978 149.918ZM102.208 152.613L100.55 146.349L102.816 145.749L102.936 146.205L101.266 146.647L101.888 148.998L103.25 148.638L103.364 149.071L102.003 149.431L102.687 152.014L104.373 151.568L104.49 152.009L102.208 152.613ZM105.297 151.795L103.639 145.531L105.139 145.133C105.515 145.034 105.83 145.025 106.084 145.107C106.337 145.189 106.54 145.342 106.693 145.566C106.852 145.789 106.975 146.068 107.064 146.403C107.142 146.697 107.165 146.983 107.134 147.262C107.107 147.534 107.002 147.774 106.82 147.982C106.643 148.189 106.377 148.339 106.021 148.434L105.101 148.677L105.885 151.639L105.297 151.795ZM104.984 148.236L105.734 148.038C105.987 147.971 106.181 147.881 106.317 147.768C106.456 147.648 106.538 147.491 106.564 147.297C106.59 147.102 106.563 146.856 106.484 146.557C106.399 146.237 106.303 145.998 106.195 145.839C106.085 145.675 105.944 145.58 105.772 145.554C105.603 145.521 105.379 145.541 105.101 145.615L104.343 145.816L104.984 148.236ZM109.028 150.807L107.369 144.543L109.635 143.943L109.756 144.399L108.086 144.841L108.708 147.192L110.069 146.832L110.184 147.265L108.823 147.625L109.507 150.208L111.193 149.762L111.309 150.203L109.028 150.807ZM113.591 149.681C113.169 149.793 112.818 149.792 112.54 149.678C112.266 149.563 112.047 149.37 111.882 149.1C111.715 148.824 111.584 148.505 111.488 148.144L110.829 145.654C110.726 145.268 110.68 144.916 110.69 144.599C110.705 144.28 110.806 144.008 110.995 143.781C111.183 143.555 111.483 143.387 111.896 143.278C112.272 143.178 112.585 143.173 112.835 143.261C113.089 143.348 113.299 143.513 113.463 143.757C113.625 143.995 113.755 144.297 113.852 144.663L113.952 145.042L113.395 145.19L113.299 144.826C113.227 144.553 113.141 144.325 113.043 144.141C112.95 143.956 112.822 143.827 112.659 143.754C112.496 143.682 112.286 143.679 112.028 143.748C111.745 143.823 111.547 143.939 111.434 144.095C111.324 144.246 111.272 144.433 111.277 144.658C111.286 144.882 111.328 145.133 111.401 145.412L112.108 148.08C112.19 148.389 112.287 148.639 112.398 148.83C112.514 149.02 112.658 149.148 112.83 149.212C113.002 149.277 113.216 149.276 113.474 149.207C113.737 149.138 113.918 149.029 114.017 148.882C114.121 148.733 114.167 148.552 114.155 148.34C114.147 148.122 114.106 147.876 114.034 147.603L113.926 147.193L114.482 147.045L114.581 147.417C114.678 147.783 114.72 148.119 114.707 148.426C114.698 148.726 114.607 148.985 114.433 149.202C114.264 149.418 113.983 149.577 113.591 149.681ZM116.75 148.762L115.212 142.954L114.028 143.268L113.908 142.811L116.831 142.037L116.952 142.494L115.799 142.799L117.337 148.606L116.75 148.762ZM118.838 148.209L118.502 141.595L119.12 141.431L122.109 147.343L121.529 147.496L120.776 145.9L119.283 146.295L119.41 148.057L118.838 148.209ZM119.255 145.848L120.586 145.495L119.026 142.292L119.255 145.848ZM122.864 147.143L121.205 140.879L122.551 140.523C122.834 140.447 123.083 140.42 123.299 140.44C123.514 140.461 123.699 140.525 123.854 140.632C124.01 140.74 124.139 140.885 124.243 141.068C124.35 141.243 124.434 141.447 124.496 141.679C124.549 141.88 124.575 142.083 124.574 142.287C124.577 142.485 124.539 142.666 124.461 142.83C124.382 142.989 124.244 143.117 124.049 143.213C124.309 143.215 124.531 143.281 124.714 143.409C124.895 143.532 125.04 143.695 125.149 143.898C125.262 144.094 125.348 144.306 125.408 144.533C125.474 144.78 125.513 145.021 125.525 145.255C125.541 145.482 125.514 145.693 125.445 145.888C125.38 146.082 125.265 146.253 125.101 146.402C124.934 146.545 124.704 146.656 124.411 146.733L122.864 147.143ZM123.335 146.547L124.178 146.323C124.585 146.215 124.826 146.033 124.902 145.776C124.982 145.517 124.96 145.153 124.836 144.684C124.769 144.432 124.679 144.215 124.565 144.036C124.451 143.856 124.305 143.732 124.127 143.664C123.953 143.588 123.739 143.584 123.487 143.651L122.628 143.878L123.335 146.547ZM122.507 143.422L123.358 143.197C123.6 143.133 123.774 143.037 123.878 142.91C123.981 142.778 124.036 142.623 124.044 142.444C124.051 142.26 124.023 142.053 123.962 141.821C123.895 141.568 123.804 141.369 123.688 141.223C123.577 141.076 123.426 140.986 123.236 140.954C123.045 140.921 122.79 140.947 122.47 141.032L121.914 141.18L122.507 143.422ZM127.519 145.91L125.981 140.102L124.798 140.416L124.677 139.959L127.6 139.185L127.721 139.642L126.569 139.947L128.107 145.755L127.519 145.91ZM131.453 144.951C131.035 145.062 130.687 145.069 130.407 144.971C130.132 144.868 129.907 144.685 129.732 144.422C129.562 144.153 129.427 143.83 129.327 143.454L128.639 140.855C128.538 140.474 128.499 140.131 128.524 139.826C128.552 139.515 128.661 139.252 128.852 139.036C129.048 138.818 129.35 138.656 129.757 138.548C130.16 138.441 130.497 138.435 130.77 138.528C131.048 138.62 131.274 138.795 131.447 139.052C131.618 139.305 131.755 139.622 131.856 140.003L132.546 142.609C132.646 142.986 132.685 143.331 132.663 143.646C132.646 143.954 132.543 144.221 132.354 144.448C132.166 144.674 131.866 144.842 131.453 144.951ZM131.328 144.479C131.601 144.407 131.796 144.298 131.912 144.151C132.026 143.999 132.083 143.819 132.083 143.609C132.086 143.393 132.053 143.154 131.983 142.891L131.232 140.053C131.162 139.79 131.073 139.568 130.964 139.387C130.861 139.205 130.723 139.081 130.552 139.016C130.379 138.946 130.156 138.947 129.882 139.02C129.604 139.093 129.404 139.204 129.283 139.352C129.166 139.493 129.105 139.669 129.101 139.88C129.101 140.09 129.136 140.326 129.206 140.589L129.957 143.427C130.027 143.69 130.114 143.915 130.219 144.103C130.327 144.284 130.469 144.412 130.643 144.487C130.821 144.556 131.05 144.553 131.328 144.479ZM132.806 139.702L132.611 139.53C132.74 139.435 132.813 139.322 132.828 139.191C132.843 139.06 132.819 138.876 132.756 138.639L132.446 138.721L132.244 137.956L132.893 137.784C132.922 137.892 132.951 138 132.979 138.108C133.008 138.217 133.037 138.325 133.065 138.433C133.15 138.753 133.178 139.016 133.15 139.222C133.121 139.423 133.006 139.583 132.806 139.702ZM133.85 139.426L133.655 139.254C133.784 139.159 133.857 139.046 133.872 138.915C133.887 138.784 133.863 138.6 133.8 138.363L133.491 138.445L133.288 137.679L133.937 137.507C133.966 137.615 133.995 137.724 134.023 137.832C134.052 137.94 134.081 138.048 134.109 138.157C134.194 138.476 134.222 138.739 134.194 138.945C134.165 139.146 134.05 139.306 133.85 139.426Z" fill="black"/>
</svg>
