<svg width="124" height="133" viewBox="0 0 124 133" fill="none" xmlns="http://www.w3.org/2000/svg">
<path fill-rule="evenodd" clip-rule="evenodd" d="M12.8486 0.496023C11.2018 0.331655 9.71059 1.34685 9.27403 2.9295L7.57369 9.09378L7.88227 9.19101C7.8797 9.21691 7.87763 9.24299 7.87605 9.26924L2.27688 102.446C2.21062 103.549 3.04791 104.532 4.14702 104.641L38.404 108.061L37.7573 118.605C37.7448 118.81 37.6092 118.981 37.4152 119.037L32.7406 120.396L33.6728 123.29L38.3475 121.931L37.8814 120.484L38.3475 121.931C39.7056 121.536 40.6545 120.338 40.7423 118.907L41.3892 108.359L108.989 115.106C109.409 115.148 109.807 115.056 110.142 114.865L114.549 113.584C115.907 113.189 116.856 111.991 116.943 110.56L122.804 14.9898C122.923 13.0588 121.457 11.3363 119.532 11.1442L12.8486 0.496023ZM111.215 111.388L113.616 110.69C113.81 110.634 113.946 110.462 113.958 110.258L119.663 17.2328L116.666 20.6643L111.215 111.388ZM114.974 17.9558L118.392 14.0429L12.6687 3.49062C12.4334 3.46714 12.2204 3.61217 12.158 3.83826L11.1245 7.5851L114.828 17.9359C114.877 17.9408 114.926 17.9474 114.974 17.9558ZM41.5728 105.364L108.174 112.012L113.653 20.8311L10.8012 10.5654L5.32203 101.746L38.5877 105.066L43.741 21.0367L46.726 21.3384L41.5728 105.364Z" fill="black"/>
<path d="M9.36752 9.41832C9.38408 9.14268 9.62026 8.94146 9.89504 8.96888L114.737 19.4333C115.012 19.4607 115.221 19.7064 115.205 19.982L109.605 113.159C109.589 113.435 109.353 113.636 109.078 113.609L37.3599 106.45C35.4438 106.259 33.7943 107.657 33.6685 109.578L32.9176 121.045C32.89 121.466 32.3852 121.646 32.0784 121.344L15.6104 105.096C15.0157 104.509 14.2432 104.143 13.4276 104.062L4.23588 103.144C3.96111 103.117 3.75178 102.871 3.76835 102.595L9.36752 9.41832Z" fill="#FCD1CC" stroke="black" stroke-width="3"/>
<path d="M20.5787 38.8538C19.7078 38.7729 19.0235 38.5381 18.5256 38.1492C18.0278 37.7603 17.6883 37.2415 17.5069 36.5928C17.3263 35.9335 17.2643 35.1782 17.3208 34.3267L17.6463 29.4255C17.7029 28.574 17.8628 27.8553 18.1261 27.2694C18.4008 26.6738 18.8036 26.24 19.3347 25.968C19.877 25.6864 20.5836 25.586 21.4545 25.6668C22.3255 25.7477 23.0049 25.9767 23.4928 26.354C23.9807 26.7313 24.316 27.2336 24.4987 27.861C24.6921 28.4893 24.7605 29.2292 24.704 30.0807L24.3774 34.9979C24.3216 35.8387 24.156 36.5622 23.8806 37.1685C23.6158 37.7757 23.2169 38.2313 22.6838 38.5352C22.1513 38.8284 21.4497 38.9346 20.5787 38.8538ZM20.6731 37.4329C21.1511 37.4773 21.5185 37.415 21.7755 37.2461C22.0332 37.0666 22.2163 36.8051 22.3245 36.4618C22.4335 36.1078 22.504 35.6914 22.5358 35.2124L22.9122 29.5449C22.944 29.0659 22.9287 28.6522 22.8664 28.3038C22.8047 27.9447 22.6578 27.6633 22.4255 27.4597C22.1939 27.2454 21.8392 27.1161 21.3612 27.0717C20.8833 27.0274 20.5105 27.0891 20.2429 27.2571C19.9866 27.4153 19.8043 27.6661 19.696 28.0095C19.5884 28.3421 19.5187 28.748 19.4869 29.2269L19.1105 34.8944C19.0787 35.3734 19.0932 35.7977 19.1542 36.1675C19.2158 36.5266 19.3621 36.8186 19.5929 37.0435C19.8351 37.2587 20.1952 37.3885 20.6731 37.4329ZM25.8785 39.2012L26.7374 26.2697L33.8428 26.9293L32.984 39.8608L31.1837 39.6937L31.9567 28.0554L28.4518 27.73L27.6788 39.3683L25.8785 39.2012ZM34.9956 40.0476L35.8544 27.1161L40.8569 27.5805L40.7679 28.9215L37.5656 28.6243L37.2815 32.9028L39.8783 33.1439L39.7935 34.4211L37.1966 34.18L36.8817 38.9216L40.1158 39.2218L40.0299 40.515L34.9956 40.0476ZM41.4833 40.6499L42.3422 27.7184L45.5444 28.0156C46.3197 28.0876 46.9262 28.2885 47.3638 28.6183C47.8128 28.9384 48.1258 29.3744 48.3028 29.9262C48.4799 30.4781 48.5434 31.1319 48.4932 31.8876C48.4479 32.5687 48.2866 33.1481 48.0091 33.6256C47.7422 34.1042 47.3659 34.4601 46.8802 34.6935C46.3952 34.9162 45.8022 34.995 45.1012 34.9299L43.6833 34.7983L43.2836 40.817L41.4833 40.6499ZM43.7692 33.5051L44.5976 33.582C45.1181 33.6303 45.5309 33.6098 45.836 33.5203C46.1412 33.4308 46.367 33.2483 46.5136 32.9728C46.6608 32.6866 46.7521 32.2774 46.7874 31.7453C46.8284 31.128 46.8121 30.6499 46.7384 30.3111C46.6754 29.9733 46.5047 29.7272 46.2264 29.5728C45.9481 29.4185 45.5063 29.3132 44.9009 29.257L44.0565 29.1786L43.7692 33.5051ZM48.2502 41.2781L51.8493 28.601L53.5858 28.7622L55.4831 41.9495L53.7784 41.7913L53.4053 38.4797L50.7766 38.2357L49.939 41.4349L48.2502 41.2781ZM51.1014 36.9647L53.2522 37.1644L52.5559 31.2367L51.1014 36.9647ZM57.7903 42.1637L58.5601 30.5733L56.3775 30.3706L56.4665 29.0296L62.5683 29.596L62.4792 30.9371L60.3604 30.7404L59.5906 42.3309L57.7903 42.1637ZM62.9535 42.643L63.8123 29.7115L65.4055 29.8594L64.8107 38.8157L69.1813 30.21L70.4717 30.3298L69.6129 43.2613L68.0356 43.1148L68.64 34.0149L64.2917 42.7673L62.9535 42.643ZM71.6349 43.449L72.4938 30.5175L75.457 30.7926C76.0412 30.8468 76.5414 30.9575 76.9578 31.1246C77.3848 31.2928 77.7328 31.5232 78.0019 31.8159C78.271 32.1086 78.4608 32.4689 78.5713 32.8968C78.6825 33.3141 78.7197 33.7994 78.683 34.3529C78.6476 34.885 78.5479 35.3416 78.3836 35.7226C78.2307 36.0939 78.0088 36.3785 77.7178 36.5764C77.4374 36.7752 77.0827 36.8869 76.6536 36.9113C77.1663 37.0767 77.5724 37.3179 77.8719 37.6348C78.1722 37.9411 78.3818 38.3247 78.5008 38.7855C78.6311 39.2367 78.6758 39.7709 78.6348 40.3882C78.598 40.9416 78.5007 41.4413 78.3429 41.8871C78.185 42.3329 77.9574 42.7027 77.6601 42.9963C77.3734 43.291 77.0116 43.5091 76.5747 43.6505C76.1492 43.7824 75.6497 43.8217 75.0761 43.7684L71.6349 43.449ZM73.5211 42.323L74.7319 42.4354C75.539 42.5103 76.0878 42.3738 76.378 42.026C76.6796 41.6684 76.8584 41.0693 76.9142 40.2285C76.9502 39.6857 76.9059 39.2264 76.7813 38.8507C76.668 38.4654 76.458 38.1675 76.1514 37.957C75.8561 37.7368 75.4429 37.6021 74.9119 37.5528L73.8445 37.4537L73.5211 42.323ZM73.9356 36.0807L75.003 36.1798C75.5129 36.2271 75.9157 36.1949 76.2117 36.0832C76.5084 35.9608 76.7257 35.7454 76.8637 35.4369C77.0018 35.1285 77.0878 34.7188 77.1217 34.2079C77.1613 33.6119 77.0996 33.1725 76.9367 32.8896C76.7739 32.6068 76.5034 32.4157 76.1252 32.3163C75.7478 32.2064 75.2511 32.1228 74.6351 32.0656L74.205 32.0256L73.9356 36.0807ZM79.9896 44.2246L80.8485 31.2931L82.6487 31.4602L82.2776 37.0479L85.5914 37.3555L85.9625 31.7678L87.7627 31.9349L86.9039 44.8665L85.1036 44.6993L85.5055 38.6487L82.1917 38.341L81.7899 44.3917L79.9896 44.2246ZM92.2082 45.5035C91.3373 45.4226 90.653 45.1877 90.1551 44.7988C89.6573 44.4099 89.3178 43.8912 89.1364 43.2425C88.9558 42.5832 88.8938 41.8278 88.9503 40.9764L89.2758 36.0752C89.3324 35.2237 89.4923 34.505 89.7556 33.919C90.0303 33.3234 90.4331 32.8896 90.9642 32.6177C91.5065 32.336 92.2131 32.2357 93.0841 32.3165C93.955 32.3974 94.6344 32.6264 95.1223 33.0037C95.6102 33.381 95.9455 33.8833 96.1282 34.5106C96.3216 35.139 96.39 35.8789 96.3335 36.7304L96.0069 41.6475C95.9511 42.4883 95.7855 43.2119 95.5101 43.8181C95.2453 44.4254 94.8464 44.881 94.3133 45.1849C93.7808 45.4781 93.0792 45.5843 92.2082 45.5035ZM92.3026 44.0826C92.7806 44.127 93.148 44.0647 93.405 43.8958C93.6628 43.7162 93.8458 43.4548 93.9541 43.1115C94.0631 42.7575 94.1335 42.341 94.1653 41.8621L94.5417 36.1946C94.5735 35.7156 94.5582 35.3019 94.4959 34.9534C94.4342 34.5943 94.2873 34.313 94.055 34.1094C93.8234 33.8951 93.4687 33.7658 92.9907 33.7214C92.5128 33.677 92.14 33.7388 91.8724 33.9067C91.6161 34.065 91.4338 34.3158 91.3255 34.6591C91.2179 34.9918 91.1482 35.3976 91.1164 35.8766L90.74 41.5441C90.7082 42.023 90.7227 42.4474 90.7837 42.8172C90.8453 43.1763 90.9916 43.4683 91.2224 43.6932C91.4646 43.9084 91.8247 44.0382 92.3026 44.0826ZM97.2736 47.9334L97.0515 47.1739C97.3446 47.1047 97.579 46.9551 97.7545 46.7251C97.94 46.5068 98.0437 46.2326 98.0656 45.9027L97.1575 45.8184L97.2795 43.9824L99.0319 44.1451L98.9121 45.9491C98.8747 46.5132 98.7228 46.9489 98.4566 47.2561C98.1897 47.574 97.7954 47.7998 97.2736 47.9334ZM16.0976 56.3644L16.9565 43.4329L19.9197 43.708C20.5039 43.7622 21.0041 43.8729 21.4205 44.04C21.8475 44.2082 22.1955 44.4386 22.4646 44.7313C22.7337 45.024 22.9235 45.3843 23.034 45.8122C23.1452 46.2295 23.1824 46.7148 23.1457 47.2683C23.1103 47.8004 23.0106 48.257 22.8463 48.638C22.6934 49.0093 22.4715 49.2939 22.1805 49.4918C21.9001 49.6907 21.5454 49.8023 21.1163 49.8267C21.629 49.9921 22.0351 50.2333 22.3346 50.5502C22.6349 50.8565 22.8445 51.2401 22.9635 51.7009C23.0938 52.1521 23.1385 52.6863 23.0975 53.3036C23.0608 53.857 22.9635 54.3567 22.8056 54.8025C22.6478 55.2483 22.4202 55.6181 22.1228 55.9117C21.8361 56.2064 21.4743 56.4245 21.0374 56.566C20.6119 56.6978 20.1124 56.7371 19.5388 56.6838L16.0976 56.3644ZM17.9838 55.2384L19.1946 55.3508C20.0018 55.4257 20.5505 55.2892 20.8408 54.9414C21.1423 54.5839 21.3211 53.9847 21.3769 53.1439C21.413 52.6011 21.3687 52.1418 21.244 51.7662C21.1307 51.3808 20.9207 51.0829 20.6141 50.8724C20.3188 50.6522 19.9056 50.5175 19.3746 50.4682L18.3072 50.3691L17.9838 55.2384ZM18.3983 48.9961L19.4658 49.0952C19.9756 49.1425 20.3784 49.1103 20.6744 48.9986C20.9711 48.8762 21.1884 48.6608 21.3265 48.3523C21.4645 48.0439 21.5505 47.6342 21.5844 47.1233C21.624 46.5273 21.5623 46.0879 21.3995 45.8051C21.2366 45.5222 20.9661 45.3311 20.588 45.2318C20.2105 45.1218 19.7138 45.0382 19.0978 44.981L18.6677 44.941L18.3983 48.9961ZM27.6769 57.5839C26.7635 57.4991 26.0646 57.2415 25.5802 56.811C25.1065 56.3815 24.7903 55.8328 24.6316 55.1648C24.4835 54.4978 24.436 53.7652 24.489 52.9669L24.7923 48.401C24.8502 47.5283 24.9964 46.7761 25.2307 46.1447C25.4756 45.5142 25.8593 45.0465 26.3818 44.7416C26.9157 44.427 27.6393 44.3122 28.5527 44.397C29.3599 44.4719 29.9872 44.6801 30.4348 45.0215C30.8929 45.3638 31.2045 45.8211 31.3696 46.3933C31.5452 46.9665 31.6073 47.6415 31.5557 48.4185L31.4878 49.4402L29.7831 49.282L29.8436 48.372C29.8754 47.893 29.8767 47.4702 29.8477 47.1034C29.8299 46.7269 29.7216 46.4277 29.5226 46.2058C29.3236 45.9838 28.9745 45.8497 28.4753 45.8033C27.9655 45.756 27.5863 45.8333 27.3378 46.0351C27.09 46.2262 26.9155 46.5206 26.8143 46.9181C26.7244 47.306 26.6618 47.766 26.6265 48.2982L26.2861 53.4229C26.243 54.0722 26.2618 54.5933 26.3426 54.9863C26.4241 55.3687 26.5816 55.651 26.8153 55.8333C27.049 56.0157 27.373 56.1261 27.7872 56.1645C28.2757 56.2099 28.6333 56.136 28.8599 55.9428C29.0871 55.739 29.24 55.448 29.3186 55.0698C29.3971 54.6916 29.4534 54.247 29.4873 53.7362L29.5509 52.7783L31.2556 52.9365L31.192 53.8944C31.1397 54.682 30.9978 55.3703 30.7663 55.9592C30.5356 56.5375 30.1752 56.9752 29.6853 57.2724C29.196 57.5589 28.5266 57.6628 27.6769 57.5839ZM32.6514 57.9011L33.5103 44.9696L38.5128 45.434L38.4237 46.7751L35.2215 46.4778L34.9373 50.7564L37.5342 50.9975L37.4493 52.2746L34.8525 52.0336L34.5376 56.7751L37.7717 57.0754L37.6858 58.3685L32.6514 57.9011ZM42.7798 58.8414L43.6386 45.9099L50.7441 46.5695L49.8852 59.501L48.085 59.3339L48.8579 47.6955L45.353 47.3702L44.58 59.0085L42.7798 58.8414ZM55.1851 60.1376C54.3142 60.0568 53.6298 59.8219 53.132 59.433C52.6342 59.0441 52.2946 58.5253 52.1133 57.8767C51.9327 57.2174 51.8706 56.462 51.9272 55.6105L52.2527 50.7093C52.3092 49.8579 52.4692 49.1392 52.7325 48.5532C53.0072 47.9576 53.41 47.5238 53.941 47.2518C54.4834 46.9702 55.19 46.8698 56.0609 46.9507C56.9318 47.0315 57.6112 47.2606 58.0991 47.6378C58.587 48.0151 58.9223 48.5174 59.1051 49.1448C59.2985 49.7732 59.3669 50.5131 59.3103 51.3645L58.9838 56.2817C58.9279 57.1225 58.7623 57.846 58.4869 58.4523C58.2222 59.0595 57.8233 59.5151 57.2901 59.819C56.7577 60.1123 56.056 60.2185 55.1851 60.1376ZM55.2795 58.7167C55.7574 58.7611 56.1249 58.6988 56.3819 58.5299C56.6396 58.3504 56.8226 58.089 56.9309 57.7456C57.0399 57.3916 57.1103 56.9752 57.1421 56.4962L57.5185 50.8287C57.5503 50.3498 57.5351 49.9361 57.4727 49.5876C57.4111 49.2285 57.2641 48.9471 57.0319 48.7435C56.8003 48.5292 56.4455 48.3999 55.9676 48.3556C55.4897 48.3112 55.1169 48.373 54.8492 48.5409C54.5929 48.6991 54.4106 48.9499 54.3023 49.2933C54.1948 49.626 54.1251 50.0318 54.0933 50.5107L53.7168 56.1783C53.685 56.6572 53.6996 57.0815 53.7605 57.4513C53.8222 57.8104 53.9684 58.1024 54.1993 58.3273C54.4415 58.5426 54.8015 58.6724 55.2795 58.7167ZM63.1412 63.0929L63.3829 59.453L63.9724 59.5077C64.1629 59.3754 64.3501 59.2108 64.5342 59.0137C64.7289 58.8176 64.9119 58.5561 65.0832 58.2294C65.2658 57.8929 65.4389 57.4592 65.6024 56.9282C65.7666 56.3866 65.9241 55.7052 66.0748 54.8839C66.2362 54.0636 66.3826 53.0652 66.5142 51.8887L66.9758 48.0764L72.3765 48.5778L71.6036 60.2161L72.8462 60.3315L72.6045 63.9715L71.2185 63.8428L71.2309 61.4826L64.8265 60.8881L64.5272 63.2216L63.1412 63.0929ZM65.6452 59.663L69.8193 60.0505L70.5032 49.7532L68.4161 49.5594L68.0946 52.4691C67.9758 53.6147 67.8425 54.5768 67.6946 55.3555C67.558 56.1246 67.409 56.7586 67.2476 57.2577C67.0976 57.7471 66.9323 58.144 66.7518 58.4485C66.5826 58.7434 66.4013 58.9782 66.2081 59.153C66.0254 59.3288 65.8378 59.4988 65.6452 59.663ZM74.1138 61.7503L74.9726 48.8188L79.9751 49.2832L79.8861 50.6242L76.6838 50.3269L76.3997 54.6055L78.9965 54.8466L78.9117 56.1238L76.3148 55.8827L75.9999 60.6242L79.234 60.9245L79.1481 62.2176L74.1138 61.7503ZM79.6297 62.2623L79.7188 60.9213C79.9517 60.9536 80.1652 60.9574 80.3592 60.9326C80.5638 60.9087 80.7458 60.8239 80.9051 60.678C81.075 60.5332 81.2297 60.2959 81.3691 59.9661C81.5086 59.6364 81.6402 59.1828 81.7641 58.6053C81.8879 58.0278 82.0114 57.295 82.1345 56.4069L83.0217 49.566L88.6933 50.0925L87.8344 63.024L86.0342 62.8569L86.8039 51.2664L84.4779 51.0505L83.8073 56.5622C83.6991 57.3874 83.5802 58.1314 83.4507 58.794C83.3219 59.446 83.1559 60.0142 82.9528 60.4987C82.7609 60.9735 82.516 61.363 82.2179 61.6673C81.9312 61.962 81.5761 62.1593 81.1527 62.2592C80.7293 62.3591 80.2216 62.3601 79.6297 62.2623ZM89.5689 65.1608L89.6611 63.7719C90.2099 63.8764 90.6347 63.9158 90.9356 63.8902C91.2472 63.8656 91.467 63.7735 91.5952 63.6141C91.7332 63.4663 91.8114 63.254 91.8298 62.9773C91.8489 62.6899 91.8396 62.3464 91.8021 61.9467L90.0164 50.2153L91.7211 50.3736L92.4387 55.982L92.8194 60.1456L93.6633 56.1278L95.003 50.6783L96.7236 50.838L93.648 62.1501C93.5072 62.6618 93.3865 63.1111 93.286 63.498C93.1961 63.8859 93.0782 64.2123 92.9324 64.4771C92.7972 64.743 92.6022 64.9444 92.3473 65.0814C92.0924 65.2184 91.7401 65.2928 91.2905 65.3046C90.8515 65.3174 90.2776 65.2694 89.5689 65.1608Z" fill="black"/>
</svg>
