<svg width="265" height="258" viewBox="0 0 265 258" fill="none" xmlns="http://www.w3.org/2000/svg">
<path fill-rule="evenodd" clip-rule="evenodd" d="M62.2103 19.0934C60.6768 18.8058 59.4003 19.5832 59.0806 20.9995L57.8788 26.3226L57.9599 26.3607C57.9581 26.4249 57.9595 26.4906 57.9641 26.5577L69.4806 191.669C69.5574 192.771 70.4998 193.829 71.5855 194.033L120.42 203.19L121.348 216.494C121.361 216.691 121.26 216.848 121.089 216.895L114.999 218.571L116.393 221.529L122.483 219.853C123.682 219.523 124.392 218.424 124.296 217.047L123.368 203.743L198.363 217.806C198.834 217.894 199.254 217.808 199.573 217.591L199.699 217.824L204.369 216.097C205.446 215.699 206.061 214.645 205.97 213.356L194.245 47.2951C194.109 45.3677 192.46 43.5177 190.561 43.1616L62.2103 19.0934ZM200.053 214.211L202.793 213.198C202.947 213.141 203.035 212.99 203.022 212.806L191.41 48.3476L188.618 50.7065C188.646 50.8258 188.665 50.9467 188.674 51.0682L200.053 214.211ZM185.928 48.5843L189.161 45.8527L62.419 22.0861C62.2 22.045 62.0176 22.1561 61.9719 22.3584L61.3261 25.219L185.928 48.5843ZM123.16 200.75L197.172 214.629L185.794 51.5128L60.9823 28.1082L72.3596 191.225L120.211 200.198L109.531 47.0747L112.479 47.6276L123.16 200.75Z" fill="black"/>
<path d="M59.438 26.8341C59.4188 26.5586 59.6232 26.3766 59.8947 26.4275L186.673 50.2008C186.944 50.2516 187.18 50.5162 187.199 50.7917L198.715 215.903C198.737 216.212 198.531 216.361 198.291 216.316C182.977 213.451 129.416 203.472 118.506 201.439C116.578 201.08 115.197 202.397 115.339 204.308L116.408 218.686C116.437 219.07 116.045 219.236 115.703 218.983L83.524 195.217C82.9799 194.815 82.3763 194.545 81.7738 194.434L71.4816 192.532C71.2097 192.481 70.9733 192.216 70.9541 191.94L59.438 26.8341Z" fill="#C9E6E3" stroke="black" stroke-width="3"/>
<path d="M75.3176 62.7024L74.38 49.7763L77.5596 50.259C78.3294 50.3758 78.9515 50.6123 79.4258 50.9684C79.9099 51.3154 80.2767 51.7709 80.5262 52.3349C80.7757 52.8988 80.9278 53.5585 80.9826 54.3138C81.032 54.9947 80.9536 55.5668 80.7473 56.03C80.5515 56.4948 80.2317 56.8302 79.7877 57.0364C79.343 57.232 78.7726 57.2769 78.0766 57.1712L76.6687 56.9575L77.1051 62.9737L75.3176 62.7024ZM76.575 55.6649L77.3975 55.7898C77.9143 55.8682 78.3161 55.8713 78.6029 55.7991C78.8897 55.7269 79.0859 55.5568 79.1916 55.2888C79.2966 55.0101 79.3297 54.6048 79.2912 54.0729C79.2464 53.4558 79.1646 52.9752 79.0458 52.631C78.9375 52.2884 78.7364 52.0316 78.4424 51.8607C78.1484 51.6899 77.7008 51.5588 77.0997 51.4675L76.2613 51.3403L76.575 55.6649ZM82.918 63.8561L81.9804 50.9301L86.9475 51.6841L87.0448 53.0245L83.8652 52.5419L84.1754 56.8186L86.7539 57.21L86.8465 58.4867L84.268 58.0953L84.6118 62.8348L87.823 63.3223L87.9167 64.6149L82.918 63.8561ZM89.3598 64.834L88.4223 51.9079L93.9272 52.7436L94.0221 54.0521L90.3047 53.4878L90.5999 57.5571L90.9953 57.6172C91.9234 57.758 92.696 57.9858 93.3134 58.3005C93.9405 58.6061 94.4213 59.0526 94.756 59.64C95.1011 60.229 95.3096 61.0182 95.3814 62.0076C95.43 62.6778 95.3926 63.2403 95.2691 63.695C95.1449 64.1391 94.9252 64.4898 94.6101 64.7471C94.3056 65.006 93.9056 65.1715 93.4102 65.2436C92.9246 65.3067 92.3338 65.2854 91.6377 65.1797L89.3598 64.834ZM91.0536 63.8127L91.5598 63.8895C92.0871 63.9696 92.5152 63.9767 92.8442 63.9109C93.183 63.8361 93.4183 63.6298 93.5503 63.2921C93.6928 62.956 93.7385 62.4369 93.6876 61.7347C93.6236 60.8517 93.4093 60.1984 93.0448 59.7748C92.6909 59.3528 92.0605 59.073 91.1535 58.9353L90.6948 58.8657L91.0536 63.8127ZM96.3856 65.9005L98.6535 60.4999C98.0655 60.1582 97.5762 59.6683 97.1858 59.0303C96.8051 58.3833 96.5812 57.5971 96.5141 56.6715C96.4639 55.98 96.5461 55.3875 96.7606 54.8939C96.9744 54.3898 97.3653 54.0283 97.9335 53.8094C98.5017 53.5905 99.2815 53.5563 100.273 53.7068L102.867 54.1006L103.805 67.0266L102.017 66.7553L101.628 61.3934L100.616 61.2397C100.595 61.2365 100.526 61.2261 100.41 61.2085C100.293 61.1802 100.224 61.1645 100.203 61.1613L98.3788 66.203L96.3856 65.9005ZM100.87 59.9999L101.534 60.1008L101.173 55.1219L100.461 55.0138C99.66 54.8921 99.0663 54.9756 98.6805 55.2643C98.3052 55.5545 98.1469 56.1039 98.2055 56.9125C98.2719 57.8274 98.5058 58.5363 98.9073 59.0391C99.3089 59.542 99.9631 59.8623 100.87 59.9999ZM107.204 67.5427L106.364 55.9572L104.197 55.6282L104.1 54.2877L110.158 55.2074L110.256 56.5479L108.152 56.2285L108.992 67.8141L107.204 67.5427ZM111.635 68.2153L113.418 55.7023L115.143 55.964L118.817 69.3055L117.124 69.0485L116.303 65.7042L113.693 65.308L113.312 68.4698L111.635 68.2153ZM113.836 64.0514L115.972 64.3756L114.474 58.3876L113.836 64.0514ZM76.6197 80.6552L75.6822 67.7292L82.7373 68.8001L83.6749 81.7262L81.8874 81.4548L81.0436 69.8214L77.5634 69.2931L78.4072 80.9266L76.6197 80.6552ZM85.6722 82.0294L84.7347 69.1033L87.9143 69.586C88.6841 69.7028 89.3062 69.9393 89.7805 70.2954C90.2646 70.6424 90.6314 71.0979 90.8809 71.6619C91.1304 72.2258 91.2825 72.8855 91.3373 73.6408C91.3867 74.3217 91.3082 74.8938 91.102 75.357C90.9062 75.8218 90.5864 76.1572 90.1424 76.3634C89.6977 76.5589 89.1273 76.6039 88.4313 76.4982L87.0234 76.2845L87.4598 82.3007L85.6722 82.0294ZM86.9297 74.9919L87.7522 75.1168C88.269 75.1952 88.6708 75.1983 88.9575 75.1261C89.2443 75.0539 89.4406 74.8838 89.5463 74.6158C89.6513 74.3371 89.6844 73.9318 89.6459 73.3999C89.6011 72.7828 89.5193 72.3022 89.4005 71.958C89.2922 71.6154 89.091 71.3586 88.797 71.1877C88.503 71.0169 88.0555 70.8858 87.4544 70.7945L86.616 70.6673L86.9297 74.9919ZM96.5576 83.8238C95.6928 83.6925 94.9897 83.4174 94.4483 82.9986C93.9068 82.5797 93.5026 82.0396 93.2356 81.3783C92.9679 80.7063 92.8031 79.9448 92.7414 79.0937L92.3861 74.1946C92.3243 73.3435 92.3822 72.6316 92.5597 72.0588C92.7469 71.4769 93.0821 71.0649 93.5651 70.8225C94.058 70.5712 94.7368 70.5111 95.6015 70.6424C96.4663 70.7737 97.1637 71.0426 97.6938 71.4493C98.224 71.8559 98.6218 72.3792 98.8872 73.0193C99.1632 73.6609 99.3321 74.4073 99.3938 75.2584L99.7503 80.1734C99.8112 81.0139 99.7485 81.7304 99.562 82.3228C99.3861 82.9169 99.0577 83.351 98.577 83.6253C98.0955 83.8889 97.4223 83.955 96.5576 83.8238ZM96.4546 82.4035C96.9291 82.4755 97.2808 82.4342 97.5094 82.2796C97.7373 82.1142 97.8807 81.8624 97.9396 81.5242C97.9977 81.1753 98.0094 80.7614 97.9747 80.2827L97.5638 74.6176C97.5291 74.1388 97.4572 73.7228 97.3481 73.3696C97.2383 73.0057 97.0556 72.7149 96.7999 72.4972C96.5434 72.2689 96.1779 72.1188 95.7034 72.0467C95.2288 71.9747 94.8719 72.0152 94.6327 72.1683C94.4033 72.3123 94.2591 72.5535 94.2002 72.8917C94.1405 73.2194 94.1281 73.6226 94.1628 74.1013L94.5737 79.7664C94.6084 80.2452 94.6811 80.6718 94.7917 81.0463C94.9015 81.4102 95.085 81.7116 95.3422 81.9506C95.6092 82.1805 95.98 82.3315 96.4546 82.4035ZM101.8 84.4775L100.862 71.5515L105.735 72.2911L105.832 73.6315L102.747 73.1633L103.588 84.7489L101.8 84.4775ZM107.902 85.4038L106.964 72.4777L110.144 72.9604C110.914 73.0773 111.536 73.3137 112.01 73.6698C112.494 74.0169 112.861 74.4724 113.111 75.0363C113.36 75.6003 113.512 76.2599 113.567 77.0153C113.616 77.6961 113.538 78.2682 113.332 78.7314C113.136 79.1962 112.816 79.5317 112.372 79.7378C111.927 79.9334 111.357 79.9783 110.661 79.8726L109.253 79.6589L109.689 85.6751L107.902 85.4038ZM109.159 78.3663L109.982 78.4912C110.499 78.5696 110.9 78.5728 111.187 78.5006C111.474 78.4284 111.67 78.2582 111.776 77.9902C111.881 77.7115 111.914 77.3062 111.876 76.7743C111.831 76.1572 111.749 75.6766 111.63 75.3324C111.522 74.9898 111.321 74.733 111.027 74.5622C110.733 74.3913 110.285 74.2602 109.684 74.169L108.846 74.0417L109.159 78.3663ZM115.502 86.5575L114.565 73.6315L119.532 74.3855L119.629 75.7259L116.45 75.2433L116.76 79.5201L119.338 79.9115L119.431 81.1881L116.852 80.7967L117.196 85.5363L120.407 86.0237L120.501 87.3163L115.502 86.5575ZM125.166 88.1665C124.259 88.0288 123.538 87.73 123.004 87.2702C122.481 86.812 122.096 86.2432 121.848 85.5638C121.611 84.886 121.464 84.1482 121.406 83.3503L121.075 78.7862C121.012 77.9139 121.051 77.1676 121.194 76.5475C121.347 75.9289 121.659 75.4817 122.129 75.2059C122.609 74.921 123.303 74.8474 124.21 74.9851C125.011 75.1067 125.655 75.3517 126.14 75.7201C126.637 76.09 127.005 76.5668 127.245 77.1504C127.497 77.7356 127.65 78.4165 127.707 79.1932L127.781 80.2145L126.088 79.9575L126.022 79.0479C125.987 78.5692 125.93 78.145 125.851 77.7752C125.782 77.3965 125.635 77.09 125.409 76.8559C125.184 76.6217 124.823 76.467 124.327 76.3918C123.821 76.315 123.46 76.3706 123.244 76.5588C123.028 76.7364 122.897 77.0217 122.853 77.4148C122.818 77.7988 122.82 78.2568 122.859 78.7887L123.23 83.9112C123.277 84.5602 123.367 85.0842 123.501 85.4832C123.633 85.8716 123.826 86.1639 124.081 86.3603C124.335 86.5567 124.667 86.6862 125.079 86.7486C125.564 86.8222 125.904 86.7687 126.1 86.5879C126.294 86.3965 126.404 86.1133 126.429 85.7383C126.454 85.3633 126.448 84.9205 126.411 84.4099L126.341 83.4524L128.034 83.7093L128.104 84.6668C128.161 85.4541 128.116 86.1365 127.97 86.7141C127.824 87.281 127.531 87.6995 127.092 87.9695C126.651 88.2289 126.01 88.2945 125.166 88.1665ZM133.307 89.4023C132.4 89.2646 131.68 88.9658 131.146 88.506C130.622 88.0478 130.237 87.479 129.989 86.7996C129.752 86.1218 129.605 85.384 129.547 84.5861L129.216 80.022C129.153 79.1497 129.193 78.4034 129.335 77.7833C129.489 77.1647 129.8 76.7175 130.271 76.4417C130.751 76.1568 131.444 76.0832 132.351 76.2209C133.152 76.3425 133.796 76.5875 134.282 76.9559C134.778 77.3258 135.146 77.8026 135.387 78.3862C135.638 78.9714 135.791 79.6523 135.848 80.429L135.922 81.4503L134.229 81.1934L134.163 80.2837C134.128 79.805 134.072 79.3808 133.993 79.011C133.923 78.6323 133.776 78.3258 133.55 78.0917C133.325 77.8575 132.964 77.7028 132.469 77.6276C131.962 77.5508 131.601 77.6064 131.386 77.7946C131.169 77.9722 131.038 78.2575 130.994 78.6506C130.959 79.0346 130.961 79.4926 131 80.0245L131.371 85.147C131.418 85.796 131.509 86.32 131.642 86.719C131.774 87.1074 131.968 87.3997 132.222 87.5961C132.476 87.7925 132.808 87.922 133.22 87.9844C133.705 88.058 134.045 88.0045 134.241 87.8237C134.435 87.6323 134.545 87.3491 134.57 86.9741C134.595 86.5991 134.589 86.1563 134.552 85.6457L134.483 84.6882L136.175 84.9451L136.245 85.9026C136.302 86.6899 136.257 87.3723 136.112 87.9499C135.965 88.5168 135.672 88.9353 135.233 89.2053C134.793 89.4647 134.151 89.5303 133.307 89.4023ZM138.226 90.007L137.289 77.0809L138.871 77.3211L139.52 86.2735L142.62 77.8902L143.901 78.0847L144.839 91.0107L143.273 90.773L142.613 81.6769L139.555 90.2087L138.226 90.007ZM146.846 91.3155L145.909 78.3894L148.851 78.8361C149.431 78.9241 149.937 79.064 150.368 79.2557C150.81 79.449 151.182 79.7002 151.486 80.0094C151.79 80.3186 152.026 80.6911 152.193 81.1268C152.36 81.5519 152.463 82.041 152.503 82.5942C152.542 83.1262 152.507 83.5785 152.398 83.9514C152.299 84.3151 152.121 84.5879 151.863 84.7697C151.616 84.9531 151.283 85.0447 150.866 85.0445C151.391 85.24 151.822 85.5053 152.16 85.8406C152.496 86.1653 152.754 86.5622 152.934 87.0314C153.124 87.4916 153.241 88.0302 153.286 88.6473C153.326 89.2005 153.3 89.6962 153.206 90.1345C153.113 90.5727 152.941 90.9306 152.69 91.2082C152.449 91.4873 152.125 91.6853 151.716 91.8021C151.317 91.9099 150.833 91.9206 150.263 91.8341L146.846 91.3155ZM148.54 90.2942L149.742 90.4767C150.544 90.5984 151.063 90.493 151.3 90.1607C151.546 89.8193 151.639 89.2284 151.578 88.388C151.538 87.8454 151.432 87.382 151.258 86.9979C151.094 86.6047 150.847 86.2937 150.518 86.0648C150.198 85.8269 149.774 85.6679 149.247 85.5879L148.187 85.427L148.54 90.2942ZM148.088 84.0546L149.148 84.2155C149.654 84.2923 150.044 84.2832 150.319 84.1881C150.593 84.0824 150.776 83.8788 150.869 83.5772C150.962 83.2757 150.99 82.8696 150.953 82.3589C150.91 81.7631 150.789 81.3187 150.59 81.0255C150.392 80.7323 150.1 80.525 149.716 80.4035C149.331 80.2714 148.832 80.1589 148.221 80.0661L147.794 80.0013L148.088 84.0546ZM155.142 92.5747L154.205 79.6487L155.992 79.92L156.397 85.5054L159.687 86.0048L159.282 80.4195L161.07 80.6908L162.007 93.6169L160.22 93.3455L159.781 87.2974L156.491 86.798L156.93 92.8461L155.142 92.5747ZM164.009 93.9207L163.072 80.9947L164.859 81.266L165.249 86.6439L165.755 86.7208C166.684 86.8616 167.456 87.0894 168.073 87.4041C168.69 87.7081 169.166 88.1538 169.5 88.7412C169.845 89.3302 170.054 90.1194 170.126 91.1088C170.174 91.779 170.137 92.3415 170.013 92.7962C169.889 93.2403 169.67 93.591 169.354 93.8483C169.05 94.1072 168.65 94.2727 168.155 94.3448C167.669 94.4079 167.078 94.3866 166.382 94.2809L164.009 93.9207ZM165.703 92.8995L166.288 92.9883C166.826 93.07 167.26 93.0779 167.589 93.0121C167.927 92.9373 168.168 92.7318 168.31 92.3957C168.453 92.0596 168.499 91.5405 168.448 90.8383C168.384 89.9553 168.169 89.302 167.805 88.8784C167.44 88.4548 166.805 88.1742 165.898 88.0365L165.344 87.9525L165.703 92.8995ZM171.729 95.0926L170.791 82.1665L172.579 82.4379L173.516 95.3639L171.729 95.0926ZM175.518 95.6678L174.58 82.7417L179.548 83.4957L179.645 84.8362L176.465 84.3535L176.775 88.6303L179.354 89.0217L179.446 90.2983L176.868 89.9069L177.212 94.6465L180.423 95.1339L180.517 96.4265L175.518 95.6678ZM77.9218 98.6081L76.9843 85.682L78.5662 85.9221L79.2155 94.8746L82.3152 86.4912L83.5966 86.6857L84.5341 99.6118L82.968 99.3741L82.3083 90.2779L79.2506 98.8098L77.9218 98.6081ZM90.1567 100.465L89.2191 87.5392L96.2743 88.6102L97.2119 101.536L95.4243 101.265L94.5806 89.6315L91.1004 89.1032L91.9442 100.737L90.1567 100.465ZM99.2092 101.839L98.2717 88.9134L101.451 89.396C102.221 89.5129 102.843 89.7494 103.317 90.1055C103.802 90.4525 104.168 90.908 104.418 91.4719C104.667 92.0359 104.82 92.6955 104.874 93.4509C104.924 94.1318 104.845 94.7038 104.639 95.167C104.443 95.6318 104.123 95.9673 103.679 96.1735C103.235 96.369 102.664 96.4139 101.968 96.3083L100.56 96.0946L100.997 102.111L99.2092 101.839ZM100.467 94.802L101.289 94.9268C101.806 95.0053 102.208 95.0084 102.495 94.9362C102.781 94.864 102.978 94.6939 103.083 94.4258C103.188 94.1472 103.221 93.7419 103.183 93.2099C103.138 92.5929 103.056 92.1122 102.937 91.768C102.829 91.4254 102.628 91.1687 102.334 90.9978C102.04 90.8269 101.592 90.6958 100.991 90.6046L100.153 90.4773L100.467 94.802ZM106.81 102.993L105.872 90.0671L110.839 90.8211L110.936 92.1616L107.757 91.6789L108.067 95.9557L110.646 96.3471L110.738 97.6238L108.16 97.2323L108.503 101.972L111.715 102.459L111.808 103.752L106.81 102.993ZM113.251 103.971L112.314 91.045L114.101 91.3163L114.518 97.0612L115.183 97.1621L117.06 91.7653L118.847 92.0367L116.762 97.7963L120.101 105.011L118.314 104.739L115.262 98.0422L114.582 97.9389L115.039 104.242L113.251 103.971ZM121.284 105.19L120.347 92.2644L123.527 92.747C124.296 92.8639 124.918 93.1003 125.393 93.4564C125.877 93.8035 126.244 94.259 126.493 94.8229C126.743 95.3869 126.895 96.0465 126.95 96.8019C126.999 97.4827 126.92 98.0548 126.714 98.518C126.518 98.9828 126.199 99.3183 125.755 99.5244C125.31 99.72 124.74 99.7649 124.044 99.6593L122.636 99.4455L123.072 105.462L121.284 105.19ZM122.542 98.1529L123.364 98.2778C123.881 98.3562 124.283 98.3594 124.57 98.2872C124.857 98.215 125.053 98.0448 125.159 97.7768C125.263 97.4981 125.297 97.0928 125.258 96.5609C125.213 95.9438 125.132 95.4632 125.013 95.119C124.904 94.7764 124.703 94.5197 124.409 94.3488C124.115 94.1779 123.668 94.0468 123.067 93.9556L122.228 93.8283L122.542 98.1529ZM128.004 106.21L129.787 93.6973L131.511 93.959L135.185 107.301L133.493 107.044L132.671 103.699L130.061 103.303L129.68 106.465L128.004 106.21ZM130.205 102.046L132.34 102.371L130.842 96.3827L130.205 102.046ZM139.707 108.129C138.8 107.991 138.08 107.693 137.546 107.233C137.022 106.774 136.637 106.206 136.389 105.526C136.152 104.848 136.005 104.111 135.947 103.313L135.616 98.7487C135.553 97.8764 135.593 97.1301 135.735 96.5099C135.889 95.8914 136.2 95.4442 136.671 95.1684C137.151 94.8835 137.844 94.8099 138.751 94.9476C139.552 95.0692 140.196 95.3142 140.682 95.6825C141.178 96.0525 141.546 96.5292 141.787 97.1129C142.038 97.6981 142.191 98.379 142.248 99.1556L142.322 100.177L140.629 99.92L140.563 99.0104C140.528 98.5317 140.472 98.1074 140.393 97.7377C140.323 97.359 140.176 97.0525 139.95 96.8184C139.725 96.5842 139.364 96.4295 138.869 96.3543C138.362 96.2774 138.001 96.3331 137.786 96.5213C137.569 96.6989 137.438 96.9842 137.394 97.3772C137.359 97.7613 137.361 98.2192 137.4 98.7512L137.771 103.874C137.818 104.523 137.909 105.047 138.042 105.446C138.174 105.834 138.368 106.126 138.622 106.323C138.876 106.519 139.208 106.649 139.62 106.711C140.105 106.785 140.445 106.731 140.641 106.55C140.835 106.359 140.945 106.076 140.97 105.701C140.995 105.326 140.989 104.883 140.952 104.372L140.883 103.415L142.575 103.672L142.645 104.629C142.702 105.417 142.657 106.099 142.512 106.677C142.365 107.244 142.072 107.662 141.633 107.932C141.193 108.191 140.551 108.257 139.707 108.129ZM144.626 108.734L143.689 95.8076L145.476 96.079L145.882 101.664L149.172 102.164L148.767 96.5784L150.554 96.8498L151.492 109.776L149.704 109.504L149.266 103.456L145.975 102.957L146.414 109.005L144.626 108.734ZM156.779 110.72C155.914 110.589 155.211 110.314 154.669 109.895C154.128 109.476 153.724 108.936 153.457 108.275C153.189 107.603 153.024 106.841 152.962 105.99L152.607 101.091C152.545 100.24 152.603 99.5281 152.781 98.9553C152.968 98.3735 153.303 97.9614 153.786 97.7191C154.279 97.4678 154.958 97.4077 155.822 97.539C156.687 97.6703 157.385 97.9392 157.915 98.3458C158.445 98.7525 158.843 99.2758 159.108 99.9158C159.384 100.557 159.553 101.304 159.615 102.155L159.971 107.07C160.032 107.91 159.969 108.627 159.783 109.219C159.607 109.813 159.279 110.248 158.798 110.522C158.316 110.785 157.643 110.852 156.779 110.72ZM156.676 109.3C157.15 109.372 157.502 109.331 157.73 109.176C157.958 109.011 158.102 108.759 158.161 108.421C158.219 108.072 158.23 107.658 158.196 107.179L157.785 101.514C157.75 101.035 157.678 100.619 157.569 100.266C157.459 99.9023 157.277 99.6115 157.021 99.3938C156.764 99.1655 156.399 99.0153 155.924 98.9433C155.45 98.8713 155.093 98.9118 154.854 99.0649C154.624 99.2089 154.48 99.45 154.421 99.7883C154.361 100.116 154.349 100.519 154.384 100.998L154.795 106.663C154.829 107.142 154.902 107.568 155.013 107.943C155.122 108.307 155.306 108.608 155.563 108.847C155.83 109.077 156.201 109.228 156.676 109.3ZM82.0343 117.13C81.3383 117.024 80.7486 116.803 80.2653 116.466C79.782 116.13 79.4062 115.694 79.138 115.159C78.8697 114.624 78.7108 114.016 78.6615 113.335L78.6302 112.904L80.307 113.158C80.3124 113.233 80.3182 113.313 80.3244 113.398C80.3298 113.472 80.3401 113.542 80.3552 113.608C80.4164 114.164 80.5547 114.632 80.77 115.012C80.9853 115.392 81.3724 115.624 81.9313 115.709C82.3426 115.772 82.6468 115.723 82.8438 115.564C83.04 115.394 83.1624 115.139 83.2107 114.799C83.2583 114.448 83.2651 114.039 83.2312 113.571C83.1825 112.901 82.9944 112.32 82.6667 111.828C82.339 111.336 81.7619 111.001 80.9355 110.823C80.8926 110.806 80.8394 110.793 80.7762 110.783C80.7234 110.775 80.6654 110.767 80.6022 110.757C80.5494 110.749 80.4967 110.741 80.444 110.733L80.3444 109.361C80.3866 109.367 80.4341 109.374 80.4868 109.382C80.5501 109.392 80.6081 109.401 80.6608 109.409C80.7233 109.408 80.7704 109.409 80.802 109.414C81.6102 109.484 82.1537 109.356 82.4325 109.03C82.7211 108.696 82.8407 108.188 82.7913 107.507C82.7489 106.922 82.5989 106.436 82.3415 106.05C82.0938 105.654 81.6799 105.413 81.0999 105.325C80.5409 105.24 80.1533 105.36 79.937 105.685C79.7199 105.999 79.6111 106.44 79.6106 107.008C79.6152 107.072 79.6202 107.141 79.6256 107.216C79.6303 107.279 79.6353 107.349 79.6407 107.423L77.9481 107.166L77.9168 106.735C77.8667 106.044 77.9504 105.472 78.168 105.021C78.3856 104.571 78.7273 104.249 79.1931 104.057C79.659 103.864 80.2399 103.821 80.9359 103.927C81.6425 104.034 82.2483 104.263 82.7535 104.613C83.2685 104.954 83.6706 105.394 83.96 105.932C84.2591 106.462 84.4338 107.072 84.4839 107.764C84.5403 108.54 84.4174 109.148 84.1155 109.586C83.824 110.026 83.4047 110.283 82.8573 110.358C83.2462 110.543 83.5878 110.795 83.882 111.113C84.1763 111.431 84.4131 111.819 84.5923 112.278C84.7709 112.726 84.8813 113.243 84.9238 113.828C84.9793 114.594 84.9225 115.248 84.7532 115.79C84.5832 116.322 84.2774 116.707 83.8357 116.945C83.3941 117.183 82.7936 117.245 82.0343 117.13ZM86.8244 117.715L85.8869 104.789L87.6744 105.06L88.0795 110.645L91.3698 111.145L90.9647 105.559L92.7522 105.831L93.6898 118.757L91.9023 118.485L91.4636 112.437L88.1733 111.938L88.6119 117.986L86.8244 117.715ZM94.9956 118.955L96.7789 106.442L98.5031 106.704L102.177 120.045L100.485 119.788L99.6633 116.444L97.0532 116.048L96.6724 119.21L94.9956 118.955ZM97.1967 114.791L99.3322 115.115L97.8341 109.127L97.1967 114.791ZM109.863 121.354C109.04 121.229 108.379 120.96 107.88 120.548C107.38 120.125 107.007 119.579 106.76 118.91C106.524 118.243 106.375 117.484 106.313 116.633L106.18 114.798L104.725 114.577L105.154 120.497L103.477 120.243L102.54 107.316L104.217 107.571L104.625 113.204L106.081 113.425L105.964 111.813C105.901 110.952 105.942 110.227 106.088 109.638C106.243 109.052 106.546 108.63 106.997 108.372C107.448 108.114 108.084 108.048 108.907 108.172C109.729 108.297 110.385 108.565 110.874 108.976C111.372 109.378 111.744 109.903 111.989 110.55C112.234 111.197 112.388 111.947 112.449 112.798L112.799 117.617C112.86 118.458 112.813 119.182 112.659 119.79C112.505 120.398 112.204 120.841 111.754 121.12C111.316 121.401 110.685 121.479 109.863 121.354ZM109.76 119.934C110.213 120.002 110.549 119.959 110.767 119.802C110.985 119.635 111.123 119.383 111.182 119.045C111.24 118.696 111.251 118.282 111.217 117.803L110.806 112.138C110.771 111.659 110.699 111.243 110.59 110.89C110.48 110.526 110.303 110.236 110.058 110.02C109.812 109.793 109.462 109.646 109.009 109.577C108.555 109.508 108.214 109.551 107.985 109.706C107.766 109.851 107.628 110.093 107.569 110.431C107.509 110.759 107.497 111.162 107.531 111.641L107.942 117.306C107.977 117.785 108.05 118.211 108.16 118.586C108.27 118.95 108.448 119.25 108.695 119.488C108.951 119.716 109.306 119.865 109.76 119.934ZM124.73 125.789L124.418 123.421L114.847 121.968L113.91 109.042L115.697 109.314L116.541 120.947L118.85 121.298L118.007 109.664L119.794 109.936L120.638 121.569L122.837 121.903L121.993 110.269L123.796 110.543L124.64 122.177L125.858 122.361L126.122 126L124.73 125.789ZM127.345 123.865L126.407 110.939L127.989 111.18L128.638 120.132L131.738 111.749L133.019 111.943L133.957 124.869L132.391 124.631L131.731 115.535L128.673 124.067L127.345 123.865ZM135.965 125.174L135.027 112.248L139.994 113.002L140.091 114.342L136.912 113.86L137.222 118.137L139.8 118.528L139.893 119.805L137.315 119.413L137.658 124.153L140.87 124.64L140.963 125.933L135.965 125.174ZM149.243 127.332C148.336 127.194 147.616 126.895 147.082 126.435C146.558 125.977 146.173 125.408 145.925 124.729C145.688 124.051 145.541 123.313 145.483 122.515L145.152 117.951C145.089 117.079 145.128 116.333 145.271 115.713C145.425 115.094 145.736 114.647 146.206 114.371C146.686 114.086 147.38 114.013 148.287 114.15C149.088 114.272 149.732 114.517 150.218 114.885C150.714 115.255 151.082 115.732 151.323 116.316C151.574 116.901 151.727 117.582 151.784 118.358L151.858 119.38L150.165 119.123L150.099 118.213C150.064 117.734 150.007 117.31 149.929 116.94C149.859 116.562 149.712 116.255 149.486 116.021C149.261 115.787 148.9 115.632 148.405 115.557C147.898 115.48 147.537 115.536 147.322 115.724C147.105 115.902 146.974 116.187 146.93 116.58C146.895 116.964 146.897 117.422 146.936 117.954L147.307 123.076C147.354 123.725 147.444 124.249 147.578 124.648C147.71 125.037 147.903 125.329 148.158 125.526C148.412 125.722 148.744 125.851 149.156 125.914C149.641 125.987 149.981 125.934 150.177 125.753C150.371 125.562 150.481 125.279 150.506 124.904C150.531 124.529 150.525 124.086 150.488 123.575L150.419 122.618L152.111 122.874L152.181 123.832C152.238 124.619 152.193 125.302 152.047 125.879C151.901 126.446 151.608 126.865 151.169 127.135C150.728 127.394 150.087 127.46 149.243 127.332ZM154.162 127.936L153.225 115.01L156.167 115.457C156.747 115.545 157.253 115.685 157.684 115.877C158.125 116.07 158.498 116.321 158.802 116.63C159.106 116.94 159.342 117.312 159.509 117.748C159.676 118.173 159.779 118.662 159.819 119.215C159.858 119.747 159.823 120.199 159.714 120.572C159.615 120.936 159.437 121.209 159.179 121.391C158.931 121.574 158.599 121.666 158.182 121.665C158.707 121.861 159.138 122.126 159.476 122.462C159.812 122.786 160.07 123.183 160.25 123.652C160.44 124.113 160.557 124.651 160.602 125.268C160.642 125.821 160.616 126.317 160.522 126.755C160.429 127.194 160.257 127.552 160.006 127.829C159.765 128.108 159.441 128.306 159.032 128.423C158.633 128.531 158.149 128.541 157.579 128.455L154.162 127.936ZM155.856 126.915L157.058 127.098C157.86 127.219 158.379 127.114 158.616 126.782C158.862 126.44 158.955 125.849 158.894 125.009C158.854 124.466 158.748 124.003 158.574 123.619C158.41 123.226 158.163 122.915 157.834 122.686C157.514 122.448 157.09 122.289 156.563 122.209L155.503 122.048L155.856 126.915ZM155.404 120.675L156.463 120.836C156.97 120.913 157.36 120.904 157.635 120.809C157.909 120.703 158.092 120.5 158.185 120.198C158.278 119.897 158.306 119.49 158.269 118.98C158.226 118.384 158.105 117.94 157.906 117.646C157.707 117.353 157.416 117.146 157.032 117.024C156.647 116.892 156.148 116.78 155.537 116.687L155.11 116.622L155.404 120.675ZM165.743 129.836C164.878 129.705 164.175 129.43 163.634 129.011C163.092 128.592 162.688 128.052 162.421 127.391C162.153 126.719 161.988 125.957 161.927 125.106L161.571 120.207C161.51 119.356 161.568 118.644 161.745 118.071C161.932 117.489 162.267 117.077 162.75 116.835C163.243 116.584 163.922 116.524 164.787 116.655C165.652 116.786 166.349 117.055 166.879 117.462C167.409 117.868 167.807 118.392 168.073 119.032C168.349 119.673 168.517 120.42 168.579 121.271L168.936 126.186C168.997 127.026 168.934 127.743 168.747 128.335C168.571 128.929 168.243 129.364 167.762 129.638C167.281 129.901 166.608 129.968 165.743 129.836ZM165.64 128.416C166.114 128.488 166.466 128.447 166.695 128.292C166.923 128.127 167.066 127.875 167.125 127.537C167.183 127.188 167.195 126.774 167.16 126.295L166.749 120.63C166.714 120.151 166.643 119.735 166.533 119.382C166.424 119.018 166.241 118.727 165.985 118.51C165.729 118.281 165.363 118.131 164.889 118.059C164.414 117.987 164.057 118.028 163.818 118.181C163.589 118.325 163.444 118.566 163.386 118.904C163.326 119.232 163.313 119.635 163.348 120.114L163.759 125.779C163.794 126.258 163.866 126.684 163.977 127.059C164.087 127.423 164.27 127.724 164.528 127.963C164.795 128.193 165.165 128.344 165.64 128.416ZM170.985 130.49L170.048 117.564L175.015 118.318L175.112 119.658L171.933 119.176L172.243 123.453L174.821 123.844L174.914 125.121L172.335 124.729L172.679 129.469L175.89 129.956L175.984 131.249L170.985 130.49ZM79.8737 136.735L79.6098 133.096L80.1951 133.185C80.3636 133.063 80.5245 132.909 80.6778 132.722C80.8416 132.536 80.985 132.284 81.108 131.966C81.2407 131.639 81.3506 131.214 81.4378 130.691C81.5243 130.157 81.5848 129.482 81.6196 128.667C81.6648 127.853 81.671 126.859 81.6381 125.687L81.5659 121.888L86.9285 122.702L87.7723 134.335L89.0062 134.523L89.2701 138.161L87.8938 137.952L87.5813 135.585L81.2222 134.619L81.2499 136.944L79.8737 136.735ZM81.8561 133.437L86.0006 134.066L85.254 123.773L83.1818 123.459L83.267 126.36C83.3082 127.503 83.3099 128.46 83.272 129.233C83.244 129.997 83.1852 130.625 83.0957 131.116C83.016 131.598 82.9086 131.987 82.7736 132.282C82.6483 132.568 82.503 132.794 82.3376 132.958C82.1827 133.124 82.0222 133.284 81.8561 133.437ZM90.4438 136.019L89.5062 123.093L94.4733 123.847L94.5706 125.188L91.391 124.705L91.7012 128.982L94.2796 129.373L94.3722 130.65L91.7938 130.258L92.1375 134.998L95.3488 135.485L95.4425 136.778L90.4438 136.019ZM95.9207 136.851L95.8234 135.51C96.0562 135.556 96.266 135.572 96.4527 135.558C96.65 135.546 96.8167 135.471 96.9527 135.334C97.0993 135.199 97.2183 134.97 97.3096 134.647C97.4009 134.324 97.4676 133.876 97.5095 133.304C97.5514 132.732 97.5716 132.003 97.5701 131.119L97.4983 124.306L103.13 125.161L104.067 138.087L102.28 137.816L101.439 126.23L99.1299 125.88L99.231 131.372C99.2385 132.193 99.2243 132.933 99.1886 133.59C99.1521 134.237 99.0676 134.798 98.9351 135.272C98.8124 135.738 98.6259 136.114 98.3757 136.403C98.1352 136.682 97.8143 136.859 97.413 136.935C97.0118 137.011 96.5143 136.983 95.9207 136.851ZM109.362 139.033C108.497 138.902 107.794 138.627 107.253 138.208C106.711 137.789 106.307 137.249 106.04 136.588C105.772 135.916 105.608 135.154 105.546 134.303L105.191 129.404C105.129 128.553 105.187 127.841 105.364 127.268C105.551 126.686 105.887 126.274 106.37 126.032C106.862 125.78 107.541 125.72 108.406 125.852C109.271 125.983 109.968 126.252 110.498 126.658C111.028 127.065 111.426 127.588 111.692 128.228C111.968 128.87 112.137 129.616 112.198 130.468L112.555 135.383C112.616 136.223 112.553 136.94 112.366 137.532C112.191 138.126 111.862 138.56 111.381 138.835C110.9 139.098 110.227 139.164 109.362 139.033ZM109.259 137.613C109.734 137.685 110.085 137.643 110.314 137.489C110.542 137.323 110.685 137.072 110.744 136.733C110.802 136.384 110.814 135.971 110.779 135.492L110.368 129.827C110.334 129.348 110.262 128.932 110.153 128.579C110.043 128.215 109.86 127.924 109.604 127.706C109.348 127.478 108.982 127.328 108.508 127.256C108.033 127.184 107.676 127.224 107.437 127.377C107.208 127.522 107.064 127.763 107.005 128.101C106.945 128.429 106.933 128.832 106.967 129.311L107.378 134.976C107.413 135.454 107.486 135.881 107.596 136.256C107.706 136.619 107.89 136.921 108.147 137.16C108.414 137.39 108.785 137.541 109.259 137.613Z" fill="black"/>
<path d="M134.863 189.595L134.985 188.465C134.942 188.463 134.884 188.458 134.81 188.45C134.736 188.443 134.68 188.436 134.644 188.429C134.344 188.376 134.098 188.276 133.905 188.129C133.718 187.982 133.584 187.78 133.505 187.523C133.432 187.262 133.417 186.932 133.46 186.534L133.652 184.761C133.695 184.363 133.782 184.049 133.914 183.818C134.046 183.587 134.218 183.431 134.431 183.35C134.649 183.264 134.905 183.247 135.199 183.299C135.246 183.308 135.304 183.32 135.371 183.338C135.44 183.35 135.494 183.362 135.536 183.375L135.664 182.19L136.271 182.297L136.143 183.474C136.191 183.477 136.254 183.486 136.333 183.5C136.418 183.509 136.481 183.518 136.523 183.525C136.812 183.576 137.05 183.68 137.236 183.837C137.422 183.994 137.552 184.209 137.624 184.481C137.702 184.749 137.72 185.079 137.677 185.471L137.485 187.245C137.442 187.643 137.358 187.955 137.232 188.181C137.106 188.402 136.94 188.551 136.734 188.628C136.532 188.706 136.295 188.721 136.022 188.673C135.949 188.66 135.875 188.644 135.803 188.626C135.735 188.608 135.664 188.591 135.592 188.572L135.469 189.702L134.863 189.595ZM134.741 188.049C134.778 188.056 134.822 188.064 134.875 188.073C134.933 188.078 134.984 188.081 135.026 188.083L135.494 183.765C135.448 183.746 135.396 183.731 135.338 183.721C135.285 183.712 135.243 183.704 135.212 183.699C134.996 183.661 134.821 183.676 134.685 183.743C134.555 183.812 134.45 183.94 134.371 184.126C134.297 184.313 134.244 184.557 134.211 184.859L134.019 186.633C133.986 186.935 133.984 187.183 134.011 187.377C134.043 187.572 134.115 187.723 134.227 187.829C134.344 187.936 134.515 188.009 134.741 188.049ZM135.946 188.262C136.162 188.3 136.334 188.287 136.464 188.224C136.599 188.161 136.701 188.041 136.768 187.864C136.841 187.688 136.893 187.449 136.926 187.146L137.118 185.373C137.151 185.07 137.151 184.817 137.12 184.611C137.094 184.407 137.023 184.248 136.907 184.136C136.79 184.023 136.619 183.947 136.394 183.907C136.357 183.901 136.309 183.895 136.251 183.89C136.193 183.88 136.143 183.874 136.1 183.872L135.633 188.191C135.68 188.204 135.731 188.219 135.789 188.234C135.852 188.245 135.904 188.255 135.946 188.262ZM137.867 189.736L139.912 183.532L140.542 183.643L141.2 190.325L140.609 190.22L140.481 188.439L138.96 188.17L138.45 189.839L137.867 189.736ZM139.094 187.748L140.449 187.987L140.148 184.392L139.094 187.748ZM141.96 190.459L142.658 184.016L145.218 184.469L145.169 184.922L143.215 184.577L142.972 186.828L143.484 186.918C143.904 186.992 144.241 187.119 144.494 187.299C144.754 187.475 144.934 187.712 145.035 188.011C145.137 188.31 145.163 188.685 145.114 189.135C145.083 189.427 145.021 189.681 144.928 189.897C144.835 190.113 144.706 190.287 144.542 190.42C144.383 190.554 144.183 190.643 143.943 190.687C143.708 190.727 143.428 190.718 143.103 190.661L141.96 190.459ZM142.617 190.105L143.161 190.201C143.455 190.253 143.693 190.249 143.876 190.189C144.065 190.125 144.21 189.997 144.311 189.804C144.418 189.612 144.489 189.352 144.524 189.023C144.575 188.556 144.524 188.188 144.371 187.918C144.224 187.643 143.92 187.465 143.457 187.384L142.922 187.289L142.617 190.105ZM145.738 191.126L146.435 184.684L147.964 184.953C148.347 185.021 148.641 185.146 148.847 185.328C149.052 185.51 149.185 185.736 149.247 186.007C149.314 186.278 149.329 186.586 149.291 186.93C149.259 187.233 149.178 187.505 149.05 187.747C148.928 187.985 148.746 188.161 148.504 188.275C148.266 188.39 147.966 188.415 147.604 188.351L146.667 188.185L146.337 191.232L145.738 191.126ZM146.716 187.732L147.48 187.867C147.737 187.912 147.949 187.912 148.114 187.866C148.286 187.815 148.418 187.706 148.511 187.538C148.604 187.371 148.667 187.134 148.7 186.826C148.736 186.497 148.732 186.237 148.689 186.046C148.646 185.849 148.549 185.702 148.399 185.606C148.255 185.505 148.041 185.429 147.757 185.379L146.985 185.243L146.716 187.732ZM149.539 191.797L150.236 185.355L150.772 185.449L150.219 190.555L152.836 185.814L153.3 185.896L152.603 192.338L152.067 192.243L152.623 187.113L150.011 191.88L149.539 191.797ZM153.708 192.533L154.406 186.091L155.012 186.198L154.692 189.157L155.141 189.236L156.769 186.508L157.376 186.615L155.653 189.472L156.891 193.095L156.285 192.988L155.114 189.564L154.657 189.483L154.315 192.64L153.708 192.533ZM157.186 193.147L159.23 186.943L159.86 187.054L160.518 193.736L159.927 193.631L159.799 191.85L158.278 191.581L157.769 193.25L157.186 193.147ZM158.412 191.159L159.767 191.398L159.466 187.803L158.412 191.159ZM162.839 194.146L163.694 187.731L164.293 187.837L164.948 193.651L166.838 188.286L167.436 188.392L166.897 194.862L166.4 194.774L166.83 189.622L165.053 194.537L164.667 194.468L164.016 189.133L163.336 194.233L162.839 194.146ZM167.949 195.048L168.646 188.605L170.955 189.013L170.904 189.482L169.202 189.182L168.94 191.6L170.327 191.845L170.279 192.29L168.892 192.045L168.605 194.702L170.322 195.005L170.273 195.458L167.949 195.048ZM171.088 195.602L171.785 189.16L174.346 189.612L174.297 190.065L172.343 189.72L172.099 191.971L172.611 192.061C173.031 192.136 173.368 192.263 173.622 192.443C173.881 192.618 174.062 192.855 174.163 193.154C174.264 193.453 174.291 193.828 174.242 194.279C174.21 194.57 174.148 194.824 174.055 195.04C173.962 195.256 173.834 195.43 173.669 195.563C173.51 195.698 173.311 195.787 173.07 195.831C172.836 195.87 172.556 195.861 172.23 195.804L171.088 195.602ZM171.745 195.248L172.288 195.344C172.582 195.396 172.821 195.392 173.004 195.333C173.193 195.269 173.338 195.14 173.439 194.947C173.545 194.755 173.616 194.495 173.652 194.166C173.702 193.7 173.651 193.331 173.499 193.061C173.352 192.787 173.047 192.609 172.585 192.527L172.049 192.432L171.745 195.248ZM174.858 196.268L175.555 189.825L177.863 190.233L177.813 190.702L176.111 190.402L175.849 192.82L177.236 193.064L177.188 193.51L175.801 193.265L175.513 195.922L177.231 196.225L177.182 196.678L174.858 196.268ZM177.57 196.755L177.62 196.294C177.773 196.315 177.904 196.322 178.012 196.314C178.12 196.301 178.214 196.25 178.293 196.161C178.377 196.073 178.456 195.92 178.528 195.7C178.605 195.481 178.686 195.177 178.771 194.786C178.861 194.397 178.964 193.896 179.078 193.284L179.568 190.534L182.05 190.972L181.353 197.415L180.746 197.308L181.394 191.326L180.054 191.09L179.653 193.386C179.54 193.987 179.436 194.499 179.343 194.92C179.255 195.337 179.161 195.679 179.063 195.948C178.965 196.212 178.849 196.413 178.716 196.552C178.589 196.686 178.434 196.767 178.249 196.794C178.064 196.82 177.838 196.807 177.57 196.755ZM182.459 197.61L183.156 191.168L183.692 191.262L183.139 196.368L185.756 191.627L186.221 191.709L185.524 198.151L184.988 198.057L185.543 192.926L182.932 197.693L182.459 197.61ZM162.375 197.225C162.387 197.113 162.399 197.002 162.411 196.891C162.423 196.779 162.435 196.668 162.447 196.557C162.483 196.228 162.55 195.978 162.649 195.806C162.753 195.63 162.919 195.532 163.146 195.513L163.258 195.735C163.105 195.773 162.997 195.851 162.936 195.97C162.876 196.084 162.832 196.26 162.807 196.499L163.13 196.556L163.044 197.343L162.375 197.225ZM163.438 197.413C163.45 197.301 163.462 197.19 163.474 197.078C163.486 196.967 163.499 196.856 163.511 196.744C163.546 196.416 163.613 196.165 163.712 195.994C163.817 195.818 163.983 195.72 164.21 195.701L164.322 195.923C164.168 195.961 164.061 196.039 164 196.158C163.939 196.272 163.896 196.448 163.87 196.686L164.193 196.743L164.108 197.531L163.438 197.413ZM164.58 202.559L165.278 196.116L168.539 196.692L167.842 203.134L167.243 203.029L167.891 197.04L165.827 196.675L165.179 202.664L164.58 202.559ZM168.604 203.269L170.648 197.064L171.278 197.176L171.936 203.857L171.345 203.753L171.217 201.972L169.696 201.703L169.187 203.372L168.604 203.269ZM169.83 201.281L171.185 201.52L170.884 197.925L169.83 201.281ZM172.697 203.992L173.394 197.549L174.001 197.656L173.692 200.512L175.7 200.867L176.01 198.011L176.608 198.117L175.911 204.559L175.312 204.454L175.651 201.32L173.643 200.965L173.303 204.099L172.697 203.992ZM176.428 205.777L176.597 204.218L176.849 204.263C176.956 204.212 177.056 204.151 177.15 204.081C177.248 204.012 177.34 203.906 177.425 203.765C177.515 203.624 177.603 203.426 177.69 203.171C177.782 202.912 177.878 202.57 177.977 202.144C178.077 201.718 178.183 201.183 178.296 200.539L178.663 198.48L181.066 198.904L180.418 204.893L180.938 204.985L180.769 206.544L180.296 206.46L180.361 205.345L177.076 204.765L176.901 205.861L176.428 205.777ZM177.456 204.37L179.819 204.787L180.417 199.26L179.141 199.034L178.833 200.771C178.726 201.412 178.623 201.939 178.525 202.354C178.427 202.764 178.335 203.093 178.249 203.343C178.164 203.587 178.077 203.775 177.988 203.905C177.904 204.036 177.818 204.134 177.731 204.2C177.644 204.26 177.552 204.317 177.456 204.37ZM181.313 205.513L183.358 199.309L183.988 199.42L184.646 206.102L184.055 205.997L183.926 204.216L182.406 203.947L181.896 205.616L181.313 205.513ZM182.54 203.525L183.895 203.764L183.594 200.169L182.54 203.525ZM185.437 201.532L185.318 201.292C185.472 201.26 185.579 201.187 185.639 201.073C185.7 200.96 185.743 200.781 185.77 200.537L185.454 200.481L185.54 199.694L186.201 199.811C186.189 199.922 186.177 200.034 186.165 200.145C186.153 200.256 186.141 200.368 186.129 200.479C186.093 200.808 186.026 201.061 185.927 201.238C185.828 201.409 185.664 201.507 185.437 201.532ZM186.501 201.72L186.382 201.48C186.535 201.448 186.642 201.375 186.703 201.261C186.763 201.148 186.807 200.969 186.833 200.725L186.518 200.669L186.603 199.882L187.265 199.999C187.253 200.11 187.241 200.221 187.229 200.333C187.217 200.444 187.205 200.555 187.193 200.667C187.157 200.996 187.09 201.248 186.99 201.425C186.891 201.597 186.728 201.695 186.501 201.72Z" fill="black"/>
</svg>
