<svg width="459" height="240" viewBox="0 0 459 240" fill="none" xmlns="http://www.w3.org/2000/svg">
<g clip-path="url(#clip0_1_74)">
<path d="M32.2309 41.7654C31.7856 42.1286 31.3597 42.5148 30.9549 42.9224C30.9059 42.9416 30.8622 42.9721 30.8274 43.0114C30.4746 43.4731 30.2422 44.0148 30.1511 44.5879C29.971 45.4702 29.9025 46.3714 29.9469 47.2706C30.0497 49.1817 30.4813 51.0611 31.2229 52.8266C31.9407 54.0749 32.7967 55.2392 33.7748 56.2975C33.8968 56.4383 34.029 56.57 34.1704 56.6916C35.3607 57.6584 36.7718 58.3178 38.2789 58.6114C38.751 58.6114 39.708 58.5351 41.1116 58.4334C42.7864 57.9853 44.333 57.1538 45.6284 56.0051C45.7129 55.9467 45.7901 55.8784 45.8581 55.8016C46.3153 55.2617 46.666 54.6405 46.8916 53.9708C47.2467 53.0829 47.5325 52.169 47.7465 51.2373C48.2068 49.6846 48.2333 48.0362 47.8231 46.4696C47.2575 44.9231 46.2725 43.5631 44.9777 42.541C43.634 41.5042 42.0995 40.7397 40.4608 40.2906C39.2869 40.2906 37.9727 40.2143 36.4798 40.2271C35.9444 40.2543 35.4116 40.3181 34.8849 40.4178C34.3922 40.5433 33.9134 40.718 33.4558 40.939C32.9837 41.2315 32.5499 41.5112 32.1799 41.7654H32.2309ZM29.1176 42.363C29.2976 42.1018 29.4981 41.8552 29.7173 41.6256L30.4063 40.8373C31.3246 39.7007 32.4835 38.7803 33.8003 38.142C34.467 37.9362 35.1574 37.8166 35.8546 37.786C36.656 37.6592 37.4686 37.6166 38.2789 37.6588C40.3586 37.8299 42.3732 38.4643 44.1738 39.5151C44.9693 39.989 45.7171 40.5382 46.4068 41.1552L46.6364 41.3586C47.4042 42.0127 48.1052 42.741 48.729 43.5327C50.1014 45.4665 50.681 47.8495 50.3495 50.1948C50.2127 51.3213 49.9252 52.4245 49.4946 53.475C49.0025 54.8298 48.2866 56.0932 47.3765 57.2129C46.54 58.1001 45.5157 58.7907 44.378 59.2344C42.9756 59.8561 41.4946 60.2838 39.976 60.5058C38.7129 60.762 37.4111 60.762 36.1481 60.5058C35.2243 60.1983 34.3609 59.7338 33.5962 59.1327C33.2517 58.8657 32.9327 58.5987 32.652 58.3571C32.1244 57.9248 31.6567 57.4246 31.2612 56.8696C30.0942 55.3291 29.264 53.562 28.8241 51.6823C28.6455 50.9195 28.5434 50.4109 28.4796 50.1058C28.4158 49.8007 28.3775 49.0887 28.2882 47.9953C28.2244 47.1689 28.1989 46.5967 28.2116 46.2662C28.2264 45.8824 28.2908 45.5021 28.403 45.1346L28.9389 43.3928C28.9952 43.0454 29.0719 42.7015 29.1686 42.363H29.1176ZM24.5752 70.054C24.2008 70.5471 23.8679 71.0701 23.5799 71.6178C23.4037 71.9498 23.2626 72.2992 23.1589 72.6603C23.054 73.021 22.9129 73.3703 22.7378 73.7029C22.6612 73.9698 22.5464 74.3131 22.4316 74.7581C22.2529 75.4701 22.1509 75.8642 22.1381 75.9405C22.1243 76.0008 22.1277 76.0637 22.148 76.1222C22.1683 76.1806 22.2047 76.2322 22.2529 76.2711C22.3805 76.3601 22.7888 76.5889 23.4651 76.9576C24.1722 77.3304 24.8504 77.7553 25.4939 78.229C25.9022 78.5596 26.3998 78.941 26.974 79.3351L28.2499 80.1997C28.5065 80.3826 28.775 80.5483 29.0538 80.6955C29.3217 80.8354 29.4876 80.8608 29.5259 80.7845C29.6525 80.3078 29.8233 79.8438 30.0363 79.3987C30.2793 78.7773 30.4629 78.1346 30.5849 77.4789C30.6282 77.2835 30.688 77.0921 30.7636 76.9068C30.7636 76.7033 30.8656 76.4999 30.9167 76.3219C31.0692 75.9536 31.1971 75.5756 31.2995 75.1904C31.5132 74.5153 31.6836 73.8274 31.8098 73.1307C31.8098 70.5879 31.2229 68.7317 30.0107 67.6764C29.6194 67.4742 29.189 67.3582 28.7487 67.3363C28.3084 67.3143 27.8685 67.387 27.4588 67.5493C26.2631 68.0706 25.2566 68.9448 24.5752 70.054ZM15.0565 69.1513C14.5848 69.786 14.1584 70.453 13.7806 71.1474L13.4233 72.0628C13.5481 72.1542 13.6804 72.235 13.8189 72.3043H13.9082L14.3803 72.5459C15.35 72.9273 16.6132 73.5121 18.2081 74.275L19.9307 75.1141C20.0044 74.8588 20.0939 74.6083 20.1986 74.364C20.4283 73.6647 20.5942 73.1689 20.6835 72.8764C20.7728 72.584 20.8239 72.2407 20.8494 72.0246C20.8749 71.8085 21.1173 71.2236 21.3087 70.7532C22.0854 68.9625 22.1807 66.9512 21.5767 65.0955C21.3997 64.6194 21.0671 64.2163 20.6325 63.9513C20.5609 63.9369 20.4871 63.9369 20.4156 63.9513C20.1581 63.8994 19.8918 63.9118 19.6402 63.9872C19.3887 64.0626 19.1597 64.1988 18.9737 64.3835C17.4173 65.7507 16.0943 67.361 15.0565 69.1513ZM11.8028 70.9694C11.9304 70.6515 12.1346 70.2447 12.3898 69.698C12.645 69.1513 12.7853 68.9097 13.0278 68.4266C13.6402 67.3332 14.1506 66.4856 14.5589 65.8838C16.2602 63.5105 17.7658 62.1162 19.0758 61.7009C19.5649 61.5155 20.0995 61.4844 20.6069 61.6119C21.1969 61.845 21.7477 62.1665 22.2402 62.5654C22.7609 63.058 23.178 63.649 23.4671 64.3038C23.7563 64.9587 23.9117 65.6643 23.9244 66.3796C23.9823 66.7285 24.0122 67.0813 24.0137 67.4349C24.0137 67.562 24.0137 67.6383 24.0775 67.6764C24.1413 67.7146 24.1924 67.6764 24.2434 67.5239C24.5423 67.1842 24.8807 66.8812 25.2514 66.6212C25.6997 66.2718 26.1684 65.9491 26.655 65.6549C27.5042 65.2193 28.4591 65.0299 29.411 65.1082C30.4526 65.2683 31.4147 65.7587 32.1543 66.5068C32.858 67.4381 33.3855 68.4893 33.711 69.609C34.0814 70.7018 34.2585 71.8504 34.2342 73.0036C33.9991 74.2053 33.6706 75.3871 33.2517 76.5381C33.0603 77.1483 32.8434 77.8094 32.5882 78.4451C32.3496 79.256 32.0685 80.0539 31.746 80.8354C31.5575 81.3721 31.3403 81.8983 31.0953 82.4119C31.0622 82.4907 31.0238 82.5671 30.9805 82.6407L30.636 83.162C30.5337 83.345 30.3646 83.4816 30.1639 83.5434C29.9665 83.5886 29.7615 83.5886 29.5642 83.5434L29.3472 83.4163C29.041 83.2637 28.5434 82.9713 27.8544 82.5772C27.2378 82.2363 26.6453 81.854 26.0808 81.4329C25.7831 81.1786 24.4688 80.331 22.1381 78.8901L20.8621 78.0637L19.7776 77.4407C19.0456 77.016 18.2917 76.6299 17.5191 76.2838C15.7193 75.2593 13.7814 74.4972 11.7646 74.0207C11.6342 74.0296 11.5056 74.0552 11.3818 74.097C11.3073 73.9734 11.2391 73.8461 11.1776 73.7156C11.2743 72.7784 11.4842 71.8563 11.8028 70.9694ZM2.42457 101.483C2.39383 101.13 2.43729 100.775 2.55217 100.44C2.7308 99.8554 2.87116 99.4486 2.97323 99.1689C3.07531 98.8892 3.15187 98.4442 3.34326 97.605C3.53466 96.7659 3.89192 94.6681 4.61922 91.2481C4.88717 90.0911 5.11684 89.1249 5.29548 88.3239C5.4579 87.4884 5.67528 86.6644 5.94621 85.8574C5.99978 85.7849 6.07172 85.7278 6.15467 85.6921C6.23761 85.6563 6.3286 85.6432 6.41832 85.6539C6.62495 85.646 6.82647 85.7191 6.97974 85.8574C7.41356 86.0735 7.50288 86.4676 7.27321 87.0652C7.04353 87.6628 7.06905 88.6799 6.96698 89.608C6.92009 90.6465 6.76616 91.6776 6.50763 92.6848C6.22692 93.74 5.90793 94.9733 5.55067 96.3718C5.1934 97.7703 4.92545 98.9146 4.70853 99.6774L5.29548 99.8173C6.08494 99.8249 6.87321 99.8801 7.65599 99.9825C8.52364 100.084 9.6082 100.161 10.9097 100.224C11.4178 100.373 11.9582 100.373 12.4663 100.224C12.4663 100.326 12.4663 100.3 12.4663 100.122C12.4292 99.2041 12.5589 98.2867 12.8491 97.4143C13.4644 95.5867 13.9044 93.7051 14.1634 91.7948C14.4568 89.4046 14.7375 88.1204 15.0183 87.9806C15.248 87.8912 15.5031 87.8912 15.7328 87.9806C16.0032 88.062 16.2317 88.2441 16.3708 88.4892C16.4752 88.6051 16.5652 88.7331 16.6387 88.8706C16.645 88.9212 16.645 88.9725 16.6387 89.0231C16.6387 89.0231 16.6387 89.6588 16.4728 90.9557C16.3969 92.1078 16.2045 93.2493 15.8987 94.363C15.6226 95.3875 15.2947 96.3974 14.9162 97.3889C14.6703 97.9962 14.4865 98.6266 14.3675 99.2706C14.3675 99.5376 14.2272 99.9444 14.1378 100.466L16.0773 100.911C17.5702 101.279 18.8589 101.623 19.9052 101.953L21.7936 102.64L22.5719 102.894C22.5719 102.78 22.5081 102.614 22.4698 102.36C22.4316 102.106 22.4698 101.419 22.406 100.631C22.406 100.631 22.406 100.25 22.2402 99.4867C22.2398 99.0583 22.2912 98.6315 22.3933 98.2153C22.5435 97.5294 22.6332 96.8317 22.6612 96.1302C22.7944 94.8273 23.0902 93.546 23.5416 92.316C23.8117 91.9174 24.0384 91.4912 24.2179 91.0447C24.4782 90.5049 24.8683 90.0376 25.3535 89.6843C25.4611 89.6012 25.5842 89.5404 25.7157 89.5055C25.8471 89.4706 25.9843 89.4622 26.1191 89.4808C26.2046 89.4977 26.2839 89.5373 26.3487 89.5953C26.6422 89.8368 26.706 90.231 26.5019 90.7777C26.2554 91.4391 26.0633 92.1194 25.9277 92.8119C25.6712 93.6934 25.4667 94.5892 25.3152 95.4945C25.0473 97.2236 24.8814 98.7747 24.8048 100.135C24.69 101.178 24.5496 102.169 24.4093 103.085C24.2854 103.713 24.2297 104.352 24.2434 104.992C24.2548 105.076 24.2548 105.162 24.2434 105.246C24.2036 105.357 24.1522 105.464 24.0903 105.564C24.0199 105.659 23.9237 105.733 23.8129 105.775C23.7022 105.818 23.5816 105.829 23.4651 105.806C23.1792 105.793 22.9036 105.696 22.674 105.526C21.8553 105.142 21.0005 104.84 20.1221 104.623L16.7153 103.555C14.2617 102.916 11.7465 102.541 9.21266 102.436C8.35642 102.368 7.50453 102.253 6.66075 102.093C5.79047 101.943 4.91321 101.837 4.03228 101.775C3.60425 101.778 3.17693 101.74 2.75632 101.661C2.63587 101.642 2.52191 101.594 2.42457 101.521V101.483ZM0.306487 129.809C0.115094 129.72 0.0130174 129.415 0.00025789 128.907C-0.0125017 128.398 0.0640557 128.093 0.21717 128.004C1.95125 127.832 3.69322 127.752 5.43583 127.762L10.1569 127.635L10.31 126.834C10.4233 124.663 10.355 122.485 10.1058 120.325C9.93995 119.053 9.83788 118.176 9.7996 117.782C9.78975 117.395 9.73407 117.011 9.63372 116.638C8.42325 116.261 7.1729 116.027 5.90793 115.939C4.46003 115.671 2.99126 115.53 1.51865 115.519C1.35751 115.546 1.19212 115.525 1.0426 115.459C0.893077 115.394 0.765886 115.286 0.676514 115.15C0.59882 115.048 0.543844 114.931 0.515244 114.806C0.486643 114.681 0.485074 114.551 0.51064 114.426C0.587198 114.019 0.957225 113.764 1.60796 113.65C2.76825 113.514 3.93892 113.488 5.10408 113.574C6.45659 113.574 7.32424 113.65 7.65599 113.714C8.07964 113.767 8.5083 113.767 8.93195 113.714C9.09782 113.714 9.36577 113.714 9.7358 113.612C9.74823 113.464 9.74823 113.315 9.7358 113.167C9.73366 113.042 9.77064 112.92 9.84156 112.818C9.91248 112.715 10.0138 112.637 10.1313 112.595C10.2809 112.549 10.4349 112.519 10.5907 112.506H10.7948C11.0884 112.615 11.3481 112.799 11.5477 113.04C11.5477 113.141 11.6753 113.281 11.7646 113.497H13.7933C14.5759 113.548 15.3925 113.574 16.2432 113.574C16.8556 113.574 17.6467 113.574 18.6292 113.472C20.6325 113.307 21.9084 113.218 22.4571 113.205C22.8265 113.145 23.2055 113.184 23.5544 113.319C23.8458 113.534 24.0424 113.853 24.1031 114.209C24.1513 114.357 24.1771 114.512 24.1796 114.667C24.1969 114.868 24.1376 115.067 24.0137 115.227C23.7172 115.596 23.286 115.834 22.8143 115.888C21.8005 116.099 20.7729 116.239 19.7393 116.307C15.9114 116.549 13.704 116.727 13.0405 116.829C12.9222 116.809 12.8016 116.809 12.6833 116.829C12.6292 116.882 12.5693 116.929 12.5046 116.968C12.5046 117.731 12.5046 118.888 12.5046 120.452C12.5046 122.321 12.5684 123.529 12.5046 124.075C12.5 124.618 12.4444 125.158 12.3387 125.69C12.1463 126.088 12.0378 126.52 12.0198 126.962C12.0198 127.152 12.0198 127.432 11.9304 127.801L14.9034 127.699C17.366 127.699 19.3182 127.699 20.7856 127.572L23.2354 127.419L23.414 127.686C23.6483 128.224 23.6888 128.826 23.5289 129.39C23.4396 129.53 23.044 129.682 22.355 129.835C21.739 130.005 21.1053 130.103 20.4666 130.127C19.9702 130.136 19.4769 130.209 18.9992 130.343C18.4096 130.447 17.8117 130.499 17.2129 130.496H16.0645C14.4058 130.496 13.2702 130.496 12.6705 130.407C10.5609 130.254 7.19665 130.106 2.57769 129.962C1.81718 130.015 1.05296 129.964 0.306487 129.809ZM13.1809 171.13C13.3199 171.687 13.4946 172.235 13.704 172.77C13.6909 172.816 13.6909 172.864 13.704 172.91C13.9766 173.421 14.3709 173.857 14.8524 174.181C15.5858 174.697 16.3782 175.124 17.2129 175.452C18.9874 176.172 20.8745 176.576 22.7888 176.648C24.2339 176.517 25.6594 176.222 27.0378 175.77C27.2203 175.718 27.3993 175.654 27.5737 175.58C28.9624 174.888 30.162 173.872 31.0698 172.617C31.2484 172.185 31.5929 171.346 32.0905 169.973C32.3801 168.276 32.2709 166.535 31.7716 164.887C31.753 164.781 31.7186 164.678 31.6695 164.582C31.3501 163.946 30.9178 163.373 30.3935 162.891C29.7281 162.203 29.0161 161.562 28.2627 160.971C27.0514 159.929 25.5859 159.223 24.0137 158.924C22.3718 158.79 20.7246 159.112 19.2544 159.852C17.745 160.641 16.402 161.711 15.299 163.006C14.7758 164.035 14.2016 165.23 13.5764 166.578C13.3777 167.075 13.2115 167.585 13.0788 168.104C12.9892 168.599 12.9507 169.101 12.964 169.604C13.0405 170.176 13.1043 170.685 13.1809 171.13ZM12.4408 174.181C12.2767 173.914 12.1358 173.633 12.0198 173.342L11.5859 172.388C10.923 171.089 10.5529 169.662 10.5014 168.206C10.6021 167.516 10.7864 166.842 11.05 166.197C11.2778 165.439 11.5813 164.707 11.956 164.01C12.9845 162.199 14.4056 160.64 16.1156 159.446C16.8866 158.947 17.7025 158.522 18.5527 158.174L18.8334 158.047C19.7511 157.627 20.7085 157.299 21.6915 157.068C24.0218 156.622 26.4352 157.077 28.4413 158.34C29.4097 158.936 30.2937 159.658 31.0698 160.488C32.0785 161.489 32.9148 162.649 33.5451 163.921C34.0121 165.047 34.2129 166.265 34.1321 167.481C34.1199 169.009 33.8922 170.529 33.4558 171.994C33.1731 173.239 32.6438 174.414 31.8992 175.452C31.2399 176.147 30.4623 176.719 29.6024 177.143C29.2069 177.347 28.8369 177.538 28.4924 177.677C27.8762 177.975 27.2244 178.193 26.5529 178.326C24.6589 178.715 22.7051 178.715 20.8111 178.326L19.1396 177.995L17.1363 177.296C16.358 177.004 15.8604 176.775 15.5286 176.635C15.1892 176.457 14.8722 176.239 14.5844 175.986C13.9337 175.414 13.4743 175.007 13.2192 174.715C12.9498 174.552 12.69 174.374 12.4408 174.181ZM33.9024 200.88C34.3743 201.367 34.8013 201.894 35.1784 202.457C35.2657 202.576 35.392 202.662 35.5356 202.698C36.0865 201.706 36.7784 200.798 37.5899 200.003C38.33 199.329 39.6442 198.236 41.5454 196.736L43.2807 195.375C43.0893 195.197 42.7448 194.828 42.2472 194.282C41.1284 193.132 39.837 192.163 38.4193 191.408C37.1088 190.702 35.7101 190.172 34.2597 189.832C32.1543 189.476 30.8529 189.501 30.3552 189.921L30.2787 189.997C29.8183 190.785 29.4948 191.645 29.3217 192.54C29.3217 194.244 30.317 196.354 32.2819 198.655C32.6902 199.266 33.2389 200.003 33.9024 200.88ZM35.1784 205C35.0361 204.999 34.8961 204.964 34.7701 204.898C34.7574 204.879 34.7507 204.857 34.7507 204.834C34.7507 204.812 34.7574 204.79 34.7701 204.771C34.795 204.763 34.8217 204.763 34.8466 204.771C34.8466 204.771 34.8466 204.707 34.7445 204.593C34.6425 204.478 34.5021 204.237 34.3107 203.995L33.5069 203.067L32.2309 201.592C31.068 200.285 29.9735 198.918 28.9517 197.498C27.6227 195.595 27.0833 193.254 27.4461 190.963C27.6153 190.101 27.9869 189.291 28.5306 188.599C28.6412 188.433 28.7743 188.283 28.9262 188.154C29.1541 187.968 29.3974 187.802 29.6535 187.658C30.8224 187.156 32.1002 186.96 33.3665 187.086C34.2309 187.164 35.0855 187.326 35.9184 187.569C36.9052 187.94 37.8401 188.435 38.7 189.044C39.3507 189.489 40.1674 190.112 41.1371 190.9C41.9873 191.585 42.7888 192.329 43.5359 193.125L44.6204 194.269L45.6157 193.494C46.3047 192.972 46.8916 192.426 47.5679 191.853C48.6455 190.812 49.8062 189.86 51.0385 189.006C51.2426 188.891 51.3702 188.866 51.434 189.006C51.5259 189.11 51.6529 189.178 51.7913 189.196C51.9184 189.252 52.051 189.295 52.1869 189.323C52.2873 189.343 52.3777 189.397 52.442 189.476C52.5023 189.546 52.546 189.628 52.5696 189.717C52.6189 189.995 52.574 190.282 52.442 190.531C52.2725 190.864 52.0579 191.172 51.8041 191.447C50.7048 192.603 49.519 193.674 48.2569 194.651C46.5088 196.1 44.7098 197.46 42.8469 198.77C40.959 200.067 39.1988 201.54 37.5899 203.169C36.9264 203.919 36.5436 204.377 36.4543 204.517C36.4057 204.581 36.3793 204.659 36.3793 204.739C36.3793 204.819 36.4057 204.897 36.4543 204.962C36.4866 204.99 36.5124 205.026 36.53 205.065C36.5476 205.104 36.5566 205.147 36.5564 205.19C36.5341 205.303 36.4759 205.406 36.3905 205.483C36.3223 205.553 36.2323 205.597 36.1353 205.61C36.1353 205.61 35.9695 205.61 35.8036 205.445C35.6448 205.242 35.4186 205.102 35.1656 205.051L35.1784 205ZM72.8191 220.473C73.7633 218.756 74.363 217.663 74.6309 217.205C75.0253 216.525 75.3831 215.825 75.7027 215.107C76.029 214.451 76.4133 213.826 76.8511 213.238L77.9229 211.713C78.5481 210.899 78.8926 210.441 78.9309 210.441C78.9692 210.441 79.3775 210.187 79.8623 210.327C80.0902 210.379 80.2947 210.505 80.4444 210.684C80.5941 210.863 80.681 211.086 80.6917 211.318C80.6727 211.594 80.5986 211.863 80.4737 212.11C80.3488 212.357 80.1756 212.576 79.9644 212.755C79.3654 213.734 78.8367 214.753 78.3822 215.807C77.9484 216.735 77.6804 217.294 77.5784 217.447C77.4763 217.599 76.3024 219.633 74.2226 222.964C72.1428 226.295 71.02 228.292 70.5734 229.169C70.3116 229.812 69.9108 230.389 69.3995 230.86C69.181 230.959 68.935 230.98 68.7027 230.92C68.4704 230.86 68.2659 230.722 68.1235 230.529C67.7663 230.135 67.6642 229.83 67.8173 229.639C67.9704 229.449 68.468 228.546 69.3229 226.906C70.1778 225.266 70.7648 224.109 71.0838 223.524C71.4027 222.939 71.7217 222.38 72.028 221.795C71.7075 221.63 71.3966 221.447 71.0965 221.248L70.6372 220.943C69.9079 220.471 69.2129 219.948 68.5574 219.379L67.7918 218.629C66.6448 219.581 65.3526 220.345 63.9639 220.892C63.2366 221.159 62.688 221.362 62.4455 221.451C62.2031 221.54 61.4503 221.706 60.3785 221.947C59.8152 222.086 59.2443 222.192 58.6687 222.265C58.2918 222.315 57.91 222.315 57.5331 222.265C56.9245 222.205 56.3197 222.111 55.7212 221.985C55.1088 221.896 54.7643 221.858 54.675 221.858C54.3883 221.723 54.1149 221.561 53.8584 221.375L52.9779 220.816C51.7053 220.091 50.6076 219.098 49.7625 217.904C49.4938 217.262 49.2804 216.599 49.1246 215.921C48.8947 215.155 48.7492 214.366 48.6907 213.569C48.6109 211.497 48.9493 209.431 49.686 207.492C50.0305 206.642 50.4578 205.829 50.9619 205.063L51.1278 204.796C51.669 203.945 52.2929 203.148 52.9907 202.419C54.6997 200.769 56.9913 199.856 59.3705 199.876C60.5049 199.847 61.638 199.971 62.739 200.245C64.1354 200.544 65.475 201.063 66.7072 201.783C67.6973 202.494 68.5273 203.404 69.1443 204.453C69.965 205.746 70.6046 207.145 71.0455 208.61C71.4872 209.832 71.6823 211.128 71.6197 212.425C71.4494 213.37 71.1032 214.276 70.5989 215.094C70.382 215.476 70.1651 215.832 69.9737 216.137C69.6415 216.666 69.2568 217.16 68.8253 217.612C69.1188 217.879 69.4123 218.159 69.693 218.451C70.2289 218.97 70.8192 219.431 71.4538 219.824C71.8545 220.143 72.314 220.38 72.8063 220.523L72.8191 220.473ZM53.6797 218.871C54.0825 219.264 54.5086 219.634 54.9557 219.977C54.9829 220.017 55.0176 220.051 55.0578 220.078C55.5735 220.352 56.1453 220.504 56.7293 220.523C57.6311 220.571 58.5354 220.507 59.4215 220.333C61.3048 219.976 63.1102 219.292 64.755 218.311C65.894 217.42 66.9259 216.4 67.8301 215.273C67.9449 215.12 68.0597 214.98 68.1618 214.828C68.9461 213.494 69.3847 211.986 69.4378 210.441C69.3612 209.971 69.1571 209.055 68.8508 207.67C68.1678 206.084 67.1237 204.678 65.8013 203.563C65.7303 203.488 65.6486 203.424 65.5589 203.372C64.9556 203.002 64.2898 202.743 63.5939 202.609C62.662 202.391 61.7152 202.243 60.7613 202.164C59.1528 201.934 57.5117 202.145 56.0147 202.775C54.5567 203.545 53.3452 204.708 52.5186 206.131C51.7155 207.635 51.2128 209.28 51.0385 210.975C51.1661 212.119 51.332 213.442 51.5489 214.904C51.6594 215.428 51.8 215.946 51.9699 216.455C52.1715 216.901 52.415 217.326 52.6972 217.726C52.9907 218.209 53.3225 218.591 53.5904 218.921L53.6797 218.871ZM99.6141 217.51C100.25 217.719 100.903 217.867 101.566 217.955C101.71 217.985 101.84 218.061 101.936 218.171C101.254 219.107 100.708 220.134 100.316 221.223C100.022 222.176 99.5886 223.765 99.0399 226.194C98.9379 226.668 98.772 227.38 98.5423 228.33C98.2999 228.241 97.8278 228.075 97.1133 227.847C95.6 227.344 94.1782 226.601 92.9026 225.647C91.7013 224.774 90.6277 223.738 89.7127 222.57C88.4368 220.816 87.9647 219.633 88.1433 218.998V218.909C88.6688 218.147 89.3254 217.484 90.0827 216.951C91.6394 216.239 93.9106 216.251 96.8963 217.027C97.5471 217.18 98.453 217.408 99.5248 217.561L99.6141 217.51ZM96.1563 236.861C96.1563 236.861 95.5438 236.683 94.3189 236.263C92.5198 235.64 91.0907 235.17 90.0572 234.877L86.038 233.695L84.9406 233.822H84.8258C83.9837 233.581 83.5498 233.822 83.384 234.572C83.384 234.966 83.384 235.208 83.5626 235.31C83.7188 235.382 83.8514 235.496 83.9454 235.64C83.9806 235.674 84.025 235.696 84.073 235.704C84.4611 235.774 84.8587 235.774 85.2469 235.704C85.7037 235.638 86.1637 235.595 86.6249 235.577C86.9418 235.611 87.254 235.679 87.5564 235.78L92.035 237.662C93.3086 238.224 94.6275 238.679 95.9777 239.022C96.3854 239.173 96.819 239.242 97.2536 239.226C97.5 239.139 97.7137 238.979 97.8661 238.768C98.1008 238.473 98.294 238.148 98.4402 237.802C99.0319 236.32 99.5055 234.793 99.8566 233.237C100.341 231.368 100.814 229.156 101.298 226.613C101.669 224.336 102.276 222.103 103.11 219.951C103.519 219.023 103.774 218.489 103.863 218.349C103.904 218.281 103.965 218.227 104.039 218.195C104.112 218.163 104.193 218.155 104.271 218.171C104.311 218.19 104.355 218.2 104.399 218.2C104.443 218.2 104.487 218.19 104.527 218.171C104.613 218.101 104.679 218.009 104.718 217.904C104.738 217.858 104.748 217.808 104.748 217.758C104.748 217.708 104.738 217.658 104.718 217.612C104.718 217.612 104.616 217.485 104.424 217.383C104.188 217.309 103.988 217.151 103.863 216.938C103.803 216.807 103.711 216.693 103.595 216.607C103.576 216.596 103.554 216.59 103.531 216.59C103.509 216.59 103.487 216.596 103.468 216.607C103.468 216.607 103.468 216.607 103.468 216.709C103.468 216.811 103.468 216.709 103.263 216.709L102.536 216.569L101.349 216.239L99.4738 215.705C97.7985 215.183 96.0944 214.759 94.3699 214.433C92.077 214.064 89.7285 214.563 87.786 215.832C87.0915 216.368 86.5177 217.044 86.1018 217.815C86.0005 217.988 85.9191 218.171 85.8593 218.362C85.7829 218.644 85.7401 218.934 85.7317 219.227C85.7236 220.502 86.0871 221.751 86.778 222.825C87.1852 223.61 87.6727 224.351 88.2326 225.037C89.001 225.764 89.8584 226.392 90.7845 226.906C91.4735 227.313 92.3795 227.796 93.5151 228.33C94.3062 228.698 95.3142 229.105 96.5518 229.601L98.0447 230.097C98.0447 230.3 97.9171 230.72 97.764 231.368C97.5726 232.207 97.3557 233.021 97.1005 233.822L96.1563 236.861Z" fill="black"/>
<path d="M235.248 83.4925C235.163 82.9223 235.044 82.3576 234.891 81.8015C234.901 81.7794 234.905 81.7556 234.905 81.7316C234.905 81.7076 234.901 81.6838 234.891 81.6617C234.67 81.1236 234.319 80.6478 233.87 80.2758C233.196 79.6786 232.45 79.1662 231.65 78.7502C229.952 77.86 228.114 77.2665 226.215 76.9957C224.764 76.9922 223.317 77.15 221.902 77.4661C221.72 77.5007 221.541 77.5474 221.366 77.6059C219.892 78.1437 218.577 79.0396 217.538 80.2123C217.321 80.6318 216.887 81.4837 216.262 82.7551C215.809 84.4134 215.743 86.1532 216.071 87.8406C216.081 87.9496 216.107 88.0566 216.147 88.1585C216.383 88.8184 216.738 89.4302 217.194 89.9639C217.788 90.7132 218.436 91.4185 219.133 92.0744C220.203 93.3278 221.65 94.2032 223.26 94.5698C224.869 94.9364 226.555 94.7746 228.065 94.1086C229.637 93.4665 231.075 92.5349 232.301 91.3624C232.926 90.3834 233.577 89.2519 234.368 87.9678C234.612 87.4927 234.829 87.0046 235.019 86.5057C235.15 86.0183 235.24 85.5207 235.287 85.0182C235.287 84.4587 235.287 83.9502 235.21 83.4925H235.248ZM236.244 80.5683C236.384 80.8502 236.499 81.1437 236.588 81.4455C236.677 81.7125 236.78 82.0431 236.92 82.4372C237.45 83.7964 237.681 85.2533 237.596 86.7091C237.423 87.3788 237.174 88.027 236.856 88.6416C236.553 89.3828 236.172 90.0901 235.72 90.7521C234.52 92.4551 232.95 93.8673 231.127 94.8842C230.312 95.3227 229.458 95.6845 228.575 95.9649L228.282 96.0666C227.328 96.3902 226.345 96.6202 225.347 96.7531C222.981 96.9542 220.626 96.2495 218.763 94.7825C217.858 94.0943 217.047 93.2907 216.351 92.3922C215.451 91.2894 214.736 90.0486 214.233 88.7179C213.887 87.5466 213.808 86.3127 214.004 85.1071C214.172 83.588 214.55 82.0991 215.127 80.6827C215.537 79.4424 216.207 78.3029 217.092 77.3389C217.823 76.7155 218.656 76.221 219.554 75.8768C219.962 75.7158 220.345 75.5759 220.702 75.4573C221.344 75.2238 222.013 75.0742 222.693 75.0123C224.614 74.7862 226.561 74.9638 228.409 75.5335L229.953 76.0548C230.247 76.1692 230.885 76.4744 231.88 76.9448C232.62 77.3135 233.156 77.5805 233.411 77.7585C233.733 77.9685 234.028 78.2161 234.291 78.4959L235.567 79.8436C235.823 80.0677 236.061 80.3099 236.282 80.5683H236.244ZM210.903 57.2128C210.686 57.4035 210.367 57.6832 209.933 58.0392C209.159 58.6999 208.341 59.3074 207.484 59.8573C206.485 60.4519 205.444 60.9745 204.37 61.4211L202.354 62.2983C202.098 62.4421 201.824 62.5491 201.538 62.6162C201.513 62.6249 201.486 62.6249 201.461 62.6162C201.37 62.4346 201.301 62.2424 201.257 62.0441C201.179 61.8109 201.148 61.5644 201.168 61.3194C201.837 60.8118 202.545 60.357 203.286 59.959C205.601 58.587 207.779 56.9991 209.793 55.2167C210.686 54.4411 212.205 53.2333 214.387 51.6313L217.742 49.1521L217.921 49.0377C218.033 48.9503 218.164 48.8889 218.303 48.8581C218.442 48.8273 218.586 48.8279 218.725 48.8597C219.19 49.0317 219.597 49.3314 219.899 49.7243C220.817 50.7628 221.535 51.9609 222.017 53.2587C222.94 55.2742 223.971 57.2392 225.105 59.1453C225.27 59.4178 225.463 59.6733 225.679 59.9081C226.029 60.2057 226.4 60.4777 226.789 60.7218C227.127 60.9242 227.429 61.1821 227.682 61.4846C227.693 61.5263 227.693 61.5702 227.682 61.6118C227.72 61.7746 227.741 61.9407 227.746 62.1076C227.739 62.2396 227.705 62.3688 227.646 62.487C227.587 62.6052 227.503 62.7098 227.401 62.7942C227.278 62.8933 227.134 62.9626 226.98 62.9967C226.825 63.0307 226.665 63.0285 226.512 62.9903C226.358 62.9521 226.216 62.8789 226.096 62.7764C225.975 62.674 225.881 62.5452 225.819 62.4L225.73 62.3238L224.824 61.7008C224.454 61.1159 223.701 59.9335 222.591 58.1536C221.481 56.3736 220.332 54.5428 219.337 52.7756C218.712 51.6822 218.393 51.1355 218.355 51.1228C218.316 51.1101 217.997 51.2881 217.691 51.5932C217.385 51.8983 216.594 52.5849 215.139 53.8817L214.323 54.5555C214.085 54.7836 213.82 54.9802 213.532 55.1404C213.282 55.2743 213.057 55.4507 212.868 55.6617L212.46 55.9922C211.915 56.3658 211.396 56.7734 210.903 57.2128ZM204.281 34.7218C203.94 34.2776 203.573 33.8531 203.184 33.4504L203.107 33.3233C202.657 32.9513 202.123 32.6939 201.55 32.5732C200.674 32.3554 199.774 32.2444 198.871 32.2426C196.953 32.2382 195.049 32.5651 193.244 33.2088C191.956 33.8756 190.749 34.686 189.646 35.6245C189.493 35.7389 189.365 35.8661 189.225 35.9932C188.196 37.1538 187.465 38.5454 187.094 40.0489C187.094 40.5194 187.094 41.4729 187.094 42.8842C187.467 44.5686 188.227 46.144 189.314 47.4866C189.368 47.5776 189.437 47.6592 189.518 47.7282C190.038 48.2025 190.639 48.5813 191.292 48.847C192.171 49.2326 193.074 49.5597 193.997 49.826C195.534 50.3603 197.189 50.4658 198.782 50.1311C200.373 49.6314 201.792 48.6977 202.877 47.4357C204.01 46.1508 204.877 44.656 205.429 43.0367C205.531 41.8797 205.621 40.5702 205.684 39.0827C205.687 38.5466 205.648 38.0111 205.57 37.4807C205.472 36.9859 205.318 36.5038 205.11 36.0441C204.779 35.5991 204.523 35.1159 204.281 34.7218ZM203.834 31.6577C204.083 31.8486 204.317 32.0568 204.536 32.2807L205.302 33.0054C206.39 33.9641 207.26 35.1431 207.854 36.4636C208.023 37.1371 208.109 37.8289 208.109 38.5233C208.189 39.3223 208.189 40.1272 208.109 40.9262C207.844 42.9855 207.115 44.9586 205.978 46.6983C205.46 47.4644 204.871 48.1796 204.217 48.8343L204 49.0631C203.308 49.7945 202.548 50.4586 201.729 51.0465C199.713 52.297 197.301 52.7506 194.966 52.3179C193.845 52.1243 192.755 51.7823 191.726 51.3008C190.42 50.7412 189.21 49.9819 188.14 49.0504C187.3 48.1705 186.668 47.1151 186.29 45.9609C185.738 44.5355 185.377 43.0435 185.218 41.5238C185.024 40.2531 185.085 38.9567 185.397 37.7096C185.759 36.8218 186.268 36.001 186.902 35.2812C187.183 34.9379 187.464 34.6328 187.719 34.3658C188.185 33.8816 188.708 33.4548 189.276 33.0944C190.876 32.0043 192.689 31.2634 194.596 30.9203C195.362 30.7805 195.872 30.7042 196.204 30.6533C196.536 30.6025 197.225 30.5898 198.322 30.5516C199.152 30.5516 199.726 30.5516 200.058 30.5516C200.436 30.585 200.809 30.6662 201.168 30.7932L202.89 31.4162C203.21 31.4749 203.526 31.5556 203.834 31.6577ZM171.604 10.2856C171.782 10.1585 172.089 10.2093 172.548 10.4509C173.007 10.6925 173.237 10.8959 173.25 11.0739C173.262 11.2519 172.471 12.8157 170.966 15.7526L168.809 19.9355L169.447 20.4568C171.311 21.5945 173.265 22.5768 175.291 23.3937L177.613 24.3091C177.958 24.4871 178.322 24.6237 178.698 24.7159C179.615 23.8398 180.425 22.8582 181.11 21.7917C182.031 20.6462 182.855 19.4256 183.572 18.1428C183.629 17.9911 183.727 17.8582 183.855 17.7593C183.984 17.6604 184.138 17.5995 184.299 17.5834C184.427 17.5668 184.557 17.5774 184.68 17.6147C184.803 17.652 184.917 17.715 185.014 17.7996C185.333 18.0665 185.384 18.4988 185.167 19.1345C184.749 20.2222 184.223 21.2656 183.598 22.2494C183.181 23.0059 182.726 23.74 182.232 24.4489C181.968 24.8086 181.754 25.202 181.594 25.6186C181.475 25.857 181.373 26.1034 181.288 26.356C181.4 26.4632 181.524 26.5571 181.658 26.6357C181.771 26.6918 181.862 26.7832 181.917 26.8957C181.972 27.0083 181.989 27.1358 181.964 27.2587C181.941 27.4093 181.894 27.5552 181.824 27.691L181.735 27.8817C181.49 28.0784 181.201 28.2135 180.893 28.2758H180.395C180.229 28.5555 179.885 29.1404 179.374 30.0304C178.966 30.6788 178.558 31.3908 178.098 32.1409C177.805 32.6621 177.448 33.4123 177.039 34.2641C176.235 36.0949 175.7 37.2519 175.457 37.7223C175.342 38.0743 175.129 38.387 174.845 38.625C174.505 38.7641 174.125 38.7641 173.786 38.625C173.634 38.6016 173.488 38.5544 173.352 38.4851C173.169 38.4015 173.02 38.2579 172.931 38.0783C172.762 37.636 172.762 37.1474 172.931 36.7052C173.23 35.7193 173.596 34.755 174.028 33.8191C175.636 30.3736 176.58 28.3394 176.784 27.691C176.85 27.5975 176.902 27.4946 176.937 27.3859C176.95 27.276 176.981 27.1688 177.027 27.068C176.35 26.6993 175.317 26.1653 173.913 25.4533C172.254 24.6057 171.183 24.0463 170.698 23.7751C170.223 23.5084 169.774 23.1976 169.358 22.847C169.097 22.4797 168.757 22.1756 168.363 21.957L167.674 21.4739C167.431 21.9316 166.998 22.8216 166.398 24.1311C165.215 26.284 164.309 28.0173 163.68 29.3311C163.45 29.8142 163.119 30.6025 162.659 31.556C162.549 31.5404 162.438 31.5404 162.328 31.556C161.738 31.5085 161.186 31.2513 160.771 30.8313C160.71 30.4004 160.767 29.961 160.937 29.5599C161.089 28.9411 161.307 28.3401 161.587 27.7673C161.817 27.3295 161.989 26.8636 162.098 26.3815C162.288 25.8193 162.527 25.2747 162.812 24.7541L163.348 23.7242C164.139 22.2749 164.714 21.2959 165.045 20.8C166.194 19.0286 167.933 16.151 170.264 12.1673C170.626 11.4841 171.076 10.8514 171.604 10.2856ZM142.129 13.604C142.129 13.604 141.899 13.2734 141.466 12.5996C141.466 12.536 141.338 12.5996 141.223 12.7013C141.108 12.803 140.93 13.0827 140.611 13.5404C140.107 14.2524 139.548 14.924 138.939 15.5492C138.059 16.4773 137.459 17.0876 137.153 17.3927C135.922 18.573 134.609 19.6649 133.223 20.6602C132.432 21.2069 131.717 21.6646 131.054 22.046C130.583 22.3176 130.127 22.6147 129.689 22.936C129.372 23.177 129.035 23.3897 128.681 23.5717C128.505 23.6368 128.318 23.6629 128.132 23.648C127.787 23.5844 127.596 23.292 127.545 22.7707C127.545 22.58 127.545 22.402 127.545 22.2749C127.598 21.9991 127.742 21.7488 127.953 21.5629C128.748 20.8292 129.601 20.1616 130.505 19.5668C131.322 18.9819 132.011 18.4607 132.559 18.0157C133.108 17.5707 133.976 16.8333 135.507 15.4729C137.523 13.6548 138.569 12.714 138.646 12.625C138.959 12.3434 139.253 12.0418 139.526 11.7223C139.743 11.4044 139.909 11.2519 139.998 11.2773C139.614 10.5379 139.188 9.82059 138.722 9.12865C138.149 8.21468 137.527 7.33192 136.859 6.48415C136.384 5.81191 135.958 5.1066 135.583 4.37363C134.843 3.12767 134.359 2.28007 134.129 1.83085C133.925 1.37315 133.797 1.08072 133.721 0.940871C133.683 0.78205 133.683 0.616564 133.721 0.457742C133.797 0.178035 133.925 0.0508959 134.116 0.0636098C134.549 0.22128 134.941 0.473198 135.264 0.801018C135.833 1.32746 136.35 1.90642 136.808 2.53011C137.51 3.4328 137.944 3.9795 138.084 4.17021C138.561 4.83981 140.126 7.3487 142.78 11.6969C142.78 11.6969 142.882 11.3536 143.099 10.7306C143.399 9.71173 143.638 8.6758 143.813 7.6284C143.98 6.7443 144.21 5.87328 144.502 5.02205C144.668 4.64063 144.821 4.22107 144.975 3.75065C145.153 3.35533 145.399 2.99396 145.702 2.68268C145.926 2.38976 146.198 2.13623 146.506 1.93256C146.603 1.9137 146.702 1.9137 146.799 1.93256C146.91 1.95156 147.015 1.99905 147.102 2.07038C147.189 2.14171 147.256 2.23442 147.297 2.3394C147.322 2.69099 147.284 3.04428 147.182 3.38195C146.85 4.79319 146.595 5.84845 146.391 6.57315C145.995 7.98439 145.778 8.74723 145.74 8.82351C145.493 9.34777 145.321 9.9042 145.23 10.4763C145.23 10.4763 145.153 11.023 145.013 12.0656L147.399 10.0822C148.476 9.12283 149.618 8.23921 150.818 7.43769C151.456 7.05628 151.903 6.76385 152.094 6.57315C152.286 6.38244 152.86 6.06459 153.842 5.46703C154.492 5.04093 155.18 4.67494 155.897 4.37363C156.298 4.19034 156.732 4.09082 157.173 4.08121C157.351 4.08121 157.428 4.31006 157.402 4.58977C157.402 4.75338 157.362 4.91453 157.287 5.06019L156.586 5.74674C155.888 6.412 155.155 7.04009 154.391 7.6284C153.756 8.17696 153.092 8.69052 152.401 9.16679C151.477 9.72053 150.586 10.3276 149.734 10.9849C149.038 11.458 148.377 11.9806 147.756 12.5487C147.756 12.5487 147.909 12.7521 148.037 13.1335C148.183 13.5232 148.349 13.9051 148.534 14.2778C148.534 14.3795 149.236 15.6382 150.499 18.0284C151.456 19.8592 152.069 20.9908 152.375 21.4485C152.681 21.9062 153.204 22.7198 153.766 23.6098C154.389 24.4717 154.936 25.3864 155.399 26.3433C155.547 26.5824 155.598 26.8693 155.539 27.1443C155.49 27.3048 155.431 27.462 155.361 27.6147C155.131 28.0851 154.838 28.2886 154.506 28.2377C154.324 28.1814 154.155 28.0907 154.008 27.9707C153.749 27.6735 153.51 27.3592 153.294 27.0299C152.995 26.5848 152.667 26.1601 152.311 25.7585C151.826 25.1736 151.316 24.4871 150.767 23.7115C149.814 22.3026 148.961 20.8283 148.215 19.2998C148.024 18.9057 147.68 18.1174 147.182 16.9477C146.821 16.1509 146.527 15.326 146.302 14.4812C146.161 13.9472 146.072 13.604 146.021 13.4768C145.97 13.3497 145.893 13.2734 145.842 13.3115L144.86 14.0235L144.388 14.2524C143.979 15.8543 143.648 17.38 143.392 18.8167C143.392 19.0455 143.252 19.8465 143.112 21.2196C143.035 21.9189 142.92 22.7707 142.78 23.7624C142.744 24.1899 142.68 24.6146 142.588 25.0338C142.494 25.1771 142.361 25.2915 142.206 25.3643C141.867 25.5253 141.481 25.557 141.121 25.4533C141.015 25.422 140.917 25.3699 140.831 25.3C140.746 25.2301 140.675 25.1439 140.624 25.0465C140.52 24.7663 140.476 24.4673 140.496 24.1692C140.65 21.7986 140.966 19.4411 141.44 17.113L141.861 14.7736C141.989 14.4176 142.053 13.9854 142.129 13.604ZM109.733 2.27583C109.159 2.24363 108.584 2.24363 108.01 2.27583C107.964 2.26399 107.916 2.26399 107.87 2.27583C107.294 2.38363 106.755 2.63271 106.3 3.00053C105.589 3.53905 104.942 4.15766 104.374 4.84405C103.16 6.32742 102.215 8.00946 101.579 9.8152C101.288 11.2286 101.155 12.6699 101.184 14.1125C101.171 14.2988 101.171 14.4857 101.184 14.6719C101.425 16.1975 102.043 17.6394 102.983 18.8675L105.216 20.6348C106.766 21.4053 108.473 21.8099 110.205 21.8172C110.311 21.8305 110.418 21.8305 110.524 21.8172C111.223 21.7143 111.897 21.486 112.514 21.1433C113.372 20.7205 114.195 20.2317 114.977 19.6812C116.357 18.823 117.481 17.6111 118.23 16.1722C118.849 14.6451 119.026 12.9757 118.741 11.3536C118.434 9.68738 117.801 8.09763 116.878 6.67486C116.049 5.86117 115.079 4.97119 113.969 3.9795C113.561 3.651 113.135 3.34539 112.693 3.0641C112.241 2.83898 111.766 2.66417 111.277 2.54283C110.715 2.40297 110.217 2.32669 109.733 2.27583ZM107.091 0.673879C107.399 0.605363 107.71 0.554424 108.023 0.521312L109.069 0.394172C110.508 0.148812 111.983 0.213844 113.395 0.584881C114.023 0.882698 114.615 1.25401 115.155 1.69099C115.823 2.13562 116.442 2.64682 117.006 3.21667C118.439 4.72845 119.515 6.53964 120.157 8.51838C120.427 9.40129 120.611 10.3082 120.706 11.2264C120.706 11.3154 120.706 11.4172 120.706 11.5316C120.837 12.5304 120.867 13.5399 120.795 14.5448C120.521 16.8939 119.363 19.052 117.554 20.5839C116.73 21.317 115.817 21.9448 114.836 22.4529C113.574 23.1145 112.212 23.5696 110.804 23.8005C109.574 23.9135 108.335 23.7439 107.181 23.3047C105.717 22.8448 104.325 22.1814 103.047 21.334C101.918 20.6916 100.932 19.8263 100.15 18.7912C99.6795 17.9548 99.3599 17.0425 99.206 16.0959C99.1167 15.6636 99.0529 15.2568 99.0146 14.8245C98.9339 14.1488 98.9339 13.466 99.0146 12.7903C99.191 10.8709 99.7552 9.00698 100.673 7.31055L101.49 5.91202C101.669 5.64503 102.09 5.08562 102.766 4.20835C103.276 3.54723 103.634 3.11495 103.863 2.86068C104.136 2.59722 104.435 2.36285 104.756 2.16141L106.211 1.27143C106.493 1.05609 106.787 0.856599 107.091 0.673879ZM84.0349 4.10664C84.1782 3.92383 84.3615 3.77599 84.5708 3.67437C84.7231 3.62103 84.8846 3.59887 85.0458 3.60924C85.2069 3.61961 85.3642 3.66228 85.5084 3.7347C85.6526 3.80712 85.7806 3.90779 85.8847 4.03069C85.9889 4.15359 86.0671 4.29618 86.1147 4.44992C86.6874 5.60894 87.1985 6.79722 87.6458 8.00982C88.5645 10.3238 89.3684 12.4427 90.0574 14.3668C91.1931 17.3613 92.5054 20.2864 93.9873 23.1267C94.4594 24.0421 94.7784 24.6778 94.9315 25.0465C94.9447 25.1179 94.9447 25.1912 94.9315 25.2626C95.027 25.5255 95.027 25.8134 94.9315 26.0763C94.8859 26.2126 94.8055 26.3348 94.6981 26.4306C94.5907 26.5265 94.46 26.5928 94.3191 26.623C94.0256 26.6993 93.7576 26.7756 93.5152 26.8646C93.4021 26.9177 93.2734 26.9277 93.1535 26.8925C93.0335 26.8574 92.9307 26.7796 92.8645 26.6739C91.7053 25.0052 90.734 23.2145 89.9681 21.334C88.9061 18.9402 87.9859 16.4865 87.212 13.9854C86.8292 12.8284 86.4209 11.6587 85.936 10.4636C85.4512 9.2685 85.2087 8.65823 85.1705 8.62009C85.1588 8.70019 85.1588 8.78155 85.1705 8.86165C85.1705 8.98879 85.1705 8.97608 85.1705 8.86165C85.1705 9.2685 85.0812 9.94234 84.9536 10.8959C84.812 12.4301 84.7482 13.9704 84.7622 15.511C84.7366 17.2087 84.8047 18.9064 84.9663 20.5966C84.9663 21.0543 85.0812 21.9316 85.145 23.2284C85.3108 25.3135 85.4895 26.9154 85.6936 28.0343C85.888 29.0053 86.0328 29.9855 86.1274 30.9712C86.1274 31.4204 85.9998 31.7001 85.7446 31.8103C85.6474 31.8443 85.5428 31.8516 85.4418 31.8315C85.3408 31.8114 85.2471 31.7645 85.1705 31.6959C84.8625 31.3928 84.5847 31.0607 84.3411 30.7042C83.5144 29.5375 82.588 28.4443 81.5723 27.4367C79.5717 25.6317 77.704 23.6857 75.9836 21.6137C73.8479 19.3085 71.586 17.1226 69.2083 15.0661C69.1062 14.9771 68.9275 14.8499 68.6724 14.6719C68.6724 14.7609 68.8 14.9135 68.9403 15.1678C69.953 17.1234 70.852 19.1356 71.6326 21.1942C72.5596 24.0286 73.7337 26.7769 75.1415 29.4074C75.6284 30.2228 76.0549 31.0727 76.4174 31.9502C76.6981 32.6494 76.8512 33.069 76.8895 33.2216C76.9265 33.2945 76.9458 33.3751 76.9458 33.4568C76.9458 33.5385 76.9265 33.6191 76.8895 33.692C76.762 33.8946 76.5609 34.0404 76.3281 34.0988C76.1126 34.1999 75.8773 34.252 75.6391 34.2514C75.5201 34.2699 75.3983 34.2587 75.2847 34.2188C75.1712 34.1788 75.0693 34.1114 74.9883 34.0225C74.5291 33.3098 74.128 32.5615 73.7889 31.7849C73.3659 30.7376 72.8846 29.7147 72.3471 28.7208C72.0792 28.1741 71.7729 27.4494 71.4029 26.5086C71.0329 25.5678 70.1269 23.025 68.583 18.8802C68.0089 17.3037 67.5878 16.1086 67.3071 15.2822C67.0264 14.4558 66.7967 13.8328 66.6691 13.3242C66.5672 12.9692 66.5368 12.5976 66.5798 12.2308C66.6139 12.146 66.6656 12.0692 66.7316 12.0057C66.7976 11.9422 66.8763 11.8932 66.9626 11.8621C67.274 11.7882 67.6019 11.8336 67.8813 11.9893C68.4431 12.269 68.9771 12.6011 69.4762 12.981C70.548 13.7311 71.6709 14.5702 72.832 15.5238C74.5774 16.987 76.1912 18.5993 77.6551 20.3423C79.2589 21.8506 80.7355 23.4877 82.0699 25.2372C82.4973 25.5982 82.8942 25.9937 83.2565 26.4196C83.5202 26.7078 83.6733 26.8476 83.7159 26.8392C83.7159 26.8392 83.7159 26.534 83.6393 25.9746C83.5628 25.4152 83.4862 25.0846 83.4352 24.7032C83.2183 23.1394 83.0269 21.512 82.861 19.8338C82.861 18.8802 82.861 18.0411 82.861 17.291C82.7673 15.8643 82.7673 14.4331 82.861 13.0064C82.9461 11.913 83.0736 10.4 83.2438 8.46752C83.3714 7.06899 83.4862 6.06459 83.601 5.46703C83.674 4.9939 83.8203 4.53494 84.0349 4.10664ZM51.0386 23.4827C51.2894 23.1853 51.5766 22.9205 51.8935 22.6944L52.3784 22.402C52.7962 22.141 53.2592 21.9599 53.7437 21.868C54.1805 21.7814 54.632 21.8046 55.0575 21.9356C55.483 22.0666 55.8691 22.3011 56.1807 22.6181C56.9942 23.4285 57.53 24.4742 57.7119 25.6059C57.9406 26.7281 57.9666 27.882 57.7885 29.0132C57.7885 29.1277 57.7885 29.3057 57.7885 29.5599C57.97 29.4662 58.1448 29.36 58.3116 29.2421C59.153 28.8279 60.1058 28.6942 61.0294 28.8607C62.0409 28.9793 62.9994 29.3754 63.7982 30.0049C64.4409 30.5444 65.0112 31.164 65.4952 31.8485C65.6391 31.9993 65.7713 32.1608 65.8908 32.3316C66.2831 32.844 66.601 33.409 66.835 34.0098C67.2108 35.1452 67.2898 36.3573 67.0647 37.5316C66.873 38.7223 66.4007 39.8508 65.6866 40.8245C65.3453 41.2026 64.9646 41.5436 64.551 41.8416C64.2042 42.0775 63.8419 42.2899 63.4665 42.4773C62.5937 42.8197 61.6608 42.984 60.7232 42.9604C60.079 42.9048 59.4444 42.7681 58.8347 42.5536C58.2915 42.3805 57.7791 42.123 57.3163 41.7908C56.5158 41.18 55.8181 40.4461 55.2493 39.6167C55.16 39.5022 55.0962 39.4005 55.0196 39.3115C54.3897 38.5216 53.9843 37.5775 53.8458 36.578C53.8458 36.4128 53.9606 36.1458 54.0371 35.8152C54.1392 35.9678 54.3817 36.311 54.7389 36.8577C55.6217 38.3289 56.9228 39.5059 58.4775 40.2397C59.3637 40.6105 60.3266 40.7631 61.2846 40.6846C61.8854 40.5863 62.4541 40.3466 62.9433 39.9854C63.6614 39.474 64.1977 38.7482 64.4745 37.913C64.7142 37.0878 64.8092 36.2276 64.7552 35.3702C64.5712 34.3281 64.0463 33.3759 63.2623 32.6621C62.506 31.8674 61.5358 31.3068 60.468 31.0475C59.9667 30.8835 59.4227 30.9061 58.9368 31.111C58.3709 31.3986 57.8977 31.8393 57.5715 32.3824C57.3291 32.7089 57.0509 33.0074 56.7422 33.2724C56.6232 33.3525 56.4854 33.4005 56.3423 33.4117C56.1992 33.4228 56.0556 33.3967 55.9256 33.336C55.7815 33.2933 55.6547 33.2064 55.563 33.0877C55.4714 32.969 55.4197 32.8245 55.4152 32.6749C55.2237 32.2106 55.2237 31.6898 55.4152 31.2255C55.5809 30.7176 55.713 30.1995 55.8107 29.6744C55.8977 28.6761 55.8977 27.6722 55.8107 26.6739C55.7954 25.9515 55.6257 25.2407 55.3131 24.5888C55.1901 24.3749 55.0447 24.1746 54.8793 23.9912C54.7085 23.9022 54.5223 23.8461 54.3306 23.826C54.0252 23.7468 53.7046 23.7468 53.3992 23.826C53.0698 24.0509 52.7735 24.3205 52.5188 24.6269C51.5409 25.8554 50.8952 27.313 50.6431 28.8607C50.5283 29.5091 50.5665 29.8905 50.7324 29.9922C50.8983 30.0939 50.8345 30.2338 50.7324 30.4499C50.6481 30.6123 50.5255 30.7519 50.3752 30.8568C50.0689 31.0729 49.7117 30.9203 49.2778 30.3991C49.1758 30.2974 49.0226 30.1194 48.793 29.8397C48.793 29.6362 48.9333 29.1785 49.0609 28.4538C49.1832 26.6317 49.8748 24.8934 51.0386 23.4827Z" fill="black"/>
<path d="M389.779 169.642C389.866 169.344 390.034 169.076 390.264 168.866C390.388 168.823 390.523 168.823 390.647 168.866C391.77 170.03 392.766 171.309 393.62 172.681C395.432 175.223 396.72 176.965 397.448 177.843C398.175 178.72 398.634 179.114 398.609 179.279C399.469 180.351 400.394 181.37 401.378 182.331C401.973 182.896 402.532 183.499 403.049 184.136C403.202 184.314 403.419 184.568 403.674 184.899C403.755 184.826 403.827 184.745 403.891 184.657C405.487 183.251 407.194 181.975 408.995 180.843C409.888 180.207 411.228 179.279 413.014 178.046L413.18 178.224V178.313C413.448 178.694 413.359 179.266 412.912 180.042C412.581 180.385 412.364 180.525 412.262 180.449C411.112 181.123 410.049 181.934 409.097 182.865C408.459 183.424 407.502 184.212 406.226 185.242C405.18 186.056 404.465 186.602 404.083 186.869L403.853 187.035C403.518 187.257 403.158 187.44 402.781 187.581C402.462 187.696 402.258 187.683 402.156 187.581C402.023 187.415 401.938 187.217 401.909 187.007C401.879 186.796 401.908 186.582 401.99 186.386C402.156 186.208 402.181 186.056 402.067 185.941C401.952 185.827 401.48 185.433 400.663 184.759C399.272 183.602 398.417 182.865 398.111 182.547C397.805 182.229 397.154 181.275 396.082 179.826C395.266 178.631 394.258 177.08 393.033 175.173C391.808 173.266 391.081 172.058 390.825 171.524C390.645 171.225 390.431 170.948 390.188 170.697C390.017 170.604 389.878 170.462 389.787 170.29C389.696 170.119 389.658 169.924 389.677 169.731L389.779 169.642ZM384.714 184.848C384.11 184.995 383.521 185.195 382.953 185.445C382.607 185.599 382.278 185.786 381.97 186.005C381.664 186.218 381.339 186.405 381.001 186.564C380.758 186.717 380.465 186.92 380.095 187.187L379.125 187.937C379.077 187.973 379.04 188.022 379.019 188.079C378.999 188.136 378.996 188.197 379.01 188.255C379.01 188.421 379.227 188.853 379.521 189.527C379.838 190.273 380.098 191.042 380.299 191.828C380.401 192.336 380.554 192.934 380.758 193.608C380.962 194.282 381.077 194.65 381.179 195.057C381.274 195.36 381.384 195.657 381.511 195.947C381.639 196.227 381.741 196.341 381.83 196.303C382.234 196.016 382.661 195.761 383.106 195.54C383.69 195.213 384.237 194.825 384.739 194.383C384.896 194.26 385.062 194.15 385.237 194.053L385.722 193.684C386.069 193.486 386.406 193.27 386.73 193.036C387.32 192.652 387.883 192.227 388.414 191.764C390.034 189.755 390.711 187.95 390.417 186.374C390.236 185.963 389.965 185.598 389.626 185.303C389.286 185.009 388.885 184.792 388.452 184.67C387.257 184.347 385.994 184.378 384.816 184.759L384.714 184.848ZM377.836 178.224C377.081 178.446 376.339 178.713 375.616 179.025L374.774 179.533C374.81 179.678 374.861 179.819 374.927 179.953V180.055L375.144 180.525C375.667 181.441 376.292 182.674 377.032 184.238C377.198 184.619 377.479 185.191 377.849 185.967C377.951 185.967 378.181 185.751 378.538 185.547L379.814 184.683L380.478 184.123C380.809 183.894 381.192 183.666 381.626 183.411C383.352 182.496 384.685 180.987 385.377 179.165C385.536 178.682 385.536 178.16 385.377 177.677C385.351 177.611 385.312 177.55 385.262 177.499C385.089 177.303 384.872 177.15 384.628 177.052C384.384 176.955 384.12 176.917 383.859 176.94C381.835 177.028 379.837 177.431 377.938 178.135L377.836 178.224ZM374.149 177.626C374.455 177.461 374.863 177.27 375.425 177.042L376.701 176.469C377.875 175.986 378.793 175.656 379.469 175.44C382.277 174.592 384.331 174.435 385.632 174.969C386.14 175.126 386.586 175.437 386.908 175.859C387.225 176.406 387.458 176.998 387.597 177.614C387.788 179.028 387.417 180.46 386.564 181.606C386.383 181.911 386.182 182.204 385.964 182.483C385.875 182.572 385.837 182.648 385.875 182.712C385.913 182.776 385.99 182.712 386.092 182.712C386.537 182.628 386.992 182.602 387.444 182.636C388.012 182.639 388.578 182.677 389.141 182.75C390.096 182.924 390.981 183.365 391.693 184.022C392.063 184.387 392.362 184.818 392.574 185.293C392.796 185.751 392.93 186.247 392.969 186.755C392.932 187.921 392.686 189.07 392.242 190.15C391.846 191.235 391.268 192.245 390.532 193.137C389.596 193.932 388.598 194.651 387.546 195.286C387.023 195.655 386.462 196.011 385.849 196.367C385.237 196.723 384.573 197.231 383.693 197.714C382.812 198.198 382.506 198.401 382.187 198.554L381.97 198.655L381.371 198.846C381.174 198.923 380.955 198.923 380.758 198.846C380.518 198.698 380.334 198.474 380.235 198.21C380.082 197.892 379.878 197.358 379.584 196.621C379.324 195.972 379.098 195.31 378.908 194.638C378.844 194.256 378.347 192.781 377.402 190.213L376.905 188.764L376.445 187.594C376.28 187.111 375.935 186.323 375.437 185.293C374.671 183.371 373.631 181.568 372.35 179.94L372.005 179.762C372.005 179.669 372.031 179.529 372.082 179.343C372.73 178.657 373.458 178.05 374.251 177.537L374.149 177.626ZM365.013 178.898C365.211 178.771 365.425 178.672 365.651 178.605C366.123 178.478 366.416 178.605 366.519 178.987C366.613 179.278 366.652 179.584 366.633 179.889C366.633 180.144 366.174 180.563 365.281 181.161L364.311 181.975C364.198 182.03 364.098 182.109 364.017 182.205C363.935 182.302 363.875 182.413 363.839 182.534C363.95 183.023 364.122 183.497 364.349 183.945C364.694 184.784 365.153 185.979 365.702 187.518C366.672 190.391 367.45 192.603 368.062 194.32C368.484 195.311 368.777 196.036 368.93 196.507C369.083 196.977 369.275 197.651 369.543 198.617C369.628 199.227 369.774 199.828 369.976 200.41C369.976 200.41 370.155 200.41 370.334 200.283C370.561 200.113 370.778 199.93 370.984 199.736C371.078 199.641 371.192 199.567 371.318 199.521C371.444 199.475 371.578 199.457 371.712 199.469C371.802 199.463 371.892 199.477 371.976 199.51C372.059 199.543 372.135 199.594 372.197 199.66C372.336 199.768 372.442 199.914 372.503 200.079C372.526 200.333 372.495 200.588 372.413 200.829C372.327 201.127 372.149 201.39 371.903 201.579C371.422 201.868 370.923 202.127 370.41 202.355C369.96 202.535 369.532 202.765 369.134 203.042C368.699 203.329 368.214 203.536 367.705 203.652L367.31 203.804C366.984 203.924 366.634 203.968 366.289 203.932C366.148 203.849 366.033 203.73 365.956 203.586C365.88 203.442 365.845 203.28 365.855 203.118C365.861 202.944 365.902 202.773 365.977 202.615C366.051 202.458 366.158 202.317 366.289 202.202C366.506 202.007 366.757 201.852 367.029 201.745C367.239 201.644 367.457 201.559 367.68 201.49C367.82 201.49 367.884 201.376 367.871 201.249C367.643 200.123 367.234 199.041 366.659 198.045C366.506 197.702 366.289 197.13 365.97 196.354C365.651 195.578 365.038 193.506 364.069 190.175C362.844 186.217 362.112 183.937 361.874 183.335C361.874 183.335 361.568 183.335 361.109 183.577C360.855 183.731 360.58 183.846 360.292 183.92C360.142 183.868 360 183.796 359.871 183.704C359.756 183.643 359.655 183.558 359.576 183.455C359.496 183.352 359.44 183.233 359.411 183.106C359.334 182.849 359.334 182.575 359.411 182.318C359.903 181.717 360.479 181.19 361.121 180.754C361.752 180.374 362.414 180.047 363.099 179.775C364.107 179.266 364.745 179.012 365.115 178.821L365.013 178.898ZM345.159 182.165C345.926 181.929 346.718 181.784 347.52 181.733H348.566C349.619 181.689 350.673 181.827 351.679 182.14C352.332 182.388 352.933 182.755 353.453 183.221C354.052 183.706 354.558 184.296 354.946 184.962C355.228 185.336 355.416 185.772 355.494 186.234C355.557 186.658 355.536 187.09 355.431 187.505C355.371 187.87 355.186 188.202 354.907 188.446C354.819 188.536 354.711 188.604 354.591 188.644C354.471 188.684 354.343 188.694 354.218 188.675C353.759 188.738 353.517 188.738 353.517 188.675C353.517 188.611 353.414 188.204 353.236 187.34C353.142 186.767 352.957 186.214 352.687 185.7C352.412 185.25 352.062 184.851 351.654 184.517C351.286 184.193 350.85 183.954 350.378 183.818C349.616 183.755 348.85 183.777 348.094 183.882C347.231 183.918 346.375 184.05 345.542 184.276C344.669 184.535 343.857 184.967 343.156 185.547C342.659 185.924 342.282 186.436 342.071 187.022C341.823 187.499 341.747 188.047 341.854 188.573C342.074 189.331 342.519 190.005 343.13 190.506C343.954 191.117 344.897 191.55 345.899 191.777C347.338 192.192 348.805 192.502 350.288 192.705C351.541 192.724 352.77 193.043 353.874 193.633C355.181 194.207 356.265 195.188 356.962 196.43C357.609 197.425 358.011 198.557 358.136 199.736V200.295C358.114 200.877 358.002 201.452 357.804 201.999C357.723 202.505 357.541 202.989 357.268 203.423C356.298 204.307 355.13 204.948 353.861 205.292C352.279 205.793 350.643 206.105 348.987 206.22C347.101 206.448 345.187 206.234 343.398 205.597C342.755 205.357 342.178 204.966 341.719 204.457C341.259 203.948 340.929 203.336 340.757 202.673C340.64 202.139 340.609 201.589 340.668 201.045C340.688 200.513 340.739 199.983 340.821 199.456C340.821 199.321 340.885 199.244 341.012 199.227C341.101 199.217 341.185 199.178 341.249 199.116C341.314 199.054 341.356 198.972 341.369 198.884C341.969 198.617 342.39 198.541 342.645 198.693C342.901 198.846 342.799 198.973 342.722 199.215C342.44 199.825 342.288 200.488 342.275 201.16C342.447 201.785 342.766 202.361 343.207 202.838C343.655 203.404 344.245 203.843 344.917 204.11C346.293 204.636 347.779 204.815 349.242 204.631C350.839 204.43 352.399 204.002 353.874 203.359C354.698 203.063 355.407 202.516 355.903 201.796C356.182 201.201 356.288 200.54 356.209 199.889C356.145 199.238 355.931 198.612 355.584 198.058C355.204 197.4 354.691 196.829 354.078 196.379C353.675 196.042 353.183 195.826 352.662 195.756C352.215 195.667 351.245 195.515 349.778 195.273C347.785 195.016 345.828 194.53 343.947 193.824C342.838 193.374 341.841 192.688 341.025 191.815C340.3 191.055 339.762 190.136 339.456 189.132C339.393 188.929 339.351 188.721 339.328 188.51C339.296 188.231 339.296 187.949 339.328 187.67C339.487 186.594 339.972 185.591 340.719 184.797C341.923 183.458 343.507 182.514 345.261 182.089L345.159 182.165ZM324.91 181.377C325.703 181.289 326.503 181.289 327.296 181.377L328.342 181.53C329.386 181.686 330.395 182.017 331.328 182.509C331.915 182.884 332.43 183.362 332.846 183.92C333.343 184.508 333.732 185.18 333.994 185.903C334.195 186.297 334.3 186.733 334.3 187.175C334.3 187.616 334.195 188.052 333.994 188.446C333.874 188.799 333.629 189.097 333.305 189.285C333.2 189.355 333.079 189.4 332.952 189.415C332.826 189.431 332.698 189.417 332.578 189.374C332.119 189.374 331.889 189.298 331.902 189.222C331.915 189.145 331.902 188.751 331.902 187.861C331.914 187.281 331.836 186.702 331.672 186.145C331.485 185.651 331.218 185.192 330.881 184.784C330.563 184.395 330.168 184.074 329.72 183.844C328.985 183.648 328.233 183.525 327.474 183.475C326.63 183.351 325.773 183.326 324.922 183.399C324.024 183.498 323.156 183.779 322.371 184.225C321.807 184.506 321.34 184.949 321.031 185.496C320.685 185.915 320.5 186.442 320.508 186.984C320.598 187.775 320.927 188.52 321.452 189.12C322.133 189.897 322.973 190.521 323.914 190.951C325.248 191.631 326.63 192.213 328.049 192.692C329.272 192.943 330.415 193.489 331.379 194.282C332.574 195.088 333.47 196.263 333.931 197.625C334.377 198.721 334.556 199.906 334.454 201.084L334.377 201.643C334.246 202.212 334.026 202.756 333.726 203.258C333.477 203.746 333.129 204.179 332.706 204.529C331.586 205.214 330.316 205.62 329.005 205.711C327.357 205.909 325.691 205.909 324.042 205.711C322.144 205.582 320.303 205.007 318.67 204.033C318.085 203.679 317.595 203.188 317.241 202.604C316.888 202.019 316.682 201.358 316.641 200.677C316.625 200.126 316.698 199.577 316.858 199.049C317.101 198.147 317.267 197.638 317.318 197.524C317.369 197.409 317.433 197.32 317.547 197.346C317.638 197.347 317.726 197.321 317.802 197.271C317.877 197.221 317.935 197.15 317.968 197.066C318.606 196.913 319.028 196.926 319.244 197.066C319.461 197.206 319.334 197.371 319.244 197.587C318.854 198.143 318.577 198.769 318.428 199.431C318.482 200.075 318.688 200.698 319.028 201.249C319.373 201.873 319.868 202.402 320.469 202.787C321.726 203.544 323.15 203.981 324.616 204.059C326.226 204.166 327.843 204.034 329.414 203.665C330.277 203.542 331.078 203.145 331.698 202.533C332.081 201.998 332.315 201.37 332.374 200.715C332.43 200.058 332.334 199.397 332.093 198.782C331.858 198.066 331.466 197.41 330.945 196.863C330.606 196.459 330.166 196.152 329.669 195.973L326.926 194.955C325.017 194.32 323.189 193.467 321.477 192.413C320.472 191.756 319.623 190.888 318.989 189.87C318.427 188.982 318.078 187.977 317.968 186.933C317.943 186.726 317.943 186.517 317.968 186.31C318 186.027 318.069 185.749 318.173 185.484C318.54 184.464 319.207 183.577 320.087 182.941C321.536 181.934 323.246 181.365 325.012 181.301L324.91 181.377ZM306.357 179.444C305.852 179.171 305.333 178.924 304.801 178.707C304.769 178.673 304.729 178.647 304.686 178.631C304.116 178.492 303.521 178.492 302.95 178.631C302.069 178.802 301.213 179.08 300.399 179.457C298.66 180.258 297.076 181.355 295.716 182.699C294.828 183.843 294.074 185.084 293.47 186.399C293.385 186.567 293.313 186.741 293.253 186.92C292.807 188.401 292.733 189.968 293.036 191.485C293.24 191.917 293.649 192.756 294.312 194.027C295.367 195.389 296.72 196.494 298.268 197.257C298.359 197.316 298.458 197.363 298.561 197.397C299.232 197.611 299.937 197.701 300.641 197.664C301.598 197.646 302.554 197.561 303.499 197.409C305.117 197.237 306.659 196.635 307.965 195.667C309.179 194.559 310.062 193.138 310.517 191.561C310.962 189.926 311.087 188.221 310.887 186.539C310.491 185.445 310.007 184.212 309.445 182.852C309.113 182.203 308.858 181.733 308.667 181.441C308.355 181.039 308.009 180.665 307.633 180.322L306.357 179.444ZM304.66 176.902C304.968 176.969 305.271 177.059 305.566 177.169L306.561 177.512C307.971 177.91 309.277 178.608 310.389 179.559C310.83 180.101 311.203 180.694 311.499 181.326C311.9 182.017 312.234 182.745 312.495 183.5C313.117 185.485 313.292 187.582 313.005 189.641C312.857 190.55 312.626 191.444 312.316 192.311C312.316 192.4 312.252 192.502 312.214 192.603C311.886 193.565 311.458 194.489 310.938 195.362C309.664 197.358 307.675 198.795 305.375 199.38C302.885 200.022 300.269 199.991 297.796 199.291C296.652 198.864 295.621 198.181 294.784 197.295C293.673 196.239 292.711 195.037 291.926 193.722C291.195 192.639 290.691 191.419 290.446 190.137C290.393 189.18 290.505 188.221 290.778 187.302C290.893 186.869 291.008 186.475 291.135 186.132C291.341 185.48 291.629 184.857 291.99 184.276C292.982 182.621 294.307 181.188 295.882 180.067L297.158 179.152C297.426 179 298.064 178.669 299.046 178.173C299.786 177.804 300.322 177.576 300.615 177.448C300.979 177.326 301.356 177.245 301.738 177.207L303.563 177.042C304.316 176.813 304.66 176.724 304.762 176.724L304.66 176.902ZM282.063 167.748C281.494 167.406 280.956 167.014 280.455 166.578C280.336 166.491 280.195 166.438 280.047 166.425C279.773 167.535 279.343 168.601 278.771 169.591C278.248 170.443 277.278 171.842 275.875 173.825C275.581 174.219 275.147 174.804 274.599 175.605C274.816 175.719 275.249 175.974 275.875 176.368C277.25 177.169 278.745 177.748 280.302 178.084C281.757 178.416 283.252 178.544 284.743 178.466C286.861 178.237 288.111 177.855 288.468 177.309V177.22C288.699 176.328 288.768 175.402 288.673 174.486C288.2 172.833 286.682 171.142 284.143 169.4C283.786 168.892 283.058 168.345 282.165 167.621L282.063 167.748ZM279.817 164.01C279.955 163.974 280.1 163.974 280.238 164.01C280.248 164.03 280.252 164.051 280.252 164.073C280.252 164.095 280.248 164.117 280.238 164.137C280.245 164.148 280.249 164.162 280.249 164.175C280.249 164.188 280.245 164.202 280.238 164.213C280.238 164.213 280.238 164.277 280.392 164.366L280.966 164.823L281.987 165.485L283.633 166.553C285.109 167.492 286.535 168.506 287.907 169.591C289.713 171.056 290.879 173.162 291.161 175.465C291.233 176.331 291.102 177.201 290.778 178.008C290.712 178.201 290.622 178.384 290.51 178.555C290.345 178.793 290.157 179.014 289.948 179.216C288.964 180.025 287.786 180.568 286.529 180.792C285.686 180.94 284.833 181.016 283.977 181.021C282.928 180.925 281.895 180.698 280.902 180.347C279.93 180.026 278.976 179.652 278.044 179.228C277.033 178.812 276.056 178.319 275.122 177.754C274.816 177.576 274.369 177.321 273.769 176.953C273.629 177.118 273.387 177.461 273.017 177.97C272.506 178.669 272.034 179.368 271.588 180.08C270.814 181.383 269.935 182.62 268.959 183.78C268.793 183.945 268.666 184.009 268.589 183.958C268.472 183.882 268.332 183.851 268.193 183.869C268.058 183.857 267.921 183.857 267.785 183.869C267.69 183.903 267.587 183.903 267.492 183.869C267.416 183.814 267.351 183.745 267.3 183.666C267.177 183.413 267.141 183.127 267.198 182.852C267.271 182.486 267.391 182.131 267.555 181.797C268.296 180.379 269.15 179.023 270.107 177.741C271.383 175.872 272.736 174.066 274.178 172.299C275.626 170.535 276.907 168.641 278.006 166.642C278.439 165.726 278.682 165.179 278.733 165.027C278.757 164.949 278.757 164.866 278.731 164.789C278.706 164.711 278.658 164.643 278.592 164.595C278.553 164.576 278.518 164.549 278.49 164.516C278.461 164.484 278.44 164.445 278.427 164.404C278.424 164.293 278.45 164.184 278.503 164.086C278.55 163.998 278.627 163.93 278.72 163.895C278.72 163.895 278.886 163.895 279.09 163.895C279.311 164.018 279.569 164.058 279.817 164.01ZM276.832 158.924C277.059 158.981 277.267 159.1 277.431 159.267C277.576 159.439 277.673 159.645 277.712 159.865C277.738 160.073 277.712 160.283 277.636 160.479C277.56 160.674 277.437 160.847 277.278 160.984C276.921 161.416 276.002 162.332 274.522 163.717C272.71 165.413 271.056 166.93 269.559 168.269C267.184 170.429 264.939 172.725 262.834 175.147C262.158 175.923 261.686 176.419 261.393 176.724C261.338 176.773 261.278 176.816 261.214 176.851C260.995 177.032 260.721 177.135 260.436 177.143C260.293 177.147 260.152 177.115 260.025 177.051C259.898 176.987 259.789 176.892 259.708 176.775C259.55 176.542 259.375 176.321 259.185 176.113C259.101 176.024 259.054 175.906 259.054 175.783C259.054 175.66 259.101 175.542 259.185 175.452C260.309 173.758 261.619 172.193 263.09 170.786C264.914 168.919 266.843 167.157 268.87 165.51C269.801 164.734 270.745 163.921 271.702 163.056C272.659 162.192 273.119 161.721 273.131 161.67L272.902 161.734C272.774 161.734 272.787 161.734 272.902 161.734C272.519 161.874 271.855 162.065 270.937 162.293C268.793 162.954 267.339 163.463 266.547 163.806C264.956 164.422 263.397 165.118 261.877 165.891C261.482 166.108 260.678 166.489 259.491 167.023C257.616 167.951 256.187 168.714 255.217 169.311C254.393 169.852 253.542 170.348 252.665 170.799C252.257 170.977 251.938 170.964 251.746 170.799C251.678 170.725 251.632 170.633 251.614 170.534C251.596 170.435 251.607 170.333 251.644 170.24C251.799 169.834 252.005 169.45 252.257 169.095C253.037 167.884 253.712 166.608 254.273 165.281C255.212 162.766 256.325 160.32 257.603 157.958C258.97 155.129 260.176 152.226 261.214 149.262C261.214 149.134 261.303 148.918 261.38 148.626C261.253 148.764 261.134 148.908 261.023 149.058C259.552 150.737 257.988 152.333 256.34 153.839C254.033 155.771 251.899 157.897 249.96 160.196C249.379 160.924 248.748 161.613 248.072 162.255C247.748 162.574 247.407 162.875 247.051 163.158C246.993 163.215 246.922 163.258 246.845 163.282C246.767 163.306 246.685 163.312 246.604 163.298C246.438 163.298 246.247 163.171 246.017 162.929C245.846 162.768 245.711 162.573 245.622 162.357C245.566 162.249 245.537 162.129 245.537 162.007C245.537 161.886 245.566 161.766 245.622 161.658C246.134 161.004 246.693 160.388 247.293 159.814C248.113 159.032 248.892 158.208 249.628 157.348C250.037 156.903 250.598 156.331 251.338 155.644C252.078 154.957 254.094 153.101 257.373 150.228C258.649 149.122 259.594 148.283 260.257 147.685C260.761 147.228 261.294 146.804 261.852 146.414C262.136 146.177 262.473 146.012 262.834 145.931C262.926 145.925 263.017 145.94 263.101 145.975C263.185 146.01 263.26 146.065 263.319 146.134C263.503 146.397 263.581 146.719 263.536 147.037C263.488 147.656 263.377 148.27 263.204 148.867C262.898 150.139 262.541 151.487 262.12 152.91C261.393 155.06 260.483 157.144 259.402 159.14C258.584 161.182 257.602 163.154 256.467 165.04C256.289 165.57 256.067 166.084 255.804 166.578C255.625 166.934 255.549 167.125 255.574 167.163C255.6 167.201 255.88 167.061 256.353 166.769L257.463 166.108C258.853 165.332 260.295 164.556 261.801 163.781C262.669 163.412 263.46 163.094 264.161 162.815C265.462 162.211 266.8 161.693 268.168 161.264L272.544 159.992C273.82 159.585 274.867 159.331 275.466 159.217C275.924 159.07 276.402 158.993 276.883 158.988L276.832 158.924ZM260.397 140.959C260.575 141.115 260.729 141.295 260.857 141.493C261.125 141.913 261.086 142.218 260.755 142.434C260.499 142.607 260.213 142.732 259.913 142.803C259.67 142.803 259.134 142.561 258.292 141.875C258.152 141.798 257.807 141.57 257.233 141.188C257.053 141.011 256.81 140.91 256.557 140.909C256.116 141.153 255.709 141.452 255.345 141.798C254.643 142.383 253.622 143.159 252.308 144.125C249.832 145.88 247.88 147.291 246.451 148.359C245.601 149.045 244.988 149.529 244.614 149.808C244.218 150.075 243.606 150.469 242.751 151.003C242.191 151.266 241.657 151.581 241.156 151.944C241.156 151.944 241.22 152.109 241.398 152.249C241.577 152.389 241.832 152.542 242.1 152.707C242.218 152.769 242.321 152.856 242.403 152.961C242.484 153.066 242.542 153.188 242.572 153.317C242.61 153.399 242.63 153.488 242.63 153.578C242.63 153.668 242.61 153.757 242.572 153.839C242.518 154.008 242.405 154.152 242.253 154.245C242.021 154.35 241.768 154.398 241.513 154.385C241.203 154.387 240.901 154.293 240.646 154.118C240.403 153.902 240.008 153.508 239.459 152.847C239.156 152.461 238.809 152.111 238.425 151.804C238.027 151.471 237.69 151.071 237.43 150.622C237.336 150.519 237.251 150.408 237.175 150.291C236.964 150.019 236.82 149.701 236.754 149.363C236.792 149.205 236.873 149.06 236.988 148.943C237.102 148.827 237.246 148.744 237.405 148.702C237.573 148.655 237.75 148.644 237.923 148.668C238.097 148.692 238.263 148.751 238.413 148.842C238.664 149 238.888 149.198 239.076 149.427C239.293 149.694 239.446 149.872 239.51 149.974C239.574 150.075 239.676 150.139 239.791 150.088C240.804 149.544 241.722 148.84 242.508 148.003L243.938 146.846C244.614 146.35 246.4 145.142 249.322 143.261C252.725 140.947 254.702 139.586 255.255 139.179C255.255 139.179 255.128 138.9 254.796 138.518C254.579 138.323 254.394 138.096 254.247 137.844C254.243 137.684 254.269 137.525 254.324 137.374C254.347 137.247 254.398 137.127 254.473 137.021C254.548 136.916 254.645 136.828 254.758 136.764C254.985 136.614 255.251 136.534 255.523 136.535C256.24 136.833 256.91 137.231 257.514 137.717C258.066 138.205 258.575 138.742 259.032 139.319C259.632 140.209 260.104 140.743 260.397 141.023V140.959Z" fill="black"/>
<path d="M420.096 32.6495C420.311 33.181 420.558 33.699 420.836 34.2006C420.823 34.2463 420.823 34.2947 420.836 34.3404C421.173 34.7993 421.609 35.1772 422.112 35.4465C422.92 35.8701 423.777 36.1945 424.664 36.4128C426.522 36.8792 428.448 37.0211 430.355 36.8324C431.767 36.4997 433.136 36.0093 434.438 35.3703C434.61 35.2939 434.776 35.2047 434.935 35.1033C436.219 34.2362 437.267 33.0655 437.985 31.6959C438.1 31.2255 438.329 30.3101 438.636 28.9243C438.681 27.2017 438.328 25.4919 437.602 23.9277C437.568 23.8247 437.521 23.7264 437.462 23.6353C437.071 23.0492 436.578 22.537 436.007 22.1223C435.253 21.5361 434.46 21.0009 433.634 20.5204C432.283 19.6482 430.725 19.1481 429.117 19.071C427.469 19.1635 425.879 19.7092 424.524 20.6475C423.146 21.6409 421.972 22.8882 421.066 24.3219C420.683 25.4153 420.287 26.6739 419.866 28.136C419.733 28.6538 419.639 29.1808 419.586 29.7126C419.566 30.2186 419.596 30.7253 419.675 31.2255C419.828 31.7595 419.968 32.2553 420.109 32.6876L420.096 32.6495ZM419.79 35.7263C419.59 35.4827 419.411 35.2234 419.254 34.9507L418.692 34.0734C417.851 32.8806 417.285 31.5174 417.034 30.0813C417.009 29.3719 417.078 28.6624 417.238 27.9708C417.36 27.1814 417.56 26.4062 417.838 25.6568C418.605 23.7248 419.795 21.9875 421.321 20.5712C422.007 19.9468 422.756 19.3931 423.554 18.9184L423.809 18.7532C424.66 18.211 425.562 17.7512 426.501 17.38C428.756 16.6393 431.208 16.7755 433.366 17.7615C434.448 18.2289 435.461 18.8405 436.377 19.5796C437.515 20.4313 438.506 21.4619 439.312 22.6309C439.923 23.6854 440.289 24.8626 440.384 26.0764C440.6 27.5902 440.6 29.1269 440.384 30.6407C440.269 31.9419 439.887 33.2056 439.261 34.3531C438.704 35.1337 438.013 35.8096 437.219 36.3492C436.862 36.6035 436.518 36.8324 436.199 37.0358C435.63 37.4101 435.017 37.7133 434.374 37.9385C432.554 38.5992 430.617 38.8805 428.683 38.7649L427.063 38.625L424.894 38.2436C424.094 38.0656 423.533 37.9258 423.209 37.8241C422.85 37.6961 422.507 37.5253 422.189 37.3155C421.461 36.8324 420.913 36.4891 420.67 36.2857C420.362 36.1232 420.068 35.9361 419.79 35.7263ZM425.863 47.7918C425.726 47.6017 425.611 47.397 425.519 47.1815C425.34 46.7238 425.442 46.4187 425.812 46.2788C426.097 46.166 426.399 46.1015 426.705 46.0881C426.961 46.0881 427.42 46.4822 428.122 47.3595C428.237 47.4612 428.53 47.7664 429.015 48.2495C429.158 48.4591 429.378 48.6049 429.627 48.6563C430.109 48.5065 430.568 48.2927 430.993 48.0206C431.797 47.6011 432.945 47.0289 434.438 46.3424C437.202 45.1134 439.393 44.1175 441.009 43.3546C441.966 42.8461 442.655 42.5028 443.101 42.2994C443.548 42.0959 444.224 41.8417 445.156 41.4857C445.762 41.3481 446.352 41.1478 446.917 40.8881C446.917 40.8881 446.917 40.7228 446.738 40.5448C446.559 40.3668 446.381 40.1634 446.151 39.96C446.047 39.8747 445.962 39.7682 445.903 39.6476C445.843 39.5269 445.811 39.395 445.807 39.2607C445.793 39.1729 445.799 39.0832 445.823 38.9977C445.847 38.9122 445.889 38.8328 445.947 38.7649C446.042 38.6146 446.18 38.4953 446.342 38.4216C446.591 38.3698 446.847 38.3698 447.095 38.4216C447.403 38.4844 447.683 38.6397 447.899 38.8666C448.24 39.3139 448.547 39.7856 448.818 40.2778C449.034 40.7318 449.304 41.1586 449.622 41.5492C449.945 41.9567 450.196 42.417 450.362 42.9096C450.438 43.0258 450.502 43.1493 450.553 43.2783C450.707 43.5909 450.785 43.9347 450.783 44.2827C450.712 44.4306 450.603 44.5563 450.465 44.646C450.328 44.7357 450.169 44.786 450.004 44.7913C449.83 44.8025 449.655 44.7778 449.49 44.7188C449.326 44.6597 449.175 44.5676 449.047 44.448C448.834 44.2467 448.657 44.0101 448.524 43.7487C448.4 43.5507 448.293 43.3422 448.205 43.1258C448.19 43.0719 448.156 43.0254 448.109 42.995C448.062 42.9645 448.006 42.9523 447.95 42.9605C446.848 43.3005 445.806 43.811 444.862 44.4734L443.229 45.3126C442.476 45.6813 440.473 46.5077 437.245 47.7791C433.408 49.3556 431.197 50.2922 430.61 50.5888C430.61 50.6524 430.686 50.9067 430.929 51.339C431.105 51.5699 431.243 51.8275 431.337 52.1018C431.31 52.2592 431.254 52.4102 431.171 52.5468C431.123 52.6666 431.049 52.7742 430.954 52.8621C430.859 52.95 430.746 53.016 430.623 53.0553C430.37 53.1668 430.088 53.1936 429.819 53.1316C429.176 52.7008 428.6 52.1782 428.109 51.5805C427.656 50.9533 427.263 50.285 426.935 49.5844C426.437 48.7453 426.08 48.1351 425.851 47.7918H425.863ZM435.101 63.1502C435.213 64.1452 435.396 65.131 435.65 66.0998C435.912 67.3047 436.244 68.4934 436.645 69.6597C436.791 70.0495 436.965 70.4278 437.168 70.7913C437.168 70.7913 437.321 70.7913 437.628 70.7913H437.857C438.808 70.4156 439.784 70.1097 440.779 69.8759C442.4 69.4309 443.765 69.024 444.875 68.6045L447.912 67.6255C448.958 67.295 449.864 66.9771 450.63 66.6847C451.138 66.4546 451.657 66.2509 452.186 66.0744C452.451 66.0031 452.707 65.9051 452.952 65.782C452.785 65.2796 452.589 64.7872 452.365 64.3072C451.957 63.3579 451.663 62.7095 451.485 62.3619C450.56 60.7845 449.492 59.295 448.295 57.9121C447.318 57.1754 446.194 56.6558 444.999 56.3883C443.804 56.1207 442.565 56.1114 441.366 56.361C441.116 56.4153 440.869 56.4832 440.626 56.5644C439.054 57.0175 437.641 57.898 436.543 59.1072C435.626 60.2581 435.118 61.6805 435.101 63.1502ZM433.825 66.7737C433.725 66.4869 433.644 66.1939 433.583 65.8964C433.396 65.1724 433.285 64.431 433.251 63.6842C433.198 62.8284 433.284 61.9698 433.506 61.1414C433.863 59.7714 434.52 58.4969 435.429 57.409C436.337 56.3211 437.476 55.4466 438.763 54.848C439.491 54.5208 440.253 54.2735 441.034 54.1106C441.774 53.9073 442.539 53.8172 443.306 53.8436C444.374 53.9007 445.434 54.0625 446.47 54.3267C447.892 54.7846 449.198 55.5436 450.298 56.5517C450.804 57.0381 451.269 57.5654 451.689 58.1282C452.674 59.6953 453.528 61.341 454.241 63.0485C455.054 64.8035 455.703 66.6293 456.18 68.5028C456.269 68.8416 456.337 69.1855 456.384 69.5326C456.389 69.7253 456.35 69.9166 456.269 70.092C456.038 70.3125 455.781 70.5046 455.504 70.6642C455.454 70.6756 455.403 70.6747 455.354 70.6613C455.305 70.648 455.26 70.6228 455.223 70.5879C455.172 70.5572 455.128 70.5166 455.093 70.4686C455.058 70.4205 455.032 70.366 455.019 70.3082C454.895 69.9561 454.723 69.6226 454.509 69.3165L453.871 68.2866C453.847 68.2014 453.803 68.1229 453.743 68.0578C453.743 68.0578 453.654 68.0578 453.552 68.1468C453.383 68.2615 453.191 68.3395 452.99 68.3756C452.653 68.5536 452.303 68.7066 451.944 68.8333C449.61 69.783 447.214 70.5731 444.773 71.1981C443.497 71.4397 442.464 71.6813 441.634 71.9228L439.452 72.5204C439.091 72.6996 438.71 72.8362 438.317 72.9272L438.789 73.5756C438.87 73.7072 438.968 73.827 439.082 73.9316C439.197 74.2241 439.082 74.5038 438.712 74.7708C438.524 74.9067 438.312 75.006 438.087 75.0632C437.958 75.101 437.821 75.101 437.691 75.0632C437.5 75.0632 437.143 74.669 436.658 74.0206C436.167 73.372 435.74 72.6781 435.382 71.9483C434.721 70.269 434.201 68.5383 433.825 66.7737ZM434.17 80.403C434.06 80.2519 434.006 80.0679 434.017 79.8818C434.017 79.602 434.017 79.4622 434.183 79.4622H435.242C436.709 79.4622 439.006 79.2333 442.119 78.8646C443.164 78.7278 444.216 78.6471 445.271 78.6231C447.083 78.525 448.881 78.2568 450.642 77.8221C451.746 77.5876 452.87 77.4598 453.998 77.4407C454.921 77.2124 455.867 77.0887 456.818 77.072H456.895C456.923 77.0689 456.952 77.0746 456.977 77.0883C457.002 77.1019 457.022 77.1228 457.035 77.1483C457.047 77.1695 457.054 77.1936 457.054 77.2182C457.054 77.2427 457.047 77.2668 457.035 77.2881C457.035 77.3983 456.805 77.5636 456.346 77.784L456.065 78.0382C456.448 78.0382 456.627 78.1018 456.601 78.2289C456.601 78.2289 456.601 78.3179 456.461 78.3434C456.194 78.5595 455.903 78.743 455.593 78.8901C454.813 79.2096 453.993 79.4234 453.156 79.5258L451.561 79.9072L452.403 80.136C453.42 80.3991 454.386 80.8288 455.261 81.4074C455.974 81.837 456.546 82.4644 456.907 83.2128L457.201 83.8994C457.354 84.2299 457.456 84.4588 457.533 84.5986C458.041 85.6142 458.34 86.7208 458.413 87.8534C458.423 88.3183 458.358 88.7818 458.222 89.2265C458.117 89.5735 457.963 89.9033 457.762 90.2055C457.571 90.4725 457.226 90.9047 456.703 91.4769C455.994 92.3145 455.127 93.0056 454.151 93.5111C452.922 94.0443 451.638 94.4449 450.323 94.7062C449.131 94.8773 447.929 94.9707 446.725 94.9859C446.138 94.9859 445.59 94.9859 445.079 94.9859C444.007 94.9859 443.038 94.9859 442.17 94.9859C437.666 94.8079 435.407 94.4392 435.395 93.9052C435.395 93.7908 435.612 93.6509 436.045 93.4729C436.548 93.2744 437.095 93.2172 437.628 93.3077C439.666 93.4548 441.711 93.4846 443.752 93.3967C446.993 93.3204 448.856 93.2441 449.277 93.1424C450.067 92.9888 450.834 92.7367 451.561 92.3923C452.111 92.1478 452.643 91.8675 453.156 91.5531C453.781 91.1661 454.382 90.7415 454.955 90.2818C455.305 89.9966 455.626 89.6771 455.912 89.3282C456.114 88.6003 456.196 87.8446 456.155 87.0906C456.155 86.3913 456.155 85.959 456.155 85.8192C456.075 85.5728 455.963 85.3378 455.823 85.1199C455.022 83.8418 453.935 82.7667 452.646 81.9796C450.603 81.032 448.365 80.5748 446.113 80.6446C444.837 80.6446 444.199 80.6446 444.173 80.6446C444.148 80.6446 443.191 80.7463 441.417 80.8734C439.644 81.0006 438.508 81.1023 437.998 81.115C437.211 81.1305 436.424 81.0666 435.65 80.9243C435.114 80.8893 434.598 80.7091 434.157 80.403H434.17ZM432.639 110.611C432.639 110.179 433.072 107.916 433.825 103.848C434.374 100.987 434.706 99.2832 434.833 98.7619C434.961 98.2407 435.101 97.872 435.229 97.8465H435.407C435.524 97.8785 435.633 97.9348 435.726 98.0118C435.825 98.0898 435.897 98.1969 435.932 98.3179C435.966 98.4389 435.961 98.5676 435.918 98.6857C435.841 99.0925 435.701 100.097 435.497 101.699C435.28 103.288 435.152 104.445 435.127 105.144C435.127 105.399 435.088 105.78 435.012 106.289H435.305C436.436 106.294 437.565 106.367 438.687 106.505L442.872 106.975C444.428 107.128 446.445 107.395 448.907 107.802C451.37 108.208 453.054 108.552 454.011 108.806C454.704 108.942 455.384 109.142 456.04 109.404C456.187 109.507 456.298 109.652 456.36 109.82C456.422 109.988 456.43 110.171 456.384 110.344V110.421C456.308 110.827 456.116 111.031 455.81 111.018L455.287 111.094C454.843 111.277 454.353 111.322 453.883 111.222C453.347 111.222 451.548 110.84 448.512 110.243C445.96 109.734 443.089 109.213 439.899 108.679C438.279 108.332 436.638 108.094 434.986 107.967C434.876 108.49 434.808 109.022 434.782 109.556C434.672 110.785 434.595 111.633 434.553 112.099C434.387 113.316 434.353 114.548 434.45 115.773C434.478 115.902 434.476 116.035 434.445 116.162C434.414 116.29 434.355 116.409 434.272 116.511C434.132 116.676 434.004 116.765 433.915 116.765C433.831 116.784 433.743 116.784 433.659 116.765C433.496 116.73 433.34 116.665 433.2 116.574C433.079 116.511 432.974 116.422 432.89 116.315C432.806 116.207 432.747 116.083 432.715 115.951C432.593 115.366 432.537 114.769 432.549 114.171C432.549 113.548 432.549 112.379 432.639 110.611ZM425.468 127.508C425.624 126.723 425.873 125.96 426.208 125.232C426.335 124.94 426.489 124.622 426.667 124.292C427.123 123.345 427.74 122.484 428.492 121.749C429.023 121.295 429.633 120.942 430.291 120.706C431.008 120.408 431.773 120.24 432.549 120.21C432.977 120.159 433.411 120.193 433.825 120.312C434.254 120.46 434.646 120.699 434.974 121.011C435.269 121.234 435.477 121.554 435.561 121.914C435.599 122.034 435.607 122.162 435.585 122.286C435.563 122.41 435.511 122.527 435.433 122.626C435.271 123.058 435.157 123.262 435.088 123.236L433.813 122.842C433.263 122.651 432.685 122.553 432.103 122.55C431.576 122.576 431.059 122.692 430.572 122.893C430.09 123.07 429.654 123.353 429.296 123.719C428.89 124.363 428.548 125.044 428.275 125.754C427.911 126.513 427.633 127.31 427.445 128.131C427.261 129.024 427.261 129.946 427.445 130.839C427.544 131.454 427.819 132.028 428.237 132.492C428.543 132.94 428.993 133.272 429.513 133.433C430.3 133.58 431.114 133.487 431.848 133.166C432.797 132.753 433.645 132.142 434.336 131.373C435.379 130.301 436.346 129.158 437.232 127.953C437.852 126.863 438.728 125.938 439.784 125.258C440.913 124.383 442.297 123.897 443.727 123.872C444.91 123.784 446.099 123.971 447.197 124.419L447.708 124.648C448.215 124.936 448.672 125.306 449.06 125.741C449.443 126.128 449.747 126.586 449.953 127.089C450.254 128.342 450.254 129.649 449.953 130.903C449.642 132.528 449.141 134.111 448.461 135.62C447.769 137.382 446.672 138.959 445.258 140.222C444.744 140.675 444.127 140.998 443.46 141.162C442.793 141.326 442.097 141.326 441.43 141.163C440.901 141.004 440.398 140.768 439.937 140.464C439.495 140.191 439.069 139.894 438.661 139.574C438.635 139.563 438.612 139.547 438.593 139.526C438.574 139.506 438.559 139.482 438.549 139.456C438.539 139.43 438.535 139.402 438.537 139.374C438.539 139.346 438.546 139.319 438.559 139.294C438.586 139.211 438.587 139.121 438.562 139.037C438.537 138.953 438.487 138.879 438.419 138.824C438.419 138.175 438.597 137.768 438.853 137.552C439.108 137.336 439.172 137.552 439.35 137.73C440.205 138.62 440.703 139.002 440.869 139.002C441.502 139.147 442.161 139.147 442.795 139.002C443.49 138.854 444.138 138.54 444.684 138.086C445.817 137.133 446.694 135.914 447.236 134.539C447.811 133.038 448.163 131.462 448.282 129.86C448.426 128.991 448.282 128.099 447.874 127.317C447.476 126.791 446.942 126.383 446.33 126.135C445.719 125.889 445.061 125.78 444.403 125.817C443.648 125.841 442.905 126.019 442.221 126.338C441.712 126.526 441.268 126.857 440.945 127.292C440.652 127.635 440.065 128.411 439.159 129.581C437.981 131.205 436.624 132.694 435.114 134.018C434.184 134.777 433.1 135.328 431.937 135.632C430.922 135.911 429.855 135.945 428.824 135.734C428.616 135.695 428.415 135.631 428.224 135.543C427.965 135.429 427.721 135.284 427.497 135.111C426.635 134.465 425.982 133.581 425.621 132.568C425.092 130.938 425.039 129.192 425.468 127.534V127.508ZM403.968 159.535C403.968 159.433 404.198 159.166 404.644 158.734C405.091 158.301 405.448 158.047 405.678 157.869L406.788 156.712C407.315 156.076 408.787 154.47 411.203 151.893L413.295 149.732C413.863 149.103 414.468 148.509 415.107 147.952C415.186 147.906 415.277 147.882 415.369 147.882C415.46 147.882 415.551 147.906 415.63 147.952C415.811 148.051 415.948 148.215 416.013 148.41C416.268 148.817 416.14 149.211 415.63 149.605L414.061 151.626C413.506 152.513 412.86 153.34 412.134 154.093C411.343 154.856 410.437 155.746 409.416 156.763L406.992 159.179L407.413 159.585C407.847 159.84 408.459 160.272 409.25 160.857C410.041 161.442 410.82 162.014 411.904 162.738C412.593 163.26 413.053 163.514 413.282 163.476C413.18 163.535 413.206 163.51 413.359 163.4C413.801 162.594 414.379 161.872 415.069 161.264C416.541 160.04 417.892 158.678 419.101 157.195C420.581 155.305 421.487 154.352 421.819 154.335C422.061 154.378 422.277 154.515 422.418 154.716C422.606 154.926 422.71 155.197 422.712 155.479C422.734 155.631 422.734 155.785 422.712 155.937C422.712 156.026 422.712 156.076 422.712 156.089C422.712 156.102 422.342 156.623 421.589 157.666C420.928 158.618 420.172 159.5 419.33 160.297C418.563 161.037 417.758 161.737 416.919 162.395C416.406 162.776 415.927 163.201 415.49 163.667C415.298 163.87 415.018 164.175 414.673 164.569L416.102 165.942C417.2 167.023 418.131 167.989 418.909 168.828C419.688 169.668 420.185 170.354 420.185 170.38C420.353 170.592 420.532 170.796 420.721 170.99C420.772 170.822 420.832 170.656 420.9 170.494C421.061 170.163 421.342 169.655 421.742 168.968L422.189 167.9C422.416 167.528 422.686 167.182 422.992 166.87C423.462 166.355 423.888 165.802 424.268 165.218C425.056 164.175 425.969 163.231 426.986 162.408C427.441 162.196 427.869 161.932 428.262 161.62C428.765 161.297 429.338 161.1 429.934 161.048C430.206 161.014 430.48 161.087 430.699 161.251C430.766 161.308 430.814 161.383 430.84 161.467C430.967 161.836 430.84 162.192 430.355 162.573C429.773 163.004 429.231 163.485 428.734 164.01C428.056 164.635 427.413 165.297 426.808 165.993C425.697 167.341 424.753 168.536 423.988 169.718C423.35 170.558 422.712 171.32 422.125 172.045C421.691 172.529 421.311 173.058 420.989 173.622C420.953 173.696 420.905 173.764 420.849 173.825C420.759 173.903 420.66 173.972 420.555 174.028C420.442 174.067 420.321 174.077 420.203 174.057C420.084 174.037 419.973 173.988 419.879 173.914C419.644 173.749 419.462 173.519 419.356 173.253C418.862 172.522 418.298 171.841 417.672 171.219L415.298 168.549C413.523 166.748 411.56 165.141 409.442 163.756C408.726 163.248 408.04 162.701 407.387 162.115C406.545 161.416 405.844 160.844 405.295 160.501C404.926 160.286 404.58 160.035 404.261 159.751C404.044 159.687 403.968 159.598 403.968 159.535Z" fill="black"/>
<path fill-rule="evenodd" clip-rule="evenodd" d="M235.274 110.611C236.146 110.596 237.003 110.84 237.736 111.311C238.469 111.782 239.045 112.459 239.391 113.257C239.737 114.055 239.837 114.937 239.679 115.792C239.521 116.646 239.112 117.435 238.503 118.058C237.895 118.68 237.114 119.109 236.261 119.288C235.407 119.468 234.52 119.391 233.71 119.068C232.901 118.744 232.206 118.188 231.714 117.47C231.223 116.752 230.956 115.905 230.948 115.036C230.938 113.879 231.387 112.765 232.197 111.936C233.007 111.108 234.113 110.631 235.274 110.611Z" fill="black"/>
<path fill-rule="evenodd" clip-rule="evenodd" d="M417.595 15.8542C416.842 16.2889 415.975 16.4911 415.106 16.4351C414.237 16.3792 413.404 16.0676 412.713 15.5398C412.022 15.0121 411.503 14.2919 411.223 13.4703C410.942 12.6487 410.913 11.7627 411.138 10.9244C411.363 10.0861 411.832 9.33313 412.487 8.76081C413.142 8.18848 413.952 7.82251 414.815 7.70919C415.679 7.59587 416.557 7.74031 417.338 8.12422C418.119 8.50812 418.768 9.11425 419.203 9.86591C419.783 10.8734 419.939 12.0684 419.638 13.1901C419.336 14.3119 418.602 15.2696 417.595 15.8542Z" fill="black"/>
<path fill-rule="evenodd" clip-rule="evenodd" d="M118.333 234.509C118.228 235.367 117.87 236.176 117.304 236.832C116.738 237.488 115.99 237.962 115.153 238.194C114.317 238.426 113.431 238.406 112.606 238.136C111.781 237.866 111.055 237.359 110.52 236.678C109.985 235.997 109.664 235.173 109.599 234.31C109.533 233.448 109.726 232.585 110.152 231.832C110.579 231.079 111.22 230.468 111.995 230.078C112.769 229.687 113.643 229.535 114.505 229.639C115.077 229.708 115.63 229.889 116.132 230.171C116.634 230.454 117.075 230.832 117.431 231.284C117.786 231.736 118.049 232.254 118.204 232.807C118.358 233.36 118.402 233.938 118.333 234.509Z" fill="black"/>
</g>
<defs>
<clipPath id="clip0_1_74">
<rect width="458.4" height="239.2" fill="white"/>
</clipPath>
</defs>
</svg>
