<svg width="37" height="36" viewBox="0 0 37 36" fill="none" xmlns="http://www.w3.org/2000/svg">
<path d="M9.7124 35.8727C7.57147 35.7753 6.40845 35.419 5.63489 35.1173C4.60989 34.7182 3.87913 34.2432 3.10985 33.475C2.34057 32.7067 1.86445 31.976 1.4675 30.951C1.16578 30.1774 0.809496 29.0144 0.712132 26.8735C0.605139 24.5592 0.58374 23.8648 0.58374 18.0016C0.58374 12.1384 0.607279 11.4451 0.711062 9.12866C0.808426 6.98773 1.16685 5.82685 1.46643 5.05115C1.86552 4.02615 2.34164 3.29539 3.10878 2.52504C3.87699 1.75683 4.60775 1.27964 5.63382 0.882694C6.40738 0.580973 7.5704 0.224686 9.71133 0.127322C12.0267 0.0213986 12.7221 0 18.5832 0C24.4464 0 25.1397 0.0235385 27.4562 0.127322C29.5971 0.224686 30.758 0.583113 31.5337 0.882694C32.5587 1.27964 33.2894 1.75683 34.0587 2.52504C34.828 3.29325 35.302 4.02508 35.701 5.05008C36.0028 5.82364 36.3591 6.98666 36.4564 9.12759C36.5623 11.444 36.5837 12.1373 36.5837 18.0005C36.5837 23.8616 36.5623 24.5571 36.4564 26.8735C36.3591 29.0144 36.0006 30.1774 35.701 30.951C35.302 31.976 34.8269 32.7067 34.0587 33.475C33.2905 34.2432 32.5587 34.7182 31.5337 35.1173C30.7601 35.419 29.5971 35.7753 27.4562 35.8727C25.1419 35.9786 24.4464 36 18.5832 36C12.7221 36 12.0267 35.9797 9.7124 35.8727Z" fill="url(#paint0_radial_1_874)"/>
<path d="M9.7124 35.8727C7.57147 35.7753 6.40845 35.419 5.63489 35.1173C4.60989 34.7182 3.87913 34.2432 3.10985 33.475C2.34057 32.7067 1.86445 31.976 1.4675 30.951C1.16578 30.1774 0.809496 29.0144 0.712132 26.8735C0.605139 24.5592 0.58374 23.8648 0.58374 18.0016C0.58374 12.1384 0.607279 11.4451 0.711062 9.12866C0.808426 6.98773 1.16685 5.82685 1.46643 5.05115C1.86552 4.02615 2.34164 3.29539 3.10878 2.52504C3.87699 1.75683 4.60775 1.27964 5.63382 0.882694C6.40738 0.580973 7.5704 0.224686 9.71133 0.127322C12.0267 0.0213986 12.7221 0 18.5832 0C24.4464 0 25.1397 0.0235385 27.4562 0.127322C29.5971 0.224686 30.758 0.583113 31.5337 0.882694C32.5587 1.27964 33.2894 1.75683 34.0587 2.52504C34.828 3.29325 35.302 4.02508 35.701 5.05008C36.0028 5.82364 36.3591 6.98666 36.4564 9.12759C36.5623 11.444 36.5837 12.1373 36.5837 18.0005C36.5837 23.8616 36.5623 24.5571 36.4564 26.8735C36.3591 29.0144 36.0006 30.1774 35.701 30.951C35.302 31.976 34.8269 32.7067 34.0587 33.475C33.2905 34.2432 32.5587 34.7182 31.5337 35.1173C30.7601 35.419 29.5971 35.7753 27.4562 35.8727C25.1419 35.9786 24.4464 36 18.5832 36C12.7221 36 12.0267 35.9797 9.7124 35.8727Z" fill="url(#paint1_radial_1_874)"/>
<path d="M14.1636 18.0772C14.1636 15.6151 16.1589 13.6187 18.6209 13.6187C21.0829 13.6187 23.0793 15.6151 23.0793 18.0772C23.0793 20.5392 21.0829 22.5356 18.6209 22.5356C16.1589 22.5356 14.1636 20.5392 14.1636 18.0772ZM11.7534 18.0772C11.7534 21.8701 14.828 24.9446 18.6209 24.9446C22.4138 24.9446 25.4884 21.8701 25.4884 18.0772C25.4884 14.2842 22.4138 11.2097 18.6209 11.2097C14.828 11.2097 11.7535 14.284 11.7535 18.0772H11.7534ZM24.1554 10.9374C24.1553 11.2548 24.2493 11.5651 24.4256 11.8291C24.6018 12.0931 24.8524 12.2989 25.1456 12.4205C25.4388 12.5421 25.7615 12.574 26.0728 12.5122C26.3842 12.4504 26.6702 12.2977 26.8947 12.0733C27.1193 11.849 27.2722 11.5631 27.3343 11.2518C27.3963 10.9405 27.3647 10.6178 27.2433 10.3245C27.122 10.0312 26.9164 9.78042 26.6525 9.60396C26.3886 9.42751 26.0784 9.33326 25.761 9.33313H25.7603C25.3349 9.33333 24.9269 9.50239 24.6259 9.80319C24.325 10.104 24.1558 10.5119 24.1554 10.9374ZM13.2177 28.9635C11.9138 28.9041 11.2051 28.6869 10.7341 28.5034C10.1097 28.2603 9.66416 27.9708 9.19575 27.503C8.72733 27.0353 8.43738 26.5902 8.19536 25.9658C8.01176 25.495 7.79456 24.7861 7.73529 23.4821C7.67045 22.0724 7.65751 21.6489 7.65751 18.0774C7.65751 14.5058 7.67152 14.0835 7.73529 12.6726C7.79467 11.3687 8.01347 10.6611 8.19536 10.189C8.43845 9.56456 8.72797 9.11904 9.19575 8.65062C9.66352 8.18221 10.1086 7.89226 10.7341 7.65024C11.2049 7.46664 11.9138 7.24944 13.2177 7.19017C14.6275 7.12533 15.051 7.11238 18.6209 7.11238C22.1908 7.11238 22.6147 7.12618 24.0257 7.19038C25.3296 7.24976 26.0371 7.46856 26.5093 7.65045C27.1337 7.89247 27.5792 8.18306 28.0476 8.65084C28.5161 9.11861 28.8049 9.56477 29.048 10.1892C29.2316 10.66 29.4488 11.3689 29.5081 12.6728C29.5729 14.0837 29.5859 14.506 29.5859 18.0776C29.5859 21.6491 29.5729 22.0714 29.5081 23.4823C29.4487 24.7863 29.2304 25.495 29.048 25.966C28.8049 26.5904 28.5154 27.0359 28.0476 27.5033C27.5799 27.9706 27.1337 28.2606 26.5093 28.5036C26.0385 28.6872 25.3296 28.9044 24.0257 28.9637C22.6159 29.0285 22.1924 29.0415 18.6209 29.0415C15.0493 29.0415 14.627 29.0285 13.2177 28.9637V28.9635ZM13.107 4.784C11.6832 4.84883 10.7103 5.07459 9.86071 5.4052C8.98133 5.74661 8.23591 6.20465 7.49156 6.94783C6.74721 7.691 6.29035 8.43653 5.94893 9.31698C5.61832 10.1671 5.39257 11.1395 5.32773 12.5633C5.26182 13.9893 5.24673 14.4452 5.24673 18.0772C5.24673 21.7091 5.26182 22.165 5.32773 23.591C5.39257 25.0149 5.61832 25.9872 5.94893 26.8373C6.29035 27.7167 6.74731 28.4636 7.49156 29.2065C8.2358 29.9493 8.98026 30.4067 9.86071 30.7491C10.7119 31.0797 11.6832 31.3055 13.107 31.3703C14.5337 31.4351 14.9889 31.4513 18.6209 31.4513C22.2529 31.4513 22.7088 31.4362 24.1348 31.3703C25.5587 31.3055 26.5309 31.0797 27.3811 30.7491C28.2604 30.4067 29.0059 29.9497 29.7502 29.2065C30.4946 28.4633 30.9505 27.7167 31.2928 26.8373C31.6235 25.9872 31.8503 25.0148 31.9141 23.591C31.9789 22.164 31.994 21.7091 31.994 18.0772C31.994 14.4452 31.9789 13.9893 31.9141 12.5633C31.8492 11.1394 31.6235 10.1666 31.2928 9.31698C30.9505 8.4376 30.4934 7.69218 29.7502 6.94783C29.007 6.20348 28.2604 5.74661 27.3821 5.4052C26.5309 5.07459 25.5585 4.84776 24.1359 4.784C22.7096 4.71884 22.254 4.703 18.6225 4.703C14.991 4.703 14.5343 4.71809 13.1075 4.784" fill="white"/>
<defs>
<radialGradient id="paint0_radial_1_874" cx="0" cy="0" r="1" gradientUnits="userSpaceOnUse" gradientTransform="translate(2.91362 35.2114) scale(45.7066)">
<stop offset="0.09" stop-color="#FA8F21"/>
<stop offset="0.78" stop-color="#D82D7E"/>
</radialGradient>
<radialGradient id="paint1_radial_1_874" cx="0" cy="0" r="1" gradientUnits="userSpaceOnUse" gradientTransform="translate(25.5197 34.0554) scale(40.2223)">
<stop offset="0.64" stop-color="#8C3AAA" stop-opacity="0"/>
<stop offset="1" stop-color="#8C3AAA"/>
</radialGradient>
</defs>
</svg>
