<svg width="151" height="79" viewBox="0 0 151 79" fill="none" xmlns="http://www.w3.org/2000/svg">
<g clip-path="url(#clip0_1_45)">
<path d="M10.6171 13.7939C10.4704 13.9138 10.3301 14.0414 10.1968 14.176C10.1806 14.1823 10.1662 14.1924 10.1547 14.2054C10.0385 14.3579 9.96199 14.5367 9.93197 14.726C9.87266 15.0174 9.85007 15.3151 9.86472 15.612C9.89858 16.2432 10.0408 16.8639 10.285 17.447C10.5215 17.8593 10.8034 18.2438 11.1256 18.5933C11.1658 18.6398 11.2094 18.6833 11.2559 18.7235C11.648 19.0428 12.1129 19.2605 12.6093 19.3575C12.7649 19.3575 13.0801 19.3323 13.5424 19.2987C14.0941 19.1508 14.6036 18.8761 15.0303 18.4967C15.0581 18.4775 15.0836 18.4549 15.106 18.4296C15.2566 18.2512 15.3721 18.0461 15.4464 17.8249C15.5634 17.5316 15.6575 17.2298 15.728 16.9221C15.8796 16.4093 15.8884 15.8649 15.7532 15.3475C15.5669 14.8367 15.2425 14.3876 14.816 14.05C14.3733 13.7076 13.8678 13.4551 13.3281 13.3068C12.9414 13.3068 12.5085 13.2816 12.0167 13.2858C11.8403 13.2948 11.6648 13.3158 11.4913 13.3488C11.329 13.3902 11.1713 13.4479 11.0206 13.5209C10.8651 13.6175 10.7222 13.7099 10.6003 13.7939H10.6171ZM9.59152 13.9912C9.65082 13.9049 9.71687 13.8235 9.78907 13.7477L10.016 13.4873C10.3185 13.112 10.7003 12.808 11.1341 12.5971C11.3537 12.5292 11.5811 12.4897 11.8108 12.4796C12.0747 12.4377 12.3424 12.4236 12.6093 12.4376C13.2944 12.4941 13.958 12.7036 14.5512 13.0506C14.8132 13.2072 15.0595 13.3886 15.2867 13.5923L15.3624 13.6595C15.6153 13.8755 15.8462 14.116 16.0517 14.3775C16.5037 15.0162 16.6947 15.8032 16.5855 16.5778C16.5404 16.9498 16.4457 17.3142 16.3038 17.6611C16.1418 18.1086 15.9059 18.5259 15.6061 18.8956C15.3306 19.1887 14.9932 19.4167 14.6184 19.5633C14.1565 19.7686 13.6686 19.9099 13.1683 19.9832C12.7523 20.0678 12.3235 20.0678 11.9074 19.9832C11.6031 19.8816 11.3187 19.7282 11.0668 19.5297C10.9533 19.4415 10.8482 19.3533 10.7558 19.2736C10.582 19.1308 10.4279 18.9656 10.2976 18.7823C9.91323 18.2735 9.63976 17.6899 9.49485 17.0691C9.43601 16.8171 9.40238 16.6492 9.38137 16.5484C9.36035 16.4476 9.34774 16.2125 9.31832 15.8514C9.29731 15.5784 9.2889 15.3895 9.2931 15.2803C9.29798 15.1535 9.31917 15.0279 9.35615 14.9066L9.53268 14.3313C9.55121 14.2166 9.57647 14.103 9.60834 13.9912H9.59152ZM8.09523 23.1366C7.97191 23.2995 7.86226 23.4722 7.76738 23.6531C7.70932 23.7628 7.66284 23.8782 7.62868 23.9974C7.59413 24.1166 7.54767 24.2319 7.48998 24.3417C7.46476 24.4299 7.42694 24.5433 7.38911 24.6903C7.33026 24.9254 7.29664 25.0556 7.29244 25.0808C7.28789 25.1007 7.28902 25.1215 7.29571 25.1408C7.3024 25.1601 7.31437 25.1771 7.33026 25.1899C7.3723 25.2193 7.50679 25.2949 7.72956 25.4167C7.9625 25.5398 8.18589 25.6802 8.39785 25.8366C8.53235 25.9458 8.69627 26.0717 8.8854 26.2019L9.30571 26.4874C9.39023 26.5479 9.47869 26.6026 9.57051 26.6512C9.65877 26.6974 9.71341 26.7058 9.72602 26.6806C9.76773 26.5231 9.82401 26.3699 9.89415 26.2229C9.97419 26.0177 10.0347 25.8054 10.0749 25.5889C10.0891 25.5243 10.1088 25.4611 10.1337 25.3999C10.1337 25.3327 10.1673 25.2655 10.1842 25.2067C10.2344 25.0851 10.2765 24.9602 10.3103 24.833C10.3807 24.6101 10.4368 24.3829 10.4784 24.1528C10.4784 23.313 10.285 22.6999 9.88574 22.3514C9.75682 22.2846 9.61504 22.2463 9.47 22.2391C9.32497 22.2318 9.18006 22.2558 9.04512 22.3094C8.65125 22.4816 8.31971 22.7703 8.09523 23.1366ZM4.95972 22.8385C4.80434 23.0481 4.66389 23.2684 4.53942 23.4977L4.42173 23.8001C4.46284 23.8303 4.50643 23.857 4.55203 23.8799H4.58145L4.73696 23.9596C5.0564 24.0856 5.4725 24.2788 5.99789 24.5307L6.5653 24.8078C6.5896 24.7235 6.61907 24.6408 6.65357 24.5601C6.72922 24.3292 6.78386 24.1654 6.81328 24.0688C6.84271 23.9722 6.85952 23.8589 6.86793 23.7875C6.87633 23.7161 6.95619 23.5229 7.01924 23.3676C7.27508 22.7762 7.30646 22.1119 7.1075 21.499C7.0492 21.3418 6.93965 21.2087 6.79647 21.1211C6.77289 21.1164 6.7486 21.1164 6.72502 21.1211C6.64021 21.104 6.55248 21.1081 6.46962 21.133C6.38677 21.1579 6.31135 21.2029 6.25007 21.2639C5.73736 21.7154 5.30156 22.2472 4.95972 22.8385ZM3.88794 23.439C3.92997 23.334 3.99722 23.1996 4.08128 23.0191C4.16534 22.8385 4.21158 22.7587 4.29143 22.5992C4.49318 22.238 4.66131 21.9581 4.7958 21.7594C5.35622 20.9755 5.85218 20.5151 6.2837 20.3779C6.44482 20.3167 6.6209 20.3064 6.78807 20.3485C6.98242 20.4255 7.16384 20.5317 7.32606 20.6634C7.49758 20.8261 7.63498 21.0213 7.73023 21.2376C7.82548 21.4538 7.87669 21.6869 7.88087 21.9231C7.89993 22.0383 7.90977 22.1549 7.91029 22.2716C7.91029 22.3136 7.91029 22.3388 7.93131 22.3514C7.95232 22.364 7.96913 22.3514 7.98595 22.301C8.0844 22.1889 8.19587 22.0888 8.31799 22.0029C8.46566 21.8875 8.62004 21.7809 8.78033 21.6838C9.06008 21.5399 9.37462 21.4774 9.68819 21.5032C10.0313 21.5561 10.3482 21.7181 10.5919 21.9651C10.8236 22.2727 10.9974 22.6199 11.1046 22.9897C11.2267 23.3506 11.285 23.7299 11.277 24.1108C11.1995 24.5077 11.0913 24.898 10.9533 25.2781C10.8903 25.4797 10.8188 25.698 10.7348 25.908C10.6562 26.1758 10.5636 26.4393 10.4574 26.6974C10.3953 26.8746 10.3237 27.0485 10.243 27.2181C10.2321 27.2441 10.2195 27.2693 10.2052 27.2936L10.0917 27.4658C10.058 27.5262 10.0023 27.5713 9.93618 27.5918C9.87117 27.6067 9.80363 27.6067 9.73863 27.5918L9.66718 27.5498C9.56631 27.4994 9.40238 27.4028 9.17542 27.2726C8.97233 27.1601 8.77713 27.0338 8.59119 26.8947C8.49312 26.8108 8.0602 26.5308 7.29244 26.0549L6.87213 25.782L6.51487 25.5763C6.27374 25.436 6.02541 25.3084 5.77092 25.1941C5.17805 24.8558 4.53969 24.6041 3.87533 24.4467C3.83239 24.4497 3.79001 24.4581 3.74924 24.4719C3.72469 24.4311 3.70224 24.3891 3.68199 24.3459C3.71383 24.0364 3.78298 23.7319 3.88794 23.439ZM0.798672 33.5166C0.788545 33.4001 0.80286 33.2828 0.840702 33.1722C0.899546 32.9791 0.945779 32.8447 0.979404 32.7523C1.01303 32.66 1.03825 32.513 1.10129 32.2359C1.16434 31.9587 1.28203 31.2659 1.5216 30.1364C1.60987 29.7543 1.68552 29.4351 1.74437 29.1706C1.79787 28.8947 1.86948 28.6225 1.95872 28.356C1.97637 28.332 2.00007 28.3132 2.02739 28.3014C2.05471 28.2896 2.08468 28.2852 2.11424 28.2888C2.1823 28.2862 2.24869 28.3103 2.29917 28.356C2.44208 28.4274 2.4715 28.5575 2.39584 28.7549C2.32019 28.9522 2.32859 29.2882 2.29497 29.5947C2.27952 29.9377 2.22882 30.2782 2.14366 30.6109C2.05119 30.9594 1.94611 31.3667 1.82843 31.8286C1.71074 32.2905 1.62248 32.6684 1.55102 32.9203L1.74437 32.9665C2.00442 32.969 2.26408 32.9873 2.52194 33.0211C2.80775 33.0547 3.16501 33.0799 3.59372 33.1009C3.7611 33.1501 3.93912 33.1501 4.1065 33.1009C4.1065 33.1345 4.1065 33.1261 4.1065 33.0673C4.09426 32.764 4.13697 32.461 4.23259 32.1729C4.43526 31.5693 4.58021 30.9478 4.66551 30.3169C4.76218 29.5275 4.85465 29.1034 4.94712 29.0572C5.02279 29.0277 5.10681 29.0277 5.18249 29.0572C5.27157 29.0841 5.34684 29.1443 5.39264 29.2252C5.42704 29.2635 5.45667 29.3058 5.48091 29.3512C5.48297 29.3679 5.48297 29.3848 5.48091 29.4015C5.48091 29.4015 5.48091 29.6115 5.42627 30.0398C5.40124 30.4203 5.33787 30.7973 5.23713 31.1651C5.14619 31.5035 5.03817 31.837 4.91349 32.1645C4.83249 32.365 4.77194 32.5732 4.73276 32.7859C4.73276 32.8741 4.68652 33.0085 4.6571 33.1806L5.29597 33.3276C5.78773 33.4494 6.21224 33.5627 6.5569 33.6719L7.17895 33.8987L7.43534 33.9826C7.43534 33.9449 7.41433 33.8903 7.40172 33.8063C7.38911 33.7223 7.40172 33.4956 7.3807 33.2352C7.3807 33.2352 7.3807 33.1093 7.32606 32.8573C7.32595 32.7158 7.34289 32.5749 7.3765 32.4374C7.42598 32.2109 7.45552 31.9805 7.46476 31.7488C7.50864 31.3185 7.60606 30.8953 7.75478 30.4891C7.84374 30.3574 7.91841 30.2167 7.97754 30.0692C8.0633 29.8909 8.19179 29.7366 8.35161 29.6199C8.38704 29.5925 8.42761 29.5724 8.47091 29.5609C8.51422 29.5493 8.5594 29.5465 8.6038 29.5527C8.63196 29.5583 8.65809 29.5713 8.67945 29.5905C8.77612 29.6703 8.79714 29.8004 8.72989 29.981C8.64869 30.1994 8.58544 30.4241 8.54075 30.6528C8.45627 30.944 8.3889 31.2398 8.339 31.5388C8.25074 32.1099 8.1961 32.6222 8.17088 33.0715C8.13305 33.4158 8.08682 33.7433 8.04058 34.0456C7.99976 34.253 7.98144 34.4642 7.98595 34.6755C7.9897 34.7034 7.9897 34.7316 7.98595 34.7595C7.97281 34.7961 7.95591 34.8313 7.93551 34.8644C7.91231 34.8959 7.88062 34.9201 7.84414 34.9342C7.80767 34.9484 7.76793 34.9518 7.72956 34.9442C7.6354 34.9402 7.54461 34.908 7.46897 34.8518C7.19928 34.725 6.9177 34.6252 6.62835 34.5537L5.50613 34.201C4.69789 33.99 3.86936 33.8661 3.03471 33.8315C2.75266 33.8089 2.47204 33.7711 2.1941 33.7181C1.90742 33.6687 1.61845 33.6337 1.32826 33.6131C1.18726 33.6141 1.0465 33.6015 0.907952 33.5753C0.868273 33.5692 0.830734 33.5533 0.798672 33.5292V33.5166ZM0.10096 42.8719C0.0379134 42.8425 0.00428875 42.7418 8.5663e-05 42.5738C-0.00411742 42.4058 0.0211011 42.3051 0.0715381 42.2757C0.642755 42.2189 1.21657 42.1923 1.7906 42.1959L3.34574 42.1539L3.39618 41.8894C3.4335 41.1721 3.411 40.453 3.32893 39.7395C3.27429 39.3196 3.24066 39.0298 3.22805 38.8997C3.22481 38.772 3.20647 38.6451 3.17341 38.5218C2.77468 38.3974 2.3628 38.3199 1.94611 38.2908C1.46917 38.2023 0.985343 38.156 0.500253 38.1523C0.447175 38.161 0.392692 38.1542 0.343439 38.1325C0.294186 38.1109 0.252289 38.0755 0.222849 38.0305C0.197256 37.9967 0.179147 37.958 0.169726 37.9167C0.160304 37.8754 0.159787 37.8326 0.168209 37.7911C0.193428 37.6568 0.315317 37.5728 0.529674 37.535C0.911881 37.49 1.29751 37.4816 1.68132 37.5098C2.12685 37.5098 2.41266 37.535 2.52194 37.556C2.66149 37.5736 2.80269 37.5736 2.94224 37.556C2.99688 37.556 3.08515 37.556 3.20704 37.5224C3.21113 37.4735 3.21113 37.4243 3.20704 37.3754C3.20633 37.3343 3.21851 37.294 3.24187 37.2601C3.26524 37.2262 3.29861 37.2005 3.33733 37.1865C3.3866 37.1714 3.43732 37.1616 3.48865 37.1571H3.55589C3.65261 37.1931 3.73813 37.254 3.80388 37.3335C3.80388 37.367 3.84591 37.4132 3.87533 37.4846H4.54362C4.80141 37.5014 5.07041 37.5098 5.35061 37.5098C5.55236 37.5098 5.81295 37.5098 6.13659 37.4762C6.79647 37.4216 7.21678 37.3922 7.39751 37.388C7.51922 37.3681 7.64404 37.3812 7.75898 37.4258C7.85496 37.4968 7.91972 37.6021 7.93971 37.7198C7.9556 37.7686 7.9641 37.8196 7.96493 37.8709C7.97061 37.9372 7.9511 38.0031 7.91029 38.0557C7.81259 38.1777 7.67058 38.2562 7.5152 38.274C7.18122 38.3439 6.84274 38.3902 6.50226 38.4126C5.24133 38.4924 4.5142 38.5512 4.29564 38.5848C4.25667 38.5784 4.21692 38.5784 4.17795 38.5848C4.16014 38.6023 4.1404 38.6178 4.11911 38.6309C4.11911 38.8829 4.11911 39.265 4.11911 39.7815C4.11911 40.3987 4.14012 40.7976 4.11911 40.9782C4.11758 41.1572 4.09928 41.3358 4.06447 41.5115C4.00108 41.6428 3.96532 41.7857 3.95939 41.9314C3.95939 41.9943 3.95939 42.0867 3.92997 42.2085L4.90929 42.1749C5.72048 42.1749 6.36356 42.1749 6.84691 42.1329L7.6539 42.0825L7.71274 42.1707C7.7899 42.3483 7.80326 42.5471 7.75057 42.7334C7.72115 42.7796 7.59086 42.8299 7.36389 42.8803C7.16099 42.9365 6.95223 42.9689 6.74183 42.9769C6.57831 42.9798 6.41584 43.0038 6.25848 43.0483C6.06424 43.0826 5.8673 43.0995 5.67005 43.0987H5.29177C4.74537 43.0987 4.37129 43.0987 4.17375 43.0693C3.47884 43.0189 2.37062 42.9699 0.849109 42.9223C0.598593 42.9398 0.346854 42.9229 0.10096 42.8719ZM4.34187 56.5187C4.38766 56.7027 4.44522 56.8837 4.5142 57.0603C4.50988 57.0754 4.50988 57.0914 4.5142 57.1065C4.60398 57.2753 4.73387 57.4195 4.89248 57.5264C5.13406 57.6967 5.39509 57.8377 5.67005 57.9463C6.25459 58.1838 6.8762 58.3174 7.50679 58.341C7.98282 58.2978 8.45238 58.2006 8.90642 58.0513C8.96654 58.0341 9.0255 58.013 9.08295 57.9883C9.5404 57.7601 9.93558 57.4243 10.2346 57.01C10.2934 56.8672 10.4069 56.5901 10.5708 56.1366C10.6662 55.5761 10.6302 55.0012 10.4658 54.457C10.4597 54.4219 10.4483 54.3879 10.4321 54.3562C10.3269 54.1462 10.1845 53.957 10.0118 53.7977C9.79262 53.5706 9.5581 53.3588 9.30992 53.1637C8.91091 52.8194 8.42817 52.5863 7.91029 52.4876C7.36941 52.4434 6.82682 52.5495 6.34254 52.7942C5.84532 53.0545 5.40294 53.408 5.03958 53.8355C4.86726 54.1756 4.67812 54.5703 4.47217 55.0154C4.40672 55.1797 4.35196 55.348 4.30825 55.5193C4.27873 55.6828 4.26606 55.8488 4.27042 56.0148C4.29564 56.2038 4.31665 56.3717 4.34187 56.5187ZM4.09809 57.5264C4.04401 57.4382 3.99761 57.3455 3.95939 57.2493L3.81649 56.9344C3.59812 56.5054 3.47619 56.0339 3.45922 55.5529C3.49242 55.3253 3.5531 55.1025 3.63996 54.8895C3.71498 54.6394 3.81496 54.3974 3.93837 54.1672C4.27718 53.5692 4.74529 53.0542 5.30858 52.6598C5.56257 52.4953 5.83133 52.3547 6.11137 52.2399L6.20384 52.1979C6.50613 52.0591 6.82152 51.9508 7.14533 51.8746C7.91295 51.7273 8.70792 51.8774 9.36876 52.2945C9.68777 52.4914 9.97896 52.73 10.2346 53.0041C10.5669 53.3347 10.8424 53.7178 11.05 54.1378C11.2038 54.5098 11.27 54.912 11.2433 55.3136C11.2393 55.8184 11.1643 56.3202 11.0206 56.8042C10.9274 57.2152 10.7531 57.6035 10.5078 57.9463C10.2906 58.1757 10.0345 58.3648 9.75124 58.5048C9.62094 58.572 9.49905 58.635 9.38557 58.6812C9.1826 58.7794 8.96791 58.8514 8.7467 58.8953C8.12282 59.024 7.4792 59.024 6.85532 58.8953L6.30471 58.7861L5.64483 58.5552C5.38844 58.4586 5.22452 58.383 5.11524 58.3368C5.00343 58.278 4.89902 58.2061 4.80421 58.1227C4.58985 57.9337 4.43854 57.7994 4.35448 57.7028C4.26577 57.6489 4.18017 57.59 4.09809 57.5264ZM11.1677 66.3443C11.3231 66.505 11.4638 66.6792 11.588 66.865C11.6167 66.9045 11.6584 66.9327 11.7057 66.9448C11.8871 66.617 12.1151 66.3172 12.3824 66.0546C12.6261 65.8321 13.0591 65.4709 13.6853 64.9755L14.2569 64.5262C14.1939 64.4674 14.0804 64.3456 13.9165 64.1651C13.548 63.7853 13.1226 63.4652 12.6556 63.2161C12.2239 62.9827 11.7631 62.8076 11.2854 62.6954C10.5919 62.5778 10.1631 62.5862 9.99922 62.7248L9.974 62.75C9.82236 63.0102 9.71579 63.2941 9.65877 63.5898C9.65877 64.1525 9.98661 64.8495 10.6339 65.6095C10.7684 65.8111 10.9491 66.0546 11.1677 66.3443ZM11.588 67.7048C11.5411 67.7045 11.495 67.693 11.4535 67.6712C11.4493 67.665 11.4471 67.6577 11.4471 67.6502C11.4471 67.6427 11.4493 67.6354 11.4535 67.6292C11.4617 67.6266 11.4705 67.6266 11.4787 67.6292C11.4787 67.6292 11.4787 67.6082 11.4451 67.5704C11.4115 67.5326 11.3652 67.4529 11.3022 67.3731L11.0374 67.0666L10.6171 66.5795C10.234 66.1476 9.87346 65.6963 9.53688 65.2274C9.09912 64.5988 8.92142 63.8255 9.04092 63.0691C9.09665 62.7843 9.21908 62.5166 9.39818 62.2881C9.43459 62.2333 9.47844 62.1839 9.52848 62.1411C9.60355 62.0799 9.68369 62.0251 9.76805 61.9774C10.1531 61.8118 10.574 61.7467 10.9911 61.7884C11.2759 61.8142 11.5574 61.8677 11.8318 61.948C12.1568 62.0704 12.4648 62.2341 12.748 62.4351C12.9624 62.582 13.2314 62.7878 13.5508 63.0481C13.8309 63.2745 14.0949 63.52 14.341 63.7829L14.6983 64.1609L15.0261 63.9047C15.2531 63.7326 15.4464 63.552 15.6692 63.363C16.0242 63.0191 16.4065 62.7046 16.8124 62.4225C16.8797 62.3847 16.9217 62.3763 16.9427 62.4225C16.973 62.4571 17.0148 62.4795 17.0604 62.4855C17.1023 62.5039 17.1459 62.518 17.1907 62.5274C17.2238 62.5338 17.2536 62.5517 17.2748 62.5778C17.2946 62.6009 17.309 62.6282 17.3168 62.6576C17.333 62.7494 17.3182 62.8439 17.2748 62.9263C17.2189 63.0363 17.1482 63.138 17.0646 63.2287C16.7025 63.6104 16.3119 63.9642 15.8961 64.2868C15.3203 64.7655 14.7277 65.2148 14.114 65.6473C13.4922 66.0758 12.9123 66.5623 12.3824 67.1002C12.1638 67.3479 12.0377 67.4991 12.0083 67.5452C11.9923 67.5664 11.9836 67.5922 11.9836 67.6187C11.9836 67.6453 11.9923 67.6711 12.0083 67.6922C12.0189 67.7017 12.0274 67.7134 12.0332 67.7264C12.039 67.7394 12.042 67.7535 12.0419 67.7678C12.0346 67.805 12.0154 67.8389 11.9873 67.8644C11.9648 67.8874 11.9352 67.9022 11.9032 67.9064C11.9032 67.9064 11.8486 67.9064 11.7939 67.8518C11.7416 67.7848 11.6671 67.7386 11.5838 67.7216L11.588 67.7048ZM23.9871 72.815C24.2981 72.2481 24.4957 71.887 24.5839 71.7358C24.7138 71.5113 24.8317 71.2801 24.937 71.043C25.0445 70.8264 25.171 70.6199 25.3153 70.4258L25.6683 69.9219C25.8743 69.6531 25.9878 69.502 26.0004 69.502C26.013 69.502 26.1475 69.418 26.3072 69.4642C26.3823 69.4815 26.4496 69.5229 26.4989 69.582C26.5483 69.6412 26.5769 69.7148 26.5804 69.7917C26.5741 69.8828 26.5497 69.9716 26.5086 70.0531C26.4674 70.1346 26.4104 70.2071 26.3408 70.2662C26.1435 70.5894 25.9693 70.9262 25.8196 71.274C25.6767 71.5805 25.5885 71.7652 25.5548 71.8156C25.5212 71.866 25.1345 72.5379 24.4494 73.638C23.7643 74.7381 23.3945 75.3974 23.2473 75.6871C23.1611 75.8994 23.0291 76.0901 22.8607 76.2456C22.7887 76.2783 22.7077 76.2853 22.6311 76.2654C22.5546 76.2456 22.4872 76.2 22.4403 76.1364C22.3227 76.0062 22.289 75.9055 22.3395 75.8425C22.3899 75.7795 22.5538 75.4814 22.8354 74.9397C23.117 74.398 23.3104 74.0159 23.4155 73.8228C23.5205 73.6296 23.6256 73.4448 23.7265 73.2517C23.6209 73.1972 23.5185 73.137 23.4197 73.0711L23.2684 72.9704C23.0281 72.8145 22.7992 72.6419 22.5833 72.4539L22.3311 72.2061C21.9532 72.5207 21.5276 72.773 21.0701 72.9536C20.8306 73.0417 20.6498 73.1089 20.57 73.1383C20.4901 73.1677 20.2421 73.2223 19.8891 73.3021C19.7035 73.3479 19.5155 73.3829 19.3259 73.4071C19.2017 73.4235 19.0759 73.4235 18.9518 73.4071C18.7513 73.3871 18.5521 73.3562 18.355 73.3147C18.1532 73.2853 18.0397 73.2727 18.0103 73.2727C17.9159 73.228 17.8258 73.1745 17.7413 73.1131L17.4513 72.9284C17.0321 72.6891 16.6705 72.3609 16.3921 71.9668C16.3036 71.7548 16.2333 71.5357 16.182 71.3118C16.1062 71.0588 16.0583 70.7983 16.0391 70.5349C16.0127 69.8507 16.1242 69.1682 16.3669 68.5278C16.4804 68.2474 16.6212 67.9787 16.7872 67.7258L16.8418 67.6376C17.0201 67.3564 17.2256 67.0934 17.4555 66.8524C18.0184 66.3076 18.7733 66.006 19.557 66.0126C19.9307 66.003 20.304 66.044 20.6666 66.1344C21.1266 66.2333 21.5679 66.4048 21.9738 66.6425C22.2999 66.8774 22.5734 67.1777 22.7766 67.5243C23.0469 67.9513 23.2576 68.4133 23.4029 68.8973C23.5484 69.3007 23.6126 69.7288 23.592 70.157C23.5359 70.4693 23.4219 70.7684 23.2557 71.0388C23.1843 71.1648 23.1128 71.2824 23.0498 71.3831C22.9404 71.5578 22.8137 71.721 22.6715 71.8702C22.7682 71.9584 22.8649 72.0508 22.9573 72.1474C23.1339 72.3188 23.3283 72.4709 23.5374 72.6008C23.6694 72.7061 23.8207 72.7846 23.9829 72.8318L23.9871 72.815ZM17.6825 72.2859C17.8151 72.416 17.9555 72.538 18.1028 72.6512C18.1117 72.6645 18.1232 72.6759 18.1364 72.6848C18.3063 72.7752 18.4946 72.8254 18.687 72.8318C18.9841 72.8475 19.282 72.8263 19.5738 72.7688C20.1942 72.6511 20.7889 72.4251 21.3307 72.1012C21.7059 71.8067 22.0458 71.47 22.3437 71.0976C22.3815 71.0472 22.4193 71.001 22.453 70.9506C22.7113 70.5101 22.8558 70.0122 22.8733 69.502C22.848 69.3466 22.7808 69.0443 22.6799 68.5866C22.4549 68.0628 22.111 67.5984 21.6754 67.2303C21.652 67.2055 21.6251 67.1843 21.5955 67.1673C21.3968 67.0449 21.1775 66.9596 20.9483 66.9154C20.6413 66.8434 20.3294 66.7943 20.0152 66.7684C19.4853 66.6923 18.9447 66.762 18.4516 66.97C17.9713 67.2244 17.5723 67.6085 17.3 68.0785C17.0354 68.5753 16.8698 69.1186 16.8124 69.6783C16.8545 70.0563 16.9091 70.4929 16.9805 70.9758C17.017 71.1491 17.0633 71.3201 17.1192 71.4881C17.1856 71.6353 17.2659 71.7759 17.3588 71.908C17.4555 72.0676 17.5648 72.1935 17.653 72.3027L17.6825 72.2859ZM32.8136 71.8366C33.0229 71.9054 33.2382 71.9546 33.4566 71.9836C33.5039 71.9935 33.5467 72.0186 33.5785 72.055C33.3536 72.3639 33.1739 72.7032 33.0447 73.0627C32.9481 73.3777 32.8052 73.9025 32.6244 74.7045C32.5908 74.8613 32.5362 75.0964 32.4605 75.41C32.3806 75.3806 32.2251 75.326 31.9898 75.2504C31.4913 75.0844 31.0229 74.8391 30.6027 74.524C30.207 74.2356 29.8534 73.8936 29.552 73.5078C29.1317 72.9284 28.9761 72.5379 29.035 72.3279V72.2985C29.2081 72.047 29.4244 71.8281 29.6739 71.6519C30.1866 71.4167 30.9348 71.4209 31.9183 71.6771C32.1327 71.7275 32.4311 71.803 32.7841 71.8534L32.8136 71.8366ZM31.6745 78.2275C31.6745 78.2275 31.4728 78.1687 31.0693 78.0302C30.4766 77.8244 30.0059 77.669 29.6655 77.5725L28.3415 77.182L27.98 77.2239H27.9422C27.6648 77.1442 27.5219 77.2239 27.4672 77.4717C27.4672 77.6019 27.4672 77.6816 27.5261 77.7152C27.5775 77.7391 27.6212 77.7769 27.6522 77.8244C27.6638 77.8354 27.6784 77.8428 27.6942 77.8454C27.8221 77.8684 27.953 77.8684 28.0809 77.8454C28.2314 77.8236 28.3829 77.8096 28.5348 77.8034C28.6392 77.8148 28.7421 77.8373 28.8416 77.8706L30.3169 78.492C30.7365 78.6779 31.1709 78.8282 31.6157 78.9413C31.75 78.9911 31.8928 79.014 32.036 79.0085C32.1171 78.9799 32.1876 78.9272 32.2377 78.8574C32.3151 78.7601 32.3787 78.6527 32.4269 78.5382C32.6218 78.0488 32.7778 77.5447 32.8934 77.0308C33.0531 76.4135 33.2087 75.6829 33.3684 74.8431C33.4905 74.091 33.6905 73.3536 33.9652 72.6428C34.0997 72.3363 34.1838 72.16 34.2132 72.1138C34.2267 72.0912 34.2469 72.0733 34.271 72.0628C34.2951 72.0522 34.3219 72.0495 34.3477 72.055C34.3608 72.0613 34.3752 72.0646 34.3897 72.0646C34.4043 72.0646 34.4186 72.0613 34.4317 72.055C34.4603 72.0317 34.482 72.0013 34.4948 71.9668C34.5014 71.9515 34.5048 71.9351 34.5048 71.9185C34.5048 71.9019 34.5014 71.8855 34.4948 71.8702C34.4948 71.8702 34.4612 71.8282 34.3981 71.7946C34.3203 71.7703 34.2544 71.7179 34.2132 71.6477C34.1935 71.6044 34.1631 71.5669 34.1249 71.5385C34.1185 71.5348 34.1113 71.5329 34.1039 71.5329C34.0965 71.5329 34.0893 71.5348 34.0829 71.5385C34.0829 71.5385 34.0829 71.5385 34.0829 71.5721C34.0829 71.6057 34.0829 71.5721 34.0156 71.5721L33.7761 71.5259L33.3852 71.4167L32.7673 71.2404C32.2155 71.0682 31.6541 70.928 31.0861 70.8205C30.3308 70.6985 29.5572 70.8633 28.9173 71.2824C28.6885 71.4595 28.4995 71.6827 28.3625 71.9374C28.3291 71.9944 28.3023 72.055 28.2826 72.118C28.2575 72.2112 28.2434 72.307 28.2406 72.4035C28.2379 72.8246 28.3577 73.2374 28.5853 73.5918C28.7194 73.8512 28.88 74.096 29.0644 74.3224C29.3175 74.5627 29.6 74.7701 29.905 74.9397C30.132 75.0741 30.4304 75.2336 30.8045 75.41C31.0651 75.5317 31.3971 75.6661 31.8048 75.8299L32.2966 75.9936C32.2966 76.0608 32.2546 76.1994 32.2041 76.4135C32.1411 76.6907 32.0696 76.9594 31.9856 77.2239L31.6745 78.2275Z" fill="black"/>
<path d="M77.4924 27.5749C77.4642 27.3866 77.4249 27.2001 77.3747 27.0164C77.3778 27.0091 77.3794 27.0013 77.3794 26.9933C77.3794 26.9854 77.3778 26.9775 77.3747 26.9702C77.3017 26.7925 77.1862 26.6354 77.0384 26.5125C76.8162 26.3153 76.5706 26.146 76.3071 26.0087C75.7478 25.7147 75.1422 25.5187 74.5166 25.4292C74.0387 25.4281 73.5622 25.4802 73.0959 25.5846C73.0361 25.596 72.9772 25.6114 72.9194 25.6307C72.4339 25.8084 72.0005 26.1042 71.6585 26.4915C71.587 26.6301 71.4441 26.9114 71.2382 27.3313C71.0889 27.879 71.0673 28.4536 71.1751 29.0109C71.1786 29.0469 71.1871 29.0823 71.2003 29.1159C71.2781 29.3339 71.3949 29.5359 71.545 29.7122C71.7408 29.9596 71.9543 30.1926 72.1839 30.4092C72.5362 30.8232 73.013 31.1123 73.5432 31.2334C74.0735 31.3544 74.6287 31.301 75.126 31.0811C75.6441 30.869 76.1175 30.5613 76.5214 30.1741C76.7274 29.8507 76.9418 29.477 77.2023 29.0529C77.2826 28.896 77.3542 28.7348 77.4167 28.5701C77.46 28.4091 77.4895 28.2447 77.505 28.0788C77.505 27.894 77.505 27.726 77.4797 27.5749H77.4924ZM77.8202 26.6091C77.8663 26.7022 77.9043 26.7992 77.9337 26.8988C77.9631 26.987 77.9967 27.0962 78.043 27.2264C78.2176 27.6753 78.2936 28.1564 78.2657 28.6372C78.2086 28.8584 78.1268 29.0725 78.0219 29.2755C77.922 29.5203 77.7966 29.7539 77.6479 29.9725C77.2523 30.535 76.7351 31.0014 76.1348 31.3372C75.8663 31.482 75.5849 31.6015 75.2941 31.6941L75.1975 31.7277C74.8834 31.8346 74.5596 31.9105 74.2308 31.9544C73.4513 32.0208 72.6758 31.7881 72.062 31.3036C71.7638 31.0763 71.4967 30.8109 71.2676 30.5142C70.971 30.15 70.7354 29.7401 70.5699 29.3007C70.4557 28.9138 70.4298 28.5063 70.4942 28.1082C70.5498 27.6064 70.6742 27.1147 70.8641 26.6469C70.9994 26.2373 71.22 25.8609 71.5114 25.5426C71.7523 25.3367 72.0266 25.1734 72.3226 25.0597C72.4571 25.0065 72.5832 24.9603 72.7008 24.9211C72.9121 24.844 73.1325 24.7946 73.3565 24.7742C73.9893 24.6995 74.6308 24.7581 75.2395 24.9463L75.7481 25.1185C75.8447 25.1563 76.0549 25.257 76.3827 25.4124C76.6265 25.5342 76.8031 25.6223 76.8871 25.6811C76.9931 25.7505 77.0905 25.8323 77.1771 25.9247L77.5974 26.3698C77.6815 26.4438 77.7602 26.5238 77.8328 26.6091H77.8202ZM69.4729 18.8955C69.4014 18.9585 69.2963 19.0509 69.1534 19.1685C68.8984 19.3867 68.6288 19.5873 68.3464 19.7689C68.0174 19.9653 67.6746 20.1379 67.3209 20.2854L66.6568 20.5751C66.5725 20.6226 66.482 20.658 66.3878 20.6801C66.3797 20.683 66.3708 20.683 66.3626 20.6801C66.3325 20.6201 66.3099 20.5567 66.2953 20.4912C66.2695 20.4142 66.2595 20.3328 66.2659 20.2518C66.4865 20.0842 66.7197 19.934 66.9636 19.8025C67.7262 19.3494 68.4439 18.825 69.1072 18.2363C69.4014 17.9802 69.9016 17.5813 70.6203 17.0522L71.7257 16.2334L71.7846 16.1956C71.8215 16.1667 71.8645 16.1465 71.9103 16.1363C71.9561 16.1261 72.0036 16.1263 72.0494 16.1368C72.2027 16.1936 72.3367 16.2926 72.436 16.4223C72.7384 16.7653 72.9749 17.161 73.1338 17.5897C73.438 18.2553 73.7775 18.9043 74.1509 19.5338C74.2055 19.6238 74.2689 19.7082 74.34 19.7857C74.4553 19.884 74.5775 19.9738 74.7057 20.0545C74.8173 20.1213 74.9167 20.2065 74.9999 20.3064C75.0037 20.3202 75.0037 20.3347 74.9999 20.3484C75.0123 20.4022 75.0193 20.457 75.0209 20.5122C75.0188 20.5558 75.0076 20.5984 74.9881 20.6374C74.9685 20.6765 74.9411 20.711 74.9075 20.7389C74.867 20.7717 74.8194 20.7945 74.7686 20.8058C74.7177 20.817 74.6649 20.8163 74.6144 20.8037C74.5638 20.7911 74.5169 20.7669 74.4773 20.7331C74.4378 20.6992 74.4066 20.6567 74.3863 20.6087L74.3569 20.5835L74.0584 20.3778C73.9366 20.1846 73.6886 19.7941 73.3229 19.2063C72.9572 18.6184 72.5789 18.0138 72.2511 17.4301C72.0452 17.069 71.9401 16.8884 71.9275 16.8842C71.9149 16.88 71.8098 16.9388 71.7089 17.0396C71.608 17.1404 71.3475 17.3671 70.8683 17.7954L70.5993 18.018C70.5211 18.0933 70.4335 18.1582 70.3387 18.2111C70.2564 18.2553 70.1824 18.3136 70.1202 18.3833L69.9856 18.4924C69.8063 18.6158 69.6351 18.7505 69.4729 18.8955ZM67.2915 11.4675C67.1791 11.3208 67.0584 11.1806 66.93 11.0476L66.9048 11.0056C66.7565 10.8828 66.5805 10.7978 66.392 10.7579C66.1033 10.686 65.8069 10.6493 65.5094 10.6487C64.8777 10.6472 64.2505 10.7552 63.6558 10.9678C63.2317 11.188 62.8341 11.4557 62.4705 11.7656C62.4201 11.8034 62.3781 11.8454 62.3318 11.8874C61.993 12.2707 61.7522 12.7303 61.6299 13.2269C61.6299 13.3823 61.6299 13.6972 61.6299 14.1633C61.7529 14.7196 62.0032 15.2399 62.3613 15.6833C62.3792 15.7134 62.4019 15.7403 62.4285 15.7631C62.5999 15.9198 62.7977 16.0449 63.0127 16.1326C63.3023 16.26 63.5999 16.368 63.9038 16.4559C64.4102 16.6324 64.9552 16.6673 65.4799 16.5567C66.0041 16.3917 66.4714 16.0833 66.8291 15.6665C67.2022 15.2422 67.4879 14.7484 67.6698 14.2137C67.7034 13.8316 67.7328 13.3991 67.7538 12.9078C67.7545 12.7307 67.7418 12.5539 67.716 12.3787C67.6839 12.2153 67.6332 12.0561 67.5647 11.9042C67.4554 11.7572 67.3713 11.5977 67.2915 11.4675ZM67.1444 10.4556C67.2262 10.5186 67.3035 10.5873 67.3755 10.6613L67.6277 10.9007C67.9861 11.2173 68.2726 11.6067 68.4683 12.0428C68.5243 12.2652 68.5525 12.4937 68.5524 12.723C68.5788 12.9869 68.5788 13.2527 68.5524 13.5166C68.465 14.1968 68.2251 14.8484 67.8505 15.423C67.68 15.676 67.4858 15.9122 67.2705 16.1284L67.199 16.204C66.971 16.4455 66.7205 16.6649 66.4509 16.859C65.7869 17.272 64.9922 17.4218 64.2232 17.2789C63.854 17.215 63.4949 17.102 63.1556 16.943C62.7256 16.7582 62.3271 16.5074 61.9746 16.1998C61.698 15.9092 61.4898 15.5606 61.3651 15.1794C61.1832 14.7087 61.0645 14.2159 61.0121 13.714C60.9482 13.2943 60.9682 12.8662 61.0709 12.4543C61.1901 12.1611 61.3578 11.89 61.5669 11.6523C61.6593 11.5389 61.7518 11.4381 61.8359 11.3499C61.9894 11.19 62.1616 11.0491 62.3486 10.93C62.8757 10.57 63.473 10.3253 64.1013 10.212C64.3535 10.1658 64.5216 10.1406 64.6309 10.1238C64.7402 10.107 64.9672 10.1028 65.3286 10.0902C65.6018 10.0902 65.791 10.0902 65.9002 10.0902C66.025 10.1013 66.1479 10.1281 66.2659 10.17L66.8333 10.3758C66.9387 10.3952 67.0427 10.4218 67.1444 10.4556ZM56.5274 3.39704C56.5862 3.35505 56.6871 3.37184 56.8384 3.45162C56.9897 3.5314 57.0654 3.59859 57.0696 3.65737C57.0738 3.71616 56.8132 4.23264 56.3172 5.20261L55.6069 6.58408L55.8171 6.75624C56.4309 7.132 57.0747 7.45643 57.7421 7.72621L58.507 8.02853C58.6204 8.08732 58.7403 8.13243 58.8643 8.1629C59.1664 7.87355 59.4331 7.54935 59.6587 7.19713C59.9623 6.8188 60.2337 6.41568 60.4699 5.99202C60.4885 5.94191 60.5208 5.89802 60.5632 5.86536C60.6055 5.8327 60.6562 5.81257 60.7094 5.80726C60.7515 5.80177 60.7942 5.80529 60.8348 5.8176C60.8754 5.82991 60.9129 5.85072 60.9448 5.87864C61.0499 5.96682 61.0667 6.10959 60.9953 6.31954C60.8576 6.67876 60.6844 7.02338 60.4783 7.3483C60.3412 7.59812 60.1911 7.84059 60.0285 8.07472C59.9415 8.1935 59.8708 8.32343 59.8184 8.46103C59.7791 8.53976 59.7454 8.62114 59.7175 8.70457C59.7544 8.73998 59.7953 8.77098 59.8394 8.79695C59.8765 8.81548 59.9064 8.84564 59.9246 8.88281C59.9428 8.91998 59.9483 8.9621 59.9403 9.0027C59.9325 9.05244 59.9169 9.10063 59.894 9.14547L59.8646 9.20845C59.7839 9.2734 59.6888 9.31804 59.5872 9.33862H59.4233C59.3687 9.431 59.2552 9.62416 59.0871 9.91809C58.9526 10.1322 58.8181 10.3674 58.6667 10.6151C58.5701 10.7873 58.4524 11.035 58.3179 11.3164C58.0531 11.921 57.8766 12.3031 57.7967 12.4585C57.7586 12.5747 57.6887 12.678 57.595 12.7566C57.4832 12.8026 57.3578 12.8026 57.2461 12.7566C57.1963 12.7489 57.1481 12.7333 57.1032 12.7104C57.0429 12.6828 56.994 12.6354 56.9645 12.5761C56.9089 12.43 56.9089 12.2686 56.9645 12.1226C57.063 11.7969 57.1838 11.4785 57.326 11.1694C57.8555 10.0315 58.1666 9.35962 58.2338 9.14547C58.2556 9.11458 58.2726 9.08061 58.2843 9.04469C58.2886 9.0084 58.2986 8.973 58.3137 8.93972C58.0909 8.81795 57.7505 8.64159 57.2881 8.40644C56.7417 8.12651 56.3887 7.94175 56.229 7.85218C56.0725 7.76408 55.9248 7.66145 55.7876 7.54565C55.7018 7.42436 55.5897 7.32391 55.4598 7.25172L55.2328 7.09216C55.153 7.24332 55.0101 7.53725 54.8125 7.96975C54.423 8.68078 54.1246 9.25324 53.9173 9.68714C53.8416 9.8467 53.7323 10.107 53.581 10.422C53.5448 10.4168 53.508 10.4168 53.4717 10.422C53.2776 10.4063 53.0956 10.3213 52.959 10.1826C52.9388 10.0403 52.9577 9.89516 53.0136 9.76272C53.0638 9.55833 53.1357 9.35985 53.228 9.17066C53.3037 9.02607 53.3602 8.8722 53.3961 8.71297C53.4587 8.5273 53.5375 8.34746 53.6315 8.1755L53.808 7.83538C54.0686 7.35669 54.2577 7.03337 54.367 6.86961C54.7453 6.28455 55.3183 5.33417 56.0861 4.01849C56.2052 3.79286 56.3536 3.5839 56.5274 3.39704ZM46.8183 4.49297C46.8183 4.49297 46.7426 4.3838 46.5997 4.16125C46.5997 4.14026 46.5577 4.16125 46.5198 4.19485C46.482 4.22844 46.4232 4.32082 46.3181 4.47198C46.1521 4.70712 45.968 4.92894 45.7675 5.13542C45.4775 5.44195 45.2799 5.6435 45.1791 5.74428C44.7736 6.1341 44.341 6.49472 43.8845 6.82342C43.6239 7.00398 43.3885 7.15514 43.17 7.28111C43.0148 7.3708 42.8647 7.46893 42.7202 7.57504C42.6159 7.65462 42.5048 7.72488 42.3882 7.78499C42.3305 7.80651 42.2688 7.81511 42.2075 7.81019C42.094 7.78919 42.0309 7.69261 42.0141 7.52045C42.0141 7.45747 42.0141 7.39868 42.0141 7.35669C42.0317 7.26562 42.079 7.18294 42.1486 7.12155C42.4103 6.87925 42.6915 6.65876 42.9892 6.46231C43.2582 6.26915 43.4852 6.09699 43.6659 5.95003C43.8467 5.80306 44.1325 5.55952 44.6368 5.11023C45.3009 4.50977 45.6456 4.19904 45.6708 4.16965C45.7738 4.07664 45.8707 3.97706 45.9608 3.87152C46.0323 3.76655 46.0869 3.71616 46.1163 3.72456C45.9896 3.48037 45.8493 3.24345 45.696 3.01493C45.5072 2.71307 45.3024 2.42152 45.0824 2.14153C44.9258 1.91952 44.7853 1.68658 44.6621 1.4445C44.4183 1.033 44.2586 0.753064 44.1829 0.604699C44.1157 0.453535 44.0736 0.356958 44.0484 0.310769C44.0359 0.258315 44.0359 0.203661 44.0484 0.151207C44.0736 0.0588289 44.1157 0.0168389 44.1787 0.0210379C44.3214 0.0731114 44.4506 0.156311 44.557 0.26458C44.7442 0.438447 44.9145 0.629658 45.0656 0.835644C45.2967 1.13377 45.4396 1.31433 45.4859 1.37732C45.6428 1.59846 46.1584 2.42707 47.0326 3.86312C47.0326 3.86312 47.0662 3.74975 47.1377 3.544C47.2366 3.2075 47.3152 2.86536 47.3731 2.51944C47.428 2.22745 47.5038 1.93978 47.6 1.65865C47.6547 1.53268 47.7051 1.39411 47.7555 1.23875C47.8143 1.10819 47.8954 0.988837 47.9951 0.886032C48.0689 0.78929 48.1584 0.705556 48.2599 0.638291C48.2918 0.632063 48.3247 0.632063 48.3566 0.638291C48.3932 0.644566 48.4276 0.660251 48.4563 0.683809C48.4851 0.707366 48.5072 0.737985 48.5205 0.772659C48.529 0.888775 48.5161 1.00546 48.4827 1.11698C48.3734 1.58307 48.2893 1.93158 48.2221 2.17093C48.0918 2.63702 48.0203 2.88896 48.0077 2.91415C47.9262 3.08729 47.8696 3.27106 47.8396 3.46002C47.8396 3.46002 47.8144 3.64058 47.7682 3.98489L48.5541 3.32985C48.9089 3.01301 49.2853 2.72117 49.6805 2.45646C49.8907 2.33049 50.0378 2.23391 50.1009 2.17093C50.1639 2.10794 50.353 2.00297 50.6767 1.80561C50.8908 1.66488 51.1173 1.54401 51.3534 1.4445C51.4854 1.38396 51.6285 1.3511 51.7737 1.34792C51.8325 1.34792 51.8577 1.4235 51.8493 1.51588C51.8491 1.56992 51.8362 1.62314 51.8115 1.67125L51.5803 1.89799C51.3505 2.1177 51.1092 2.32514 50.8574 2.51944C50.6483 2.70061 50.4294 2.87023 50.2017 3.02752C49.8975 3.2104 49.6041 3.4109 49.3233 3.62798C49.094 3.78423 48.8762 3.95684 48.6718 4.14446C48.6718 4.14446 48.7222 4.21164 48.7643 4.33761C48.8124 4.46631 48.8671 4.59244 48.9282 4.71552C48.9282 4.74911 49.1594 5.16481 49.5755 5.95423C49.8907 6.55888 50.0925 6.93259 50.1933 7.08376C50.2942 7.23492 50.4665 7.50366 50.6515 7.79759C50.8568 8.08225 51.0369 8.38433 51.1895 8.70037C51.2383 8.77934 51.2549 8.87407 51.2357 8.96491C51.2195 9.01794 51.1999 9.06984 51.1769 9.12027C51.1012 9.27564 51.0045 9.34282 50.8952 9.32603C50.8354 9.30742 50.7798 9.27748 50.7313 9.23785C50.6459 9.13969 50.5673 9.03588 50.4959 8.92712C50.3975 8.78013 50.2894 8.63986 50.1723 8.50722C50.0126 8.31407 49.8445 8.08732 49.6637 7.83118C49.3496 7.36585 49.0687 6.87896 48.8231 6.37413C48.7601 6.24396 48.6466 5.98362 48.4827 5.59731C48.3639 5.33415 48.2669 5.0617 48.1927 4.78271C48.1464 4.60635 48.117 4.49297 48.1002 4.45098C48.0834 4.40899 48.0582 4.3838 48.0413 4.3964L47.7177 4.63154L47.5622 4.70712C47.4277 5.2362 47.3184 5.74008 47.2344 6.21457C47.2344 6.29015 47.1881 6.55468 47.1419 7.00818C47.1167 7.23912 47.0788 7.52045 47.0326 7.84798C47.0208 7.98917 46.9997 8.12943 46.9696 8.26788C46.9384 8.31521 46.8948 8.353 46.8435 8.37705C46.732 8.43022 46.6049 8.44068 46.4862 8.40644C46.4513 8.39609 46.4188 8.37887 46.3907 8.3558C46.3625 8.33272 46.3393 8.30426 46.3223 8.27208C46.288 8.17953 46.2737 8.0808 46.2803 7.98235C46.331 7.19939 46.4349 6.42079 46.5913 5.6519L46.73 4.87928C46.772 4.76171 46.793 4.61894 46.8183 4.49297ZM36.1466 0.751664C35.9576 0.741027 35.7682 0.741027 35.5792 0.751664C35.564 0.747753 35.5481 0.747753 35.533 0.751664C35.3434 0.787266 35.1657 0.869529 35.016 0.991007C34.7817 1.16886 34.5687 1.37317 34.3813 1.59986C33.9817 2.08977 33.6702 2.64529 33.4609 3.24167C33.3649 3.70847 33.3212 4.18448 33.3306 4.66093C33.3264 4.72245 33.3264 4.78418 33.3306 4.84569C33.41 5.34955 33.6136 5.82575 33.9232 6.23136L34.6587 6.81502C35.1693 7.06952 35.7316 7.20314 36.3021 7.20553C36.337 7.20992 36.3723 7.20992 36.4072 7.20553C36.6374 7.17155 36.8596 7.09615 37.0629 6.98298C37.3455 6.84334 37.6167 6.68189 37.8741 6.5001C38.3288 6.21664 38.6989 5.81639 38.9459 5.34117C39.1497 4.83682 39.2079 4.2855 39.114 3.74975C39.0129 3.19946 38.8043 2.67441 38.5003 2.20452C38.2271 1.93578 37.9077 1.64185 37.542 1.31433C37.4077 1.20584 37.2673 1.1049 37.1217 1.012C36.973 0.937653 36.8166 0.879917 36.6552 0.839843C36.4703 0.793654 36.3063 0.76846 36.1466 0.751664ZM35.2766 0.22259C35.3778 0.199961 35.4803 0.183138 35.5834 0.172202L35.9281 0.130212C36.4021 0.0491773 36.8879 0.0706554 37.3529 0.193197C37.5601 0.291556 37.7548 0.414189 37.9329 0.55851C38.1527 0.705355 38.3569 0.874187 38.5424 1.06239C39.0144 1.56168 39.3691 2.15986 39.5805 2.81337C39.6696 3.10497 39.7301 3.4045 39.7613 3.70776C39.7613 3.73715 39.7613 3.77075 39.7613 3.80854C39.8045 4.13843 39.8144 4.47183 39.7907 4.8037C39.7003 5.57955 39.3188 6.2923 38.7231 6.79823C38.4515 7.04035 38.1508 7.24769 37.8279 7.41548C37.4119 7.63401 36.9634 7.7843 36.4997 7.86057C36.0945 7.8979 35.6861 7.84187 35.306 7.69681C34.8237 7.54494 34.3652 7.32583 33.9442 7.04597C33.5723 6.83378 33.2476 6.54802 32.9901 6.20617C32.835 5.92992 32.7298 5.62861 32.6791 5.31598C32.6497 5.17321 32.6286 5.03884 32.616 4.89608C32.5894 4.67292 32.5894 4.4474 32.616 4.22424C32.6741 3.59034 32.86 2.97474 33.1624 2.41447L33.4314 1.95258C33.4903 1.8644 33.629 1.67964 33.8517 1.38991C34.0199 1.17156 34.1375 1.0288 34.2132 0.944818C34.303 0.857806 34.4016 0.780403 34.5074 0.713873L34.9866 0.419943C35.0795 0.348823 35.1763 0.282936 35.2766 0.22259ZM27.6816 1.35632C27.7288 1.29594 27.7892 1.24712 27.8581 1.21355C27.9083 1.19594 27.9615 1.18862 28.0146 1.19205C28.0677 1.19547 28.1195 1.20956 28.167 1.23348C28.2145 1.2574 28.2567 1.29065 28.291 1.33124C28.3253 1.37183 28.3511 1.41892 28.3667 1.46969C28.5554 1.85248 28.7237 2.24493 28.8711 2.64541C29.1737 3.40963 29.4385 4.10947 29.6655 4.74491C30.0396 5.73391 30.4718 6.69997 30.96 7.63803C31.1155 7.94036 31.2206 8.15031 31.271 8.27208C31.2754 8.29567 31.2754 8.31986 31.271 8.34346C31.3025 8.43028 31.3025 8.52537 31.271 8.6122C31.256 8.65722 31.2295 8.69755 31.1941 8.72921C31.1588 8.76087 31.1157 8.78277 31.0693 8.79275C30.9726 8.81795 30.8844 8.84314 30.8045 8.87253C30.7673 8.89009 30.7248 8.89337 30.6853 8.88176C30.6458 8.87015 30.6119 8.84445 30.5901 8.80955C30.2083 8.25845 29.8883 7.66702 29.636 7.04597C29.2862 6.25537 28.9831 5.44497 28.7282 4.61894C28.6021 4.23684 28.4676 3.85053 28.3079 3.45582C28.1482 3.06111 28.0683 2.85956 28.0557 2.84697C28.0518 2.87342 28.0518 2.90029 28.0557 2.92675C28.0557 2.96874 28.0557 2.96454 28.0557 2.92675C28.0557 3.06111 28.0263 3.28366 27.9842 3.59859C27.9376 4.10529 27.9166 4.61401 27.9212 5.12282C27.9128 5.6835 27.9352 6.24421 27.9884 6.80243C27.9884 6.95359 28.0263 7.24332 28.0473 7.67162C28.1019 8.36026 28.1608 8.88933 28.228 9.25884C28.2921 9.57954 28.3398 9.90328 28.3709 10.2288C28.3709 10.3772 28.3289 10.4696 28.2448 10.5059C28.2128 10.5172 28.1783 10.5196 28.1451 10.5129C28.1118 10.5063 28.0809 10.4908 28.0557 10.4682C27.9542 10.3681 27.8627 10.2584 27.7825 10.1406C27.5102 9.75532 27.205 9.39426 26.8704 9.06149C26.2114 8.46537 25.5962 7.82266 25.0295 7.13835C24.3259 6.37701 23.5809 5.65508 22.7976 4.97586C22.764 4.94647 22.7052 4.90448 22.6211 4.84569C22.6211 4.87508 22.6631 4.92547 22.7094 5.00945C23.043 5.65534 23.3391 6.31988 23.5962 6.99978C23.9016 7.93591 24.2883 8.84356 24.7521 9.71233C24.9125 9.98165 25.053 10.2623 25.1724 10.5521C25.2648 10.7831 25.3153 10.9216 25.3279 10.972C25.3401 10.9961 25.3464 11.0227 25.3464 11.0497C25.3464 11.0767 25.3401 11.1033 25.3279 11.1274C25.2859 11.1943 25.2196 11.2425 25.1429 11.2618C25.072 11.2951 24.9944 11.3124 24.916 11.3122C24.8768 11.3183 24.8367 11.3146 24.7993 11.3014C24.7618 11.2882 24.7283 11.2659 24.7016 11.2366C24.5503 11.0012 24.4182 10.7541 24.3065 10.4975C24.1672 10.1517 24.0086 9.81382 23.8316 9.48559C23.7433 9.30503 23.6424 9.06569 23.5206 8.75496C23.3987 8.44424 23.1002 7.60443 22.5917 6.23556C22.4025 5.71488 22.2638 5.32018 22.1714 5.04724C22.0789 4.77431 22.0032 4.56856 21.9612 4.4006C21.9276 4.28335 21.9176 4.16061 21.9318 4.03948C21.943 4.01145 21.9601 3.98611 21.9818 3.96512C22.0035 3.94414 22.0295 3.92798 22.0579 3.91771C22.1605 3.89329 22.2685 3.90828 22.3605 3.9597C22.5456 4.05209 22.7215 4.16175 22.8859 4.28722C23.239 4.53496 23.6088 4.8121 23.9913 5.12702C24.5663 5.61027 25.0979 6.14277 25.5801 6.71845C26.1084 7.21657 26.5948 7.75727 27.0343 8.33506C27.1751 8.45429 27.3059 8.5849 27.4252 8.72557C27.5121 8.82075 27.5625 8.86693 27.5765 8.86414C27.5765 8.86414 27.5765 8.76336 27.5513 8.5786C27.5261 8.39385 27.5009 8.28467 27.4841 8.1587C27.4126 7.64223 27.3496 7.10475 27.2949 6.55049C27.2949 6.23556 27.2949 5.95843 27.2949 5.71068C27.2641 5.2395 27.2641 4.7668 27.2949 4.29562C27.3229 3.93451 27.365 3.43483 27.421 2.79658C27.463 2.33469 27.5009 2.00297 27.5387 1.80561C27.5627 1.64935 27.6109 1.49777 27.6816 1.35632ZM16.8124 7.7556C16.895 7.65739 16.9896 7.56993 17.094 7.49526L17.2538 7.39868C17.3914 7.31249 17.5439 7.25268 17.7035 7.22233C17.8474 7.19372 17.9961 7.20139 18.1363 7.24464C18.2765 7.2879 18.4036 7.36538 18.5063 7.47007C18.7742 7.73771 18.9507 8.08305 19.0106 8.45683C19.086 8.82746 19.0945 9.20854 19.0359 9.58216C19.0359 9.61996 19.0359 9.67874 19.0359 9.76272C19.0957 9.73175 19.1532 9.69667 19.2082 9.65775C19.4854 9.52094 19.7992 9.47678 20.1035 9.53178C20.4366 9.57094 20.7524 9.70177 21.0155 9.90969C21.2272 10.0879 21.4151 10.2925 21.5745 10.5185C21.6219 10.5684 21.6655 10.6217 21.7048 10.6781C21.8341 10.8473 21.9388 11.0339 22.0159 11.2324C22.1396 11.6073 22.1657 12.0077 22.0915 12.3955C22.0284 12.7888 21.8728 13.1615 21.6376 13.483C21.5251 13.6079 21.3997 13.7205 21.2635 13.819C21.1493 13.8969 21.0299 13.967 20.9062 14.0289C20.6187 14.142 20.3115 14.1963 20.0026 14.1885C19.7904 14.1701 19.5814 14.125 19.3805 14.0541C19.2016 13.9969 19.0328 13.9119 18.8804 13.8022C18.6167 13.6005 18.3868 13.3581 18.1995 13.0841C18.17 13.0463 18.149 13.0127 18.1238 12.9834C17.9163 12.7225 17.7827 12.4107 17.7371 12.0806C17.7371 12.026 17.7749 11.9378 17.8002 11.8286C17.8338 11.879 17.9136 11.9924 18.0313 12.1729C18.3221 12.6588 18.7507 13.0476 19.2628 13.2899C19.5548 13.4124 19.8719 13.4628 20.1875 13.4368C20.3854 13.4044 20.5728 13.3252 20.7339 13.2059C20.9705 13.037 21.1471 12.7973 21.2383 12.5215C21.3173 12.2489 21.3485 11.9648 21.3308 11.6817C21.2701 11.3375 21.0972 11.023 20.839 10.7873C20.5899 10.5248 20.2703 10.3397 19.9185 10.254C19.7534 10.1998 19.5742 10.2073 19.4141 10.275C19.2277 10.37 19.0719 10.5155 18.9644 10.6949C18.8846 10.8027 18.7929 10.9013 18.6912 10.9888C18.652 11.0153 18.6066 11.0311 18.5595 11.0348C18.5123 11.0385 18.465 11.0299 18.4222 11.0098C18.3748 10.9957 18.333 10.967 18.3028 10.9278C18.2726 10.8886 18.2556 10.8409 18.2541 10.7915C18.191 10.6381 18.191 10.4661 18.2541 10.3128C18.3087 10.1451 18.3522 9.97393 18.3844 9.80051C18.413 9.47081 18.413 9.13925 18.3844 8.80955C18.3793 8.57098 18.3235 8.33622 18.2205 8.12091C18.18 8.05026 18.1321 7.98411 18.0776 7.92356C18.0213 7.89416 17.96 7.87564 17.8968 7.86897C17.7962 7.84283 17.6906 7.84283 17.59 7.86897C17.4815 7.94327 17.3839 8.0323 17.3 8.13351C16.9779 8.53923 16.7652 9.02062 16.6821 9.53178C16.6443 9.74593 16.6569 9.8719 16.7116 9.90549C16.7662 9.93908 16.7452 9.98527 16.7116 10.0567C16.6838 10.1103 16.6434 10.1564 16.5939 10.191C16.493 10.2624 16.3753 10.212 16.2324 10.0399C16.1988 10.0063 16.1483 9.94748 16.0727 9.8551C16.0727 9.78792 16.1189 9.63675 16.161 9.39741C16.2012 8.79562 16.429 8.22151 16.8124 7.7556Z" fill="black"/>
<path d="M128.396 56.0272C128.425 55.9288 128.48 55.8402 128.556 55.7711C128.596 55.7567 128.641 55.7567 128.682 55.7711C129.051 56.1555 129.38 56.5777 129.661 57.0308C130.258 57.8706 130.682 58.4459 130.922 58.7356C131.161 59.0253 131.313 59.1555 131.304 59.2101C131.588 59.564 131.892 59.9005 132.216 60.2178C132.413 60.4045 132.597 60.6037 132.767 60.8141C132.818 60.8729 132.889 60.9569 132.973 61.066C132.999 61.0419 133.023 61.0152 133.044 60.9863C133.57 60.5218 134.132 60.1005 134.726 59.7266C135.02 59.5166 135.461 59.2101 136.05 58.8028L136.104 58.8616V58.8909C136.193 59.0169 136.163 59.2059 136.016 59.462C135.907 59.5754 135.835 59.6216 135.802 59.5964C135.423 59.819 135.073 60.0869 134.759 60.3942C134.549 60.5789 134.234 60.8393 133.814 61.1794C133.469 61.4481 133.234 61.6287 133.108 61.7169L133.032 61.7715C132.921 61.8448 132.803 61.9053 132.679 61.952C132.574 61.9898 132.506 61.9856 132.473 61.952C132.429 61.8972 132.401 61.8316 132.391 61.7622C132.382 61.6927 132.391 61.6219 132.418 61.5573C132.473 61.4985 132.481 61.4481 132.443 61.4103C132.406 61.3726 132.25 61.2424 131.981 61.0198C131.523 60.6377 131.241 60.3942 131.14 60.2892C131.04 60.1842 130.825 59.8693 130.472 59.3906C130.203 58.9959 129.871 58.4836 129.468 57.8538C129.064 57.2239 128.825 56.825 128.741 56.6487C128.681 56.5501 128.61 56.4586 128.53 56.3757C128.474 56.3448 128.428 56.2981 128.398 56.2414C128.368 56.1847 128.356 56.1204 128.362 56.0566L128.396 56.0272ZM126.727 61.0492C126.528 61.0977 126.334 61.1638 126.147 61.2466C126.033 61.2972 125.925 61.3591 125.824 61.4313C125.722 61.5018 125.616 61.5636 125.504 61.6161C125.424 61.6665 125.328 61.7337 125.206 61.8218L124.886 62.0696C124.87 62.0814 124.858 62.0977 124.851 62.1164C124.845 62.135 124.844 62.1553 124.848 62.1746C124.848 62.2292 124.92 62.3719 125.017 62.5945C125.121 62.841 125.207 63.0951 125.273 63.3545C125.307 63.5224 125.357 63.7198 125.424 63.9423C125.492 64.1649 125.529 64.2867 125.563 64.421C125.594 64.5209 125.631 64.619 125.672 64.715C125.714 64.8073 125.748 64.8451 125.777 64.8325C125.911 64.7376 126.051 64.6534 126.198 64.5806C126.39 64.4724 126.57 64.3443 126.736 64.1985C126.787 64.1578 126.842 64.1213 126.9 64.0893L127.059 63.9675C127.174 63.9022 127.285 63.8307 127.391 63.7534C127.586 63.6266 127.771 63.4863 127.946 63.3335C128.48 62.67 128.703 62.0738 128.606 61.5531C128.546 61.4176 128.457 61.2969 128.345 61.1996C128.233 61.1024 128.101 61.0309 127.959 60.9904C127.565 60.8839 127.149 60.8941 126.761 61.0198L126.727 61.0492ZM124.462 58.8616C124.213 58.9348 123.969 59.0231 123.73 59.1261L123.453 59.2941C123.465 59.3419 123.482 59.3884 123.503 59.4326V59.4662L123.575 59.6216C123.747 59.9239 123.953 60.3312 124.197 60.8477C124.252 60.9737 124.344 61.1626 124.466 61.4187C124.5 61.4187 124.575 61.3474 124.693 61.2802L125.113 60.9946L125.332 60.8099C125.441 60.7343 125.567 60.6587 125.71 60.5747C126.279 60.2724 126.718 59.774 126.946 59.1723C126.998 59.0127 126.998 58.8406 126.946 58.681C126.937 58.6591 126.924 58.6391 126.908 58.6222C126.851 58.5573 126.779 58.5067 126.699 58.4746C126.619 58.4425 126.532 58.4298 126.446 58.4375C125.779 58.4666 125.121 58.5998 124.495 58.8322L124.462 58.8616ZM123.247 58.6642C123.348 58.6096 123.482 58.5466 123.667 58.471L124.088 58.2821C124.474 58.1225 124.777 58.0134 125 57.942C125.924 57.662 126.601 57.6102 127.03 57.7866C127.197 57.8384 127.344 57.9412 127.45 58.0805C127.555 58.2612 127.631 58.4565 127.677 58.66C127.74 59.127 127.618 59.6 127.337 59.9785C127.277 60.0791 127.211 60.1759 127.139 60.2682C127.11 60.2976 127.097 60.3228 127.11 60.3438C127.122 60.3648 127.148 60.3438 127.181 60.3438C127.328 60.3161 127.478 60.3076 127.627 60.3186C127.814 60.3197 128 60.3323 128.186 60.3564C128.5 60.4137 128.792 60.5593 129.026 60.7763C129.148 60.8971 129.247 61.0395 129.316 61.1962C129.39 61.3476 129.434 61.5114 129.447 61.6791C129.434 62.0641 129.353 62.4438 129.207 62.8002C129.077 63.1587 128.886 63.4924 128.644 63.787C128.336 64.0495 128.007 64.2868 127.66 64.4966C127.488 64.6184 127.303 64.736 127.101 64.8535C126.9 64.9711 126.681 65.1391 126.391 65.2986C126.101 65.4582 126 65.5254 125.895 65.5758L125.824 65.6094L125.626 65.6723C125.561 65.6976 125.489 65.6976 125.424 65.6723C125.345 65.6233 125.285 65.5495 125.252 65.4624C125.202 65.3574 125.134 65.1811 125.038 64.9375C124.952 64.7232 124.878 64.5046 124.815 64.2825C124.794 64.1565 124.63 63.6694 124.319 62.8212L124.155 62.3425L124.004 61.9562C123.949 61.7967 123.836 61.5363 123.672 61.1962C123.419 60.5614 123.076 59.966 122.654 59.4284L122.541 59.3696C122.541 59.3388 122.549 59.2927 122.566 59.2311C122.78 59.0044 123.019 58.8042 123.281 58.6348L123.247 58.6642ZM120.238 59.0841C120.303 59.0421 120.374 59.0096 120.448 58.9875C120.603 58.9455 120.7 58.9875 120.734 59.1135C120.765 59.2097 120.777 59.3108 120.771 59.4116C120.771 59.4956 120.62 59.6342 120.326 59.8315L120.006 60.1003C119.969 60.1187 119.936 60.1447 119.909 60.1765C119.883 60.2082 119.863 60.2452 119.851 60.285C119.888 60.4467 119.944 60.6032 120.019 60.7511C120.133 61.0282 120.284 61.4229 120.465 61.931C120.784 62.88 121.04 63.6106 121.242 64.1775C121.381 64.505 121.478 64.7444 121.528 64.8997C121.578 65.0551 121.641 65.2776 121.73 65.5968C121.758 65.7983 121.806 65.9966 121.873 66.1888C121.873 66.1888 121.932 66.1888 121.99 66.1468C122.065 66.0908 122.137 66.0305 122.205 65.9663C122.236 65.9348 122.273 65.9105 122.315 65.8953C122.356 65.88 122.4 65.8742 122.444 65.8781C122.474 65.8762 122.504 65.8809 122.531 65.8918C122.559 65.9026 122.584 65.9195 122.604 65.9411C122.65 65.9769 122.685 66.0249 122.705 66.0796C122.712 66.1634 122.702 66.2477 122.675 66.3274C122.647 66.4257 122.588 66.5124 122.507 66.5751C122.349 66.6704 122.185 66.7559 122.016 66.8313C121.867 66.8906 121.726 66.9667 121.595 67.058C121.452 67.1529 121.292 67.2212 121.125 67.2596L120.994 67.3099C120.887 67.3496 120.772 67.364 120.658 67.3519C120.612 67.3248 120.574 67.2853 120.548 67.2378C120.523 67.1904 120.512 67.1368 120.515 67.0832C120.517 67.0257 120.531 66.9692 120.555 66.9172C120.58 66.8652 120.615 66.8188 120.658 66.7809C120.73 66.7163 120.812 66.6651 120.902 66.6297C120.971 66.5965 121.043 66.5684 121.116 66.5457C121.162 66.5457 121.183 66.5079 121.179 66.4659C121.104 66.094 120.969 65.7367 120.78 65.4078C120.729 65.2944 120.658 65.1055 120.553 64.8493C120.448 64.5932 120.246 63.9088 119.927 62.8086C119.523 61.5013 119.282 60.7483 119.204 60.5496C119.204 60.5496 119.103 60.5496 118.952 60.6293C118.868 60.6803 118.777 60.7185 118.683 60.7427C118.633 60.7257 118.586 60.7017 118.544 60.6713C118.506 60.6512 118.473 60.6232 118.447 60.5892C118.42 60.5551 118.402 60.5158 118.393 60.474C118.367 60.3891 118.367 60.2985 118.393 60.2136C118.554 60.0152 118.744 59.8412 118.956 59.6972C119.164 59.5717 119.382 59.4635 119.607 59.3738C119.939 59.2059 120.149 59.1219 120.271 59.0589L120.238 59.0841ZM113.698 60.1632C113.95 60.0853 114.211 60.0374 114.475 60.0205H114.82C115.167 60.0061 115.514 60.0515 115.845 60.1548C116.06 60.237 116.259 60.358 116.43 60.5118C116.627 60.6722 116.794 60.8671 116.921 61.087C117.014 61.2105 117.076 61.3545 117.102 61.5069C117.123 61.6469 117.116 61.7896 117.081 61.9268C117.062 62.0473 117.001 62.1571 116.909 62.2376C116.88 62.2673 116.844 62.2897 116.805 62.3029C116.765 62.316 116.723 62.3196 116.682 62.3131C116.531 62.3341 116.451 62.3341 116.451 62.3131C116.451 62.2921 116.417 62.1578 116.358 61.8722C116.327 61.6832 116.266 61.5003 116.177 61.3306C116.087 61.1822 115.972 61.0502 115.837 60.9401C115.716 60.8329 115.572 60.754 115.417 60.7091C115.166 60.6884 114.914 60.6955 114.664 60.7301C114.38 60.7422 114.098 60.7858 113.824 60.8603C113.536 60.9458 113.269 61.0886 113.038 61.2802C112.874 61.4046 112.75 61.5738 112.681 61.7673C112.599 61.9249 112.574 62.1056 112.609 62.2795C112.681 62.5298 112.828 62.7524 113.029 62.9178C113.301 63.1197 113.611 63.2627 113.941 63.3377C114.415 63.4747 114.899 63.5772 115.387 63.6442C115.8 63.6506 116.205 63.7557 116.568 63.9507C116.999 64.1401 117.356 64.4644 117.586 64.8745C117.799 65.203 117.931 65.577 117.972 65.9663V66.151C117.965 66.3431 117.928 66.5329 117.863 66.7137C117.836 66.8807 117.776 67.0406 117.686 67.184C117.367 67.4759 116.982 67.6875 116.564 67.8012C116.043 67.9667 115.504 68.0696 114.959 68.1078C114.337 68.1829 113.707 68.1124 113.118 67.902C112.906 67.8228 112.716 67.6936 112.564 67.5255C112.413 67.3574 112.304 67.1552 112.248 66.9362C112.209 66.7598 112.199 66.5783 112.218 66.3988C112.225 66.223 112.242 66.0477 112.269 65.8739C112.269 65.8291 112.29 65.8039 112.332 65.7983C112.361 65.7949 112.388 65.782 112.41 65.7615C112.431 65.741 112.445 65.7141 112.449 65.6849C112.647 65.5968 112.786 65.5716 112.87 65.6219C112.954 65.6723 112.92 65.7143 112.895 65.7941C112.802 65.9958 112.752 66.2145 112.748 66.4366C112.804 66.6432 112.909 66.8332 113.055 66.9908C113.202 67.1777 113.396 67.3226 113.618 67.4107C114.071 67.5847 114.561 67.6439 115.043 67.5829C115.569 67.5165 116.083 67.3751 116.568 67.163C116.84 67.0649 117.074 66.8843 117.237 66.6465C117.329 66.4501 117.364 66.2319 117.338 66.0167C117.316 65.802 117.246 65.595 117.132 65.412C117.006 65.1949 116.838 65.0062 116.636 64.8577C116.503 64.7464 116.341 64.6751 116.169 64.652C116.022 64.6226 115.703 64.5722 115.219 64.4924C114.563 64.4076 113.918 64.2469 113.298 64.0137C112.933 63.865 112.605 63.6386 112.336 63.3503C112.097 63.0991 111.92 62.7957 111.819 62.4643C111.798 62.3972 111.784 62.3283 111.777 62.2585C111.766 62.1665 111.766 62.0735 111.777 61.9814C111.829 61.6258 111.989 61.2947 112.235 61.0324C112.632 60.5901 113.154 60.2783 113.731 60.1381L113.698 60.1632ZM107.027 59.9029C107.289 59.8739 107.552 59.8739 107.813 59.9029L108.158 59.9533C108.502 60.0049 108.834 60.1142 109.142 60.2766C109.335 60.4005 109.505 60.5584 109.642 60.7427C109.805 60.9371 109.933 61.1589 110.02 61.3978C110.086 61.5279 110.121 61.6717 110.121 61.8177C110.121 61.9636 110.086 62.1074 110.02 62.2376C109.98 62.3542 109.9 62.4526 109.793 62.5147C109.758 62.5379 109.718 62.5526 109.677 62.5577C109.635 62.5628 109.593 62.5582 109.553 62.5441C109.402 62.5441 109.326 62.5189 109.331 62.4937C109.335 62.4685 109.331 62.3383 109.331 62.0444C109.335 61.8527 109.309 61.6615 109.255 61.4775C109.193 61.3145 109.105 61.1627 108.994 61.0282C108.89 60.8995 108.759 60.7938 108.612 60.7175C108.37 60.653 108.122 60.6122 107.872 60.5957C107.594 60.5549 107.312 60.5465 107.032 60.5705C106.736 60.6034 106.45 60.6963 106.191 60.8435C106.005 60.9364 105.852 61.0826 105.75 61.2634C105.636 61.4016 105.575 61.5757 105.577 61.7547C105.607 62.0159 105.716 62.2619 105.888 62.4601C106.113 62.7168 106.389 62.9229 106.7 63.0648C107.139 63.2894 107.594 63.4816 108.061 63.64C108.464 63.7229 108.841 63.9031 109.158 64.1649C109.552 64.4312 109.847 64.8192 109.999 65.2692C110.146 65.631 110.205 66.0224 110.171 66.4114L110.146 66.5961C110.103 66.7839 110.03 66.9638 109.932 67.1294C109.849 67.2908 109.735 67.4336 109.595 67.5493C109.227 67.7755 108.808 67.9095 108.377 67.9398C107.834 68.0049 107.285 68.0049 106.742 67.9398C106.116 67.897 105.51 67.707 104.972 67.3855C104.779 67.2685 104.618 67.1065 104.501 66.9134C104.385 66.7204 104.317 66.502 104.304 66.277C104.298 66.0952 104.322 65.9136 104.375 65.7395C104.455 65.4414 104.51 65.2734 104.527 65.2356C104.543 65.1979 104.564 65.1685 104.602 65.1769C104.632 65.1773 104.661 65.1687 104.686 65.1522C104.711 65.1357 104.73 65.1121 104.741 65.0845C104.951 65.0341 105.09 65.0383 105.161 65.0845C105.233 65.1307 105.191 65.1853 105.161 65.2566C105.033 65.4401 104.941 65.647 104.892 65.8655C104.91 66.0783 104.978 66.284 105.09 66.4659C105.203 66.672 105.367 66.8466 105.565 66.974C105.979 67.224 106.448 67.3683 106.931 67.3939C107.461 67.4295 107.994 67.3856 108.511 67.2638C108.796 67.2232 109.059 67.0922 109.263 66.89C109.39 66.7132 109.467 66.506 109.486 66.2896C109.504 66.0726 109.473 65.8543 109.394 65.6513C109.316 65.4146 109.187 65.198 109.015 65.0173C108.904 64.884 108.759 64.7826 108.595 64.7234L107.691 64.3874C107.063 64.1775 106.461 63.8957 105.897 63.5476C105.566 63.3307 105.286 63.0441 105.077 62.7078C104.892 62.4146 104.777 62.0827 104.741 61.7379C104.732 61.6695 104.732 61.6004 104.741 61.5321C104.751 61.4386 104.774 61.3468 104.808 61.2592C104.929 60.9223 105.149 60.6297 105.439 60.4194C105.916 60.0869 106.479 59.8989 107.061 59.8777L107.027 59.9029ZM100.916 59.2647C100.75 59.1742 100.579 59.0929 100.403 59.0211C100.393 59.0099 100.38 59.0013 100.365 58.9959C100.178 58.9502 99.9817 58.9502 99.7939 58.9959C99.5037 59.0526 99.2214 59.1443 98.9533 59.2689C98.3806 59.5334 97.8586 59.8958 97.4107 60.3396C97.1181 60.7173 96.8699 61.1273 96.671 61.5615C96.6429 61.6171 96.6191 61.6746 96.5995 61.7337C96.4526 62.2227 96.4281 62.7404 96.5281 63.2411C96.5953 63.3839 96.7298 63.661 96.9484 64.0809C97.2959 64.5308 97.7415 64.8955 98.2513 65.1475C98.2815 65.1669 98.314 65.1824 98.348 65.1936C98.5691 65.2643 98.8013 65.2942 99.0331 65.2818C99.3485 65.2759 99.6631 65.2478 99.9746 65.1979C100.508 65.1408 101.016 64.9422 101.446 64.6226C101.846 64.2566 102.137 63.7872 102.286 63.2663C102.433 62.7263 102.474 62.1633 102.408 61.6077C102.278 61.2466 102.118 60.8393 101.933 60.39C101.824 60.1758 101.74 60.0205 101.677 59.9239C101.574 59.7913 101.46 59.6676 101.336 59.5544L100.916 59.2647ZM100.357 58.4249C100.459 58.4472 100.558 58.4767 100.656 58.513L100.983 58.6264C101.448 58.7579 101.878 58.9886 102.244 59.3024C102.39 59.4813 102.512 59.6774 102.61 59.8861C102.742 60.1144 102.852 60.3548 102.938 60.6041C103.143 61.2595 103.2 61.9521 103.106 62.6323C103.057 62.9324 102.981 63.2276 102.879 63.514C102.879 63.5434 102.858 63.577 102.845 63.6106C102.737 63.9281 102.596 64.2335 102.425 64.5218C102.005 65.1809 101.35 65.6555 100.592 65.8487C99.7724 66.0607 98.9106 66.0506 98.0958 65.8193C97.719 65.6783 97.3796 65.4528 97.1039 65.1601C96.7377 64.8115 96.4209 64.4145 96.1624 63.9801C95.9215 63.6224 95.7556 63.2196 95.6749 62.796C95.6573 62.4799 95.6943 62.1632 95.7841 61.8596C95.822 61.7169 95.8598 61.5867 95.9018 61.4733C95.9698 61.2581 96.0644 61.0521 96.1834 60.8603C96.5103 60.3137 96.9467 59.8405 97.4654 59.4704L97.8857 59.1681C97.9739 59.1177 98.1841 59.0085 98.5077 58.8448C98.7515 58.723 98.928 58.6474 99.0247 58.6054C99.1446 58.565 99.2687 58.5382 99.3946 58.5256L99.9956 58.471C100.244 58.3955 100.357 58.3661 100.391 58.3661L100.357 58.4249ZM92.9134 55.4016C92.7258 55.2887 92.5486 55.1594 92.3838 55.0153C92.3444 54.9866 92.2979 54.9692 92.2493 54.9649C92.159 55.3314 92.0175 55.6833 91.829 56.0104C91.6567 56.2918 91.3373 56.7537 90.8749 57.4087C90.7783 57.5389 90.6354 57.732 90.4546 57.9966C90.5261 58.0343 90.669 58.1183 90.8749 58.2485C91.3281 58.5132 91.8203 58.7045 92.3334 58.8154C92.8128 58.9249 93.305 58.9673 93.7961 58.9413C94.4938 58.8658 94.9057 58.7398 95.0234 58.5592V58.5298C95.0993 58.2353 95.122 57.9296 95.0906 57.627C94.9351 57.0812 94.4349 56.5227 93.5985 55.9474C93.4808 55.7795 93.2413 55.5989 92.9471 55.3596L92.9134 55.4016ZM92.1737 54.1671C92.2192 54.1551 92.2669 54.1551 92.3124 54.1671C92.3154 54.1737 92.317 54.1808 92.317 54.1881C92.317 54.1953 92.3154 54.2025 92.3124 54.2091C92.3146 54.2129 92.3158 54.2172 92.3158 54.2217C92.3158 54.2261 92.3146 54.2304 92.3124 54.2343C92.3124 54.2343 92.3124 54.2552 92.3628 54.2846L92.552 54.4358L92.8882 54.6542L93.4304 55.0069C93.9166 55.3171 94.3866 55.652 94.8384 56.0104C95.4333 56.4944 95.8174 57.1896 95.9102 57.9504C95.9342 58.2363 95.891 58.5239 95.7841 58.7902C95.7624 58.8538 95.7328 58.9145 95.6959 58.9707C95.6415 59.0494 95.5796 59.1225 95.5109 59.1891C95.1865 59.4565 94.7985 59.6358 94.3845 59.7098C94.1069 59.7585 93.8257 59.7838 93.5439 59.7853C93.1983 59.7535 92.858 59.6788 92.5309 59.5628C92.2107 59.4567 91.8964 59.3333 91.5895 59.1933C91.2566 59.0558 90.9348 58.893 90.6269 58.7062C90.5261 58.6474 90.379 58.5634 90.1814 58.4416C90.1352 58.4962 90.0553 58.6096 89.9334 58.7776C89.7653 59.0085 89.6098 59.2395 89.4627 59.4746C89.2078 59.9047 88.9182 60.3134 88.5969 60.6965C88.5422 60.7511 88.5002 60.7721 88.475 60.7553C88.4364 60.7304 88.3902 60.7199 88.3447 60.7259C88.2999 60.7221 88.2549 60.7221 88.2102 60.7259C88.1789 60.7371 88.1448 60.7371 88.1135 60.7259C88.0885 60.7076 88.0671 60.6849 88.0505 60.6587C88.0099 60.5753 87.998 60.4808 88.0168 60.39C88.0408 60.2692 88.0803 60.1521 88.1345 60.0415C88.3786 59.5733 88.6597 59.1254 88.9751 58.702C89.3954 58.0847 89.841 57.4885 90.3159 56.9048C90.7929 56.322 91.215 55.6965 91.5768 55.0363C91.7198 54.7339 91.7996 54.5534 91.8164 54.503C91.8244 54.4773 91.8242 54.4498 91.816 54.4243C91.8077 54.3987 91.7917 54.3763 91.7702 54.3602C91.7573 54.354 91.7457 54.3452 91.7363 54.3344C91.7269 54.3235 91.7199 54.3109 91.7156 54.2972C91.7147 54.2606 91.7233 54.2245 91.7408 54.1923C91.7561 54.1633 91.7815 54.1409 91.8122 54.1293C91.8122 54.1293 91.8669 54.1293 91.9341 54.1293C92.007 54.1697 92.0919 54.1831 92.1737 54.1671ZM91.1902 52.4875C91.2652 52.5064 91.3336 52.5456 91.3877 52.6008C91.4354 52.6573 91.4673 52.7254 91.4802 52.7982C91.4886 52.8668 91.48 52.9364 91.4551 53.0008C91.4302 53.0653 91.3897 53.1226 91.3373 53.1677C91.2196 53.3105 90.917 53.6128 90.4294 54.0705C89.8326 54.6304 89.2876 55.1314 88.7944 55.5737C88.0123 56.2871 87.2727 57.0456 86.5794 57.8454C86.3566 58.1015 86.2011 58.2653 86.1044 58.3661C86.0866 58.3824 86.0668 58.3965 86.0456 58.4081C85.9733 58.468 85.8831 58.502 85.7892 58.5046C85.7423 58.5059 85.6958 58.4954 85.6539 58.4742C85.6121 58.4529 85.5762 58.4215 85.5496 58.3829C85.4974 58.3061 85.4398 58.2332 85.3773 58.1645C85.3495 58.1349 85.3341 58.0959 85.3341 58.0553C85.3341 58.0148 85.3495 57.9757 85.3773 57.9462C85.7476 57.3865 86.179 56.8697 86.6634 56.4051C87.2643 55.7884 87.9 55.2066 88.5674 54.6625C88.8743 54.4064 89.1853 54.1377 89.5005 53.8521C89.8158 53.5666 89.9671 53.4112 89.9713 53.3945L89.8956 53.4154C89.8536 53.4154 89.8578 53.4154 89.8956 53.4154C89.7695 53.4616 89.551 53.5246 89.2483 53.6002C88.5422 53.8186 88.0631 53.9865 87.8025 54.0999C87.2783 54.3031 86.7649 54.5329 86.2642 54.7885C86.1339 54.8599 85.8691 54.9859 85.4782 55.1622C84.8603 55.4688 84.3896 55.7207 84.0701 55.9181C83.7988 56.0966 83.5182 56.2605 83.2295 56.4093C83.095 56.4681 82.99 56.4639 82.9269 56.4093C82.9044 56.3848 82.8894 56.3545 82.8834 56.3218C82.8775 56.2891 82.8809 56.2554 82.8933 56.2246C82.9444 56.0906 83.0121 55.9637 83.095 55.8467C83.3521 55.4465 83.5742 55.0251 83.7591 54.587C84.0685 53.7565 84.4351 52.9483 84.8561 52.1683C85.3066 51.2342 85.7037 50.2753 86.0456 49.2962C86.0456 49.2542 86.075 49.1828 86.1002 49.0863C86.0585 49.1318 86.0192 49.1794 85.9825 49.229C85.498 49.7835 84.9831 50.3105 84.44 50.8079C83.6803 51.4459 82.9772 52.1484 82.3385 52.9074C82.1469 53.1481 81.9391 53.3753 81.7164 53.5876C81.6097 53.6929 81.4975 53.7924 81.3802 53.8857C81.3611 53.9046 81.3378 53.9186 81.3122 53.9267C81.2866 53.9347 81.2595 53.9365 81.2331 53.9319C81.1784 53.9319 81.1154 53.8899 81.0397 53.8101C80.9834 53.7571 80.939 53.6927 80.9094 53.6212C80.891 53.5855 80.8814 53.5459 80.8814 53.5057C80.8814 53.4656 80.891 53.426 80.9094 53.3903C81.0782 53.1745 81.2622 52.971 81.46 52.7814C81.73 52.5229 81.9867 52.2511 82.2292 51.9668C82.3637 51.8198 82.5486 51.6309 82.7924 51.4041C83.0362 51.1774 83.7003 50.5643 84.7805 49.6153C85.2008 49.25 85.5118 48.9729 85.7304 48.7755C85.8965 48.6247 86.0719 48.4844 86.2557 48.3556C86.3494 48.2776 86.4604 48.2229 86.5794 48.1961C86.6094 48.1941 86.6395 48.1991 86.6672 48.2108C86.6949 48.2225 86.7195 48.2404 86.7391 48.2633C86.7997 48.3501 86.8252 48.4566 86.8105 48.5614C86.7946 48.7661 86.758 48.9687 86.7013 49.1661C86.6004 49.586 86.4827 50.031 86.344 50.5013C86.1044 51.2113 85.8049 51.8996 85.4488 52.5588C85.1792 53.2331 84.8559 53.8846 84.482 54.5072C84.4233 54.6823 84.3502 54.8522 84.2635 55.0153C84.2046 55.1328 84.1794 55.1958 84.1878 55.2084C84.1962 55.221 84.2887 55.1748 84.4442 55.0782L84.8099 54.8599C85.268 54.6038 85.743 54.3476 86.2389 54.0915C86.5247 53.9697 86.7853 53.8647 87.0165 53.7724C87.4448 53.5731 87.8857 53.4019 88.3363 53.2601L89.7779 52.8402C90.1982 52.7058 90.5429 52.6218 90.7404 52.584C90.8913 52.5356 91.0485 52.5101 91.207 52.5085L91.1902 52.4875ZM85.7766 46.5543C85.835 46.6058 85.8859 46.6651 85.9279 46.7306C86.0162 46.8692 86.0036 46.97 85.8943 47.0414C85.81 47.0984 85.716 47.1397 85.6169 47.1631C85.537 47.1631 85.3605 47.0833 85.0831 46.8566C85.0368 46.8314 84.9234 46.7558 84.7342 46.6299C84.6749 46.5712 84.595 46.538 84.5115 46.5375C84.3664 46.6182 84.2323 46.7169 84.1122 46.8314C83.881 47.0246 83.5448 47.2807 83.1118 47.5998C82.2964 48.1793 81.6534 48.6454 81.1826 48.9981C80.9024 49.2248 80.7007 49.3844 80.5774 49.4768C80.4471 49.565 80.2453 49.6951 79.9637 49.8715C79.7792 49.9583 79.6033 50.0623 79.4383 50.1822C79.4383 50.1822 79.4594 50.2368 79.5182 50.283C79.577 50.3292 79.6611 50.3796 79.7494 50.4342C79.7882 50.4547 79.8222 50.4833 79.8491 50.518C79.8759 50.5528 79.8949 50.5929 79.9049 50.6357C79.9173 50.6627 79.9238 50.6921 79.9238 50.7218C79.9238 50.7515 79.9173 50.7809 79.9049 50.8079C79.8869 50.8637 79.8496 50.9113 79.7998 50.9422C79.7234 50.9769 79.6398 50.9927 79.556 50.9884C79.454 50.9888 79.3543 50.9581 79.2702 50.9002C79.1904 50.8289 79.0601 50.6987 78.8793 50.4803C78.7795 50.3528 78.6653 50.2373 78.5389 50.136C78.4075 50.026 78.2966 49.8939 78.211 49.7455C78.1801 49.7115 78.152 49.675 78.127 49.6363C78.0575 49.5463 78.01 49.4414 77.9883 49.3298C78.0009 49.2775 78.0276 49.2295 78.0653 49.1911C78.103 49.1526 78.1505 49.1251 78.2026 49.1115C78.2582 49.096 78.3163 49.0921 78.3735 49.1001C78.4306 49.108 78.4855 49.1276 78.5347 49.1577C78.6174 49.21 78.6912 49.2752 78.7532 49.3508C78.8247 49.439 78.8751 49.4978 78.8961 49.5314C78.9172 49.565 78.9508 49.586 78.9886 49.5692C79.3223 49.3894 79.6246 49.1569 79.8839 48.8805L80.3546 48.4984C80.5774 48.3347 81.1658 47.9357 82.1283 47.3143C83.2491 46.5501 83.9006 46.1008 84.0828 45.9664C84.0828 45.9664 84.0407 45.874 83.9314 45.7481C83.86 45.6837 83.7991 45.6086 83.7507 45.5255C83.7492 45.4726 83.7578 45.4199 83.7759 45.3702C83.7837 45.3282 83.8005 45.2885 83.8252 45.2537C83.8498 45.2188 83.8818 45.1898 83.9188 45.1686C83.9936 45.1191 84.0813 45.0928 84.171 45.093C84.4071 45.1913 84.6279 45.3228 84.8267 45.4835C85.0088 45.6447 85.1762 45.8218 85.3269 46.0126C85.5244 46.3065 85.6799 46.4829 85.7766 46.5753V46.5543Z" fill="black"/>
<path d="M138.382 10.7831C138.453 10.9587 138.535 11.1298 138.626 11.2954C138.622 11.3105 138.622 11.3265 138.626 11.3416C138.737 11.4932 138.881 11.618 139.046 11.7069C139.313 11.8468 139.595 11.9539 139.887 12.026C140.499 12.1801 141.133 12.227 141.762 12.1646C142.227 12.0548 142.678 11.8928 143.107 11.6817C143.163 11.6565 143.218 11.627 143.271 11.5936C143.693 11.3072 144.039 10.9205 144.275 10.4682C144.313 10.3129 144.389 10.0105 144.489 9.55284C144.505 8.98393 144.388 8.41921 144.149 7.90263C144.138 7.8686 144.122 7.83614 144.103 7.80605C143.974 7.61249 143.812 7.44331 143.624 7.30637C143.375 7.11275 143.114 6.93599 142.842 6.7773C142.397 6.48923 141.884 6.32407 141.354 6.29861C140.811 6.32917 140.287 6.50939 139.841 6.81929C139.387 7.14738 139 7.55931 138.702 8.0328C138.576 8.39391 138.445 8.80961 138.307 9.2925C138.263 9.46351 138.232 9.63755 138.214 9.81318C138.208 9.9803 138.218 10.1476 138.244 10.3129C138.294 10.4892 138.34 10.653 138.387 10.7957L138.382 10.7831ZM138.282 11.7993C138.216 11.7189 138.157 11.6332 138.105 11.5432L137.92 11.2534C137.643 10.8595 137.456 10.4093 137.374 9.93495C137.366 9.70067 137.388 9.46635 137.441 9.23791C137.481 8.97721 137.547 8.72119 137.638 8.4737C137.891 7.83562 138.283 7.26185 138.786 6.7941C139.012 6.58786 139.258 6.40498 139.521 6.24822L139.605 6.19364C139.886 6.01457 140.183 5.86272 140.492 5.74015C141.235 5.49549 142.043 5.54049 142.754 5.86612C143.11 6.0205 143.444 6.2225 143.746 6.46657C144.12 6.74787 144.447 7.08824 144.712 7.47433C144.913 7.82259 145.034 8.21139 145.065 8.61226C145.137 9.11222 145.137 9.61975 145.065 10.1197C145.028 10.5494 144.902 10.9668 144.695 11.3458C144.512 11.6036 144.284 11.8268 144.023 12.0051C143.905 12.089 143.792 12.1646 143.687 12.2318C143.499 12.3554 143.297 12.4556 143.086 12.5299C142.486 12.7481 141.848 12.841 141.211 12.8029L140.677 12.7567L139.963 12.6307C139.699 12.5719 139.514 12.5257 139.408 12.4921C139.29 12.4499 139.177 12.3935 139.072 12.3242C138.832 12.1646 138.651 12.0512 138.572 11.9841C138.47 11.9304 138.373 11.8686 138.282 11.7993ZM140.282 15.7842C140.237 15.7214 140.199 15.6538 140.169 15.5826C140.11 15.4314 140.143 15.3307 140.265 15.2845C140.359 15.2472 140.459 15.2259 140.56 15.2215C140.644 15.2215 140.795 15.3517 141.026 15.6414C141.064 15.675 141.161 15.7758 141.32 15.9353C141.368 16.0045 141.44 16.0527 141.522 16.0697C141.681 16.0202 141.832 15.9496 141.972 15.8597C142.237 15.7212 142.615 15.5322 143.107 15.3055C144.017 14.8996 144.739 14.5706 145.271 14.3187C145.586 14.1507 145.813 14.0374 145.961 13.9702C146.108 13.903 146.33 13.819 146.637 13.7015C146.837 13.656 147.031 13.5899 147.217 13.5041C147.217 13.5041 147.217 13.4495 147.158 13.3907C147.1 13.3319 147.041 13.2648 146.965 13.1976C146.931 13.1694 146.903 13.1342 146.883 13.0944C146.864 13.0545 146.853 13.011 146.852 12.9666C146.847 12.9376 146.849 12.908 146.857 12.8797C146.865 12.8515 146.879 12.8253 146.898 12.8029C146.929 12.7532 146.975 12.7138 147.028 12.6895C147.11 12.6724 147.194 12.6724 147.276 12.6895C147.377 12.7102 147.47 12.7615 147.541 12.8365C147.653 12.9842 147.754 13.14 147.844 13.3025C147.915 13.4525 148.004 13.5934 148.108 13.7224C148.215 13.857 148.297 14.009 148.352 14.1717C148.377 14.2101 148.398 14.2509 148.415 14.2935C148.466 14.3968 148.492 14.5103 148.491 14.6252C148.468 14.6741 148.431 14.7156 148.386 14.7452C148.341 14.7748 148.288 14.7914 148.234 14.7932C148.177 14.7969 148.119 14.7887 148.065 14.7692C148.011 14.7497 147.961 14.7193 147.919 14.6798C147.849 14.6133 147.791 14.5352 147.747 14.4489C147.706 14.3835 147.671 14.3146 147.642 14.2431C147.637 14.2253 147.626 14.21 147.61 14.1999C147.595 14.1899 147.576 14.1858 147.558 14.1885C147.195 14.3008 146.851 14.4694 146.541 14.6882L146.003 14.9654C145.755 15.0871 145.095 15.3601 144.031 15.78C142.768 16.3006 142.039 16.61 141.846 16.7079C141.846 16.7289 141.871 16.8129 141.951 16.9557C142.009 17.032 142.054 17.117 142.085 17.2076C142.076 17.2596 142.058 17.3095 142.031 17.3546C142.015 17.3941 141.99 17.4297 141.959 17.4587C141.928 17.4878 141.891 17.5096 141.85 17.5225C141.767 17.5594 141.674 17.5682 141.585 17.5477C141.373 17.4055 141.184 17.2329 141.022 17.0355C140.873 16.8283 140.743 16.6076 140.635 16.3762C140.471 16.0991 140.354 15.8975 140.278 15.7842H140.282ZM143.325 20.8565C143.362 21.1852 143.422 21.5107 143.506 21.8307C143.592 22.2286 143.702 22.6212 143.834 23.0064C143.882 23.1352 143.939 23.2601 144.006 23.3801C144.006 23.3801 144.057 23.3801 144.157 23.3801H144.233C144.546 23.2561 144.868 23.155 145.196 23.0778C145.729 22.9309 146.179 22.7965 146.545 22.6579L147.545 22.3346C147.89 22.2254 148.188 22.1204 148.44 22.0239C148.608 21.9479 148.779 21.8806 148.953 21.8223C149.04 21.7988 149.125 21.7664 149.205 21.7257C149.15 21.5598 149.086 21.3972 149.012 21.2387C148.877 20.9251 148.781 20.711 148.722 20.5962C148.417 20.0752 148.066 19.5833 147.671 19.1266C147.349 18.8833 146.979 18.7117 146.586 18.6233C146.192 18.5349 145.784 18.5319 145.389 18.6143C145.307 18.6322 145.225 18.6546 145.145 18.6815C144.627 18.8311 144.162 19.1219 143.8 19.5213C143.498 19.9014 143.331 20.3711 143.325 20.8565ZM142.905 22.0533C142.872 21.9586 142.845 21.8618 142.825 21.7635C142.764 21.5244 142.727 21.2796 142.716 21.0329C142.698 20.7503 142.727 20.4667 142.8 20.1931C142.917 19.7406 143.134 19.3197 143.433 18.9604C143.732 18.6011 144.107 18.3123 144.531 18.1146C144.771 18.0065 145.022 17.9249 145.28 17.8711C145.523 17.8039 145.775 17.7742 146.028 17.7829C146.38 17.8017 146.729 17.8552 147.07 17.9424C147.539 18.0937 147.969 18.3443 148.331 18.6773C148.498 18.8379 148.651 19.0121 148.789 19.1979C149.114 19.7155 149.395 20.259 149.63 20.823C149.898 21.4026 150.111 22.0056 150.269 22.6243C150.298 22.7362 150.321 22.8498 150.336 22.9644C150.338 23.0281 150.325 23.0913 150.298 23.1492C150.222 23.222 150.137 23.2855 150.046 23.3382C150.03 23.3419 150.013 23.3416 149.997 23.3372C149.98 23.3328 149.966 23.3245 149.953 23.313C149.937 23.3028 149.922 23.2894 149.91 23.2736C149.899 23.2577 149.891 23.2397 149.886 23.2206C149.845 23.1043 149.789 22.9942 149.718 22.8931L149.508 22.5529C149.5 22.5248 149.486 22.4989 149.466 22.4774C149.466 22.4774 149.436 22.4774 149.403 22.5068C149.347 22.5447 149.284 22.5704 149.218 22.5823C149.107 22.6411 148.992 22.6916 148.873 22.7335C148.105 23.0471 147.315 23.3081 146.511 23.5145C146.091 23.5943 145.75 23.6741 145.477 23.7539L144.758 23.9512C144.639 24.0104 144.514 24.0555 144.384 24.0856L144.54 24.2997C144.567 24.3432 144.599 24.3827 144.637 24.4173C144.674 24.5139 144.637 24.6063 144.515 24.6944C144.453 24.7393 144.383 24.7721 144.309 24.791C144.266 24.8035 144.221 24.8035 144.178 24.791C144.115 24.791 143.998 24.6608 143.838 24.4467C143.676 24.2325 143.536 24.0033 143.418 23.7623C143.2 23.2076 143.029 22.636 142.905 22.0533ZM143.018 26.5546C142.982 26.5047 142.965 26.4439 142.968 26.3824C142.968 26.2901 142.968 26.2439 143.023 26.2439H143.371C143.855 26.2439 144.611 26.1683 145.637 26.0465C145.981 26.0013 146.328 25.9747 146.675 25.9667C147.272 25.9343 147.864 25.8458 148.445 25.7022C148.808 25.6247 149.178 25.5826 149.55 25.5762C149.854 25.5008 150.166 25.46 150.479 25.4545H150.504C150.513 25.4535 150.523 25.4553 150.531 25.4598C150.539 25.4643 150.546 25.4712 150.55 25.4796C150.554 25.4867 150.557 25.4946 150.557 25.5027C150.557 25.5109 150.554 25.5188 150.55 25.5258C150.55 25.5622 150.475 25.6168 150.323 25.6896L150.231 25.7736C150.357 25.7736 150.416 25.7946 150.407 25.8366C150.407 25.8366 150.407 25.866 150.361 25.8744C150.273 25.9457 150.178 26.0063 150.075 26.0549C149.818 26.1605 149.548 26.2311 149.273 26.2649L148.747 26.3908L149.025 26.4664C149.36 26.5533 149.678 26.6952 149.966 26.8863C150.201 27.0282 150.389 27.2354 150.508 27.4826L150.605 27.7093C150.655 27.8185 150.689 27.8941 150.714 27.9403C150.882 28.2757 150.98 28.6412 151.004 29.0152C151.007 29.1688 150.986 29.3218 150.941 29.4687C150.907 29.5833 150.856 29.6922 150.79 29.792C150.727 29.8802 150.613 30.023 150.441 30.2119C150.207 30.4886 149.922 30.7168 149.6 30.8838C149.195 31.0599 148.773 31.1922 148.339 31.2785C147.947 31.335 147.551 31.3658 147.154 31.3708C146.961 31.3708 146.78 31.3708 146.612 31.3708C146.259 31.3708 145.94 31.3708 145.654 31.3708C144.17 31.3121 143.426 31.1903 143.422 31.0139C143.422 30.9761 143.493 30.93 143.636 30.8712C143.802 30.8056 143.982 30.7867 144.157 30.8166C144.829 30.8652 145.502 30.875 146.175 30.846C147.242 30.8208 147.856 30.7956 147.995 30.762C148.255 30.7113 148.508 30.628 148.747 30.5142C148.928 30.4335 149.104 30.3409 149.273 30.2371C149.478 30.1093 149.676 29.9691 149.865 29.8172C149.981 29.723 150.086 29.6175 150.18 29.5023C150.247 29.2619 150.274 29.0123 150.26 28.7633C150.26 28.5323 150.26 28.3896 150.26 28.3434C150.234 28.262 150.197 28.1844 150.151 28.1124C149.887 27.6903 149.529 27.3352 149.104 27.0753C148.431 26.7623 147.694 26.6113 146.952 26.6344C146.532 26.6344 146.322 26.6344 146.314 26.6344C146.305 26.6344 145.99 26.668 145.406 26.71C144.822 26.7519 144.447 26.7855 144.279 26.7897C144.02 26.7948 143.761 26.7737 143.506 26.7268C143.329 26.7152 143.159 26.6557 143.014 26.5546H143.018ZM142.514 36.5314C142.514 36.3887 142.657 35.6412 142.905 34.2976C143.086 33.3528 143.195 32.7901 143.237 32.618C143.279 32.4458 143.325 32.324 143.367 32.3156H143.426C143.465 32.3262 143.5 32.3448 143.531 32.3702C143.564 32.396 143.587 32.4313 143.599 32.4713C143.61 32.5112 143.608 32.5538 143.594 32.5928C143.569 32.7271 143.523 33.0588 143.456 33.5879C143.384 34.1128 143.342 34.4949 143.334 34.7258C143.334 34.8098 143.321 34.9358 143.296 35.1038H143.392C143.765 35.1057 144.137 35.1295 144.506 35.1751L145.885 35.3305C146.398 35.3809 147.062 35.4691 147.873 35.6034C148.684 35.7378 149.239 35.8512 149.554 35.9352C149.783 35.9801 150.006 36.0461 150.222 36.1325C150.271 36.1666 150.308 36.2146 150.328 36.2701C150.348 36.3257 150.351 36.3861 150.336 36.4432V36.4684C150.311 36.6028 150.248 36.67 150.147 36.6658L149.974 36.691C149.828 36.7514 149.667 36.7661 149.512 36.733C149.336 36.733 148.743 36.607 147.743 36.4096C146.902 36.2417 145.956 36.0695 144.906 35.8932C144.372 35.7785 143.831 35.7 143.287 35.658C143.251 35.8309 143.229 36.0064 143.22 36.1829C143.184 36.5888 143.158 36.8687 143.144 37.0227C143.09 37.4248 143.079 37.8317 143.111 38.2362C143.12 38.2786 143.119 38.3225 143.109 38.3647C143.099 38.4068 143.079 38.4461 143.052 38.4798C143.006 38.5343 142.964 38.5637 142.934 38.5637C142.907 38.5699 142.878 38.5699 142.85 38.5637C142.796 38.5522 142.745 38.5308 142.699 38.5008C142.659 38.4798 142.624 38.4506 142.597 38.4151C142.569 38.3797 142.55 38.3387 142.539 38.295C142.499 38.1017 142.481 37.9045 142.485 37.7071C142.485 37.5014 142.485 37.1151 142.514 36.5314ZM140.152 42.1119C140.204 41.8527 140.285 41.6004 140.396 41.3603C140.438 41.2637 140.488 41.1587 140.547 41.0495C140.697 40.7369 140.9 40.4527 141.148 40.2097C141.323 40.06 141.524 39.9433 141.741 39.8654C141.977 39.7668 142.229 39.7113 142.485 39.7017C142.626 39.6846 142.768 39.696 142.905 39.7353C143.046 39.7842 143.175 39.863 143.283 39.9662C143.381 40.0399 143.449 40.1454 143.477 40.2643C143.489 40.304 143.492 40.3461 143.485 40.3871C143.477 40.4281 143.46 40.4666 143.434 40.4995C143.381 40.6422 143.343 40.7094 143.321 40.701L142.901 40.5709C142.72 40.5079 142.529 40.4752 142.337 40.4743C142.164 40.483 141.994 40.5213 141.833 40.5877C141.674 40.6462 141.531 40.7394 141.413 40.8606C141.279 41.073 141.166 41.2981 141.077 41.5324C140.957 41.7832 140.865 42.0466 140.803 42.3176C140.742 42.6127 140.742 42.917 140.803 43.212C140.836 43.4152 140.926 43.6047 141.064 43.7579C141.165 43.9059 141.313 44.0154 141.484 44.0686C141.744 44.1172 142.012 44.0865 142.253 43.9804C142.566 43.8442 142.846 43.6422 143.073 43.3884C143.417 43.0341 143.735 42.6567 144.027 42.2589C144.231 41.8987 144.52 41.5933 144.868 41.3687C145.24 41.0797 145.695 40.9191 146.167 40.911C146.556 40.8818 146.948 40.9436 147.31 41.0915L147.478 41.1671C147.645 41.2625 147.795 41.3845 147.923 41.5282C148.05 41.656 148.15 41.8072 148.218 41.9733C148.317 42.3874 148.317 42.819 148.218 43.233C148.115 43.7697 147.95 44.2925 147.726 44.7909C147.498 45.373 147.137 45.8936 146.671 46.3109C146.501 46.4606 146.298 46.5671 146.079 46.6212C145.859 46.6753 145.63 46.6755 145.41 46.6216C145.236 46.5691 145.07 46.4913 144.918 46.3907C144.773 46.3007 144.632 46.2026 144.498 46.0967C144.489 46.0931 144.482 46.0878 144.475 46.0811C144.469 46.0744 144.464 46.0665 144.461 46.0579C144.458 46.0492 144.456 46.04 144.457 46.0308C144.458 46.0216 144.46 46.0126 144.464 46.0044C144.473 45.9768 144.474 45.9472 144.465 45.9195C144.457 45.8917 144.441 45.8672 144.418 45.849C144.418 45.6349 144.477 45.5005 144.561 45.4291C144.645 45.3577 144.666 45.4291 144.725 45.4879C145.006 45.7818 145.17 45.9078 145.225 45.9078C145.434 45.9559 145.651 45.9559 145.86 45.9078C146.089 45.8591 146.302 45.7553 146.482 45.6055C146.855 45.2907 147.144 44.8881 147.322 44.4339C147.512 43.9383 147.628 43.4178 147.667 42.8887C147.714 42.6016 147.667 42.3069 147.533 42.0489C147.402 41.8751 147.226 41.7401 147.024 41.6584C146.823 41.5771 146.606 41.5412 146.389 41.5534C146.14 41.5614 145.896 41.62 145.671 41.7256C145.503 41.7875 145.357 41.897 145.25 42.0405C145.154 42.1539 144.96 42.41 144.662 42.7963C144.274 43.333 143.827 43.8245 143.329 44.2618C143.023 44.5127 142.666 44.6946 142.283 44.7951C141.948 44.8869 141.597 44.8984 141.257 44.8286C141.189 44.8159 141.123 44.7947 141.06 44.7657C140.974 44.7278 140.894 44.6799 140.82 44.6229C140.536 44.4095 140.321 44.1175 140.202 43.7831C140.028 43.2448 140.011 42.6681 140.152 42.1203V42.1119ZM133.07 52.6892C133.07 52.6556 133.145 52.5674 133.292 52.4246C133.44 52.2819 133.557 52.1979 133.633 52.1391L133.999 51.757C134.172 51.547 134.657 51.0166 135.453 50.1656L136.142 49.4517C136.329 49.2441 136.529 49.0478 136.739 48.8639C136.765 48.8488 136.795 48.8408 136.825 48.8408C136.855 48.8408 136.885 48.8488 136.911 48.8639C136.971 48.8965 137.016 48.9506 137.037 49.015C137.121 49.1494 137.079 49.2796 136.911 49.4098L136.394 50.0774C136.212 50.3702 135.999 50.6432 135.76 50.892C135.499 51.1439 135.201 51.4379 134.864 51.7738L134.066 52.5716L134.205 52.706C134.347 52.7899 134.549 52.9327 134.81 53.1259C135.07 53.319 135.327 53.508 135.684 53.7473C135.911 53.9195 136.062 54.0035 136.138 53.9909C136.104 54.0105 136.113 54.0021 136.163 53.9657C136.309 53.6998 136.499 53.4611 136.726 53.2602C137.211 52.8562 137.656 52.4062 138.055 51.9166C138.542 51.2923 138.841 50.9774 138.95 50.9718C139.03 50.986 139.101 51.0313 139.147 51.0978C139.209 51.1672 139.244 51.2568 139.244 51.3497C139.251 51.3998 139.251 51.4507 139.244 51.5009C139.244 51.5303 139.244 51.547 139.244 51.5512C139.244 51.5554 139.122 51.7276 138.874 52.0719C138.657 52.3863 138.407 52.6776 138.13 52.9411C137.877 53.1855 137.612 53.4167 137.336 53.6339C137.167 53.7597 137.009 53.9002 136.865 54.0538C136.802 54.121 136.71 54.2218 136.596 54.352L137.067 54.8055C137.428 55.1624 137.735 55.4815 137.992 55.7586C138.248 56.0358 138.412 56.2625 138.412 56.2709C138.467 56.3412 138.526 56.4085 138.588 56.4725C138.605 56.4169 138.625 56.3623 138.647 56.3087C138.7 56.1995 138.793 56.0316 138.925 55.8048L139.072 55.4521C139.147 55.329 139.236 55.2149 139.336 55.112C139.491 54.9416 139.632 54.7591 139.757 54.5661C140.016 54.2216 140.317 53.91 140.652 53.6381C140.802 53.5682 140.943 53.4808 141.072 53.3778C141.238 53.2712 141.427 53.2063 141.623 53.1889C141.713 53.1778 141.803 53.2019 141.875 53.256C141.897 53.2749 141.913 53.2997 141.921 53.3274C141.963 53.4492 141.921 53.5668 141.762 53.6927C141.57 53.835 141.392 53.9938 141.228 54.1672C141.004 54.3737 140.793 54.5924 140.593 54.8223C140.228 55.2674 139.917 55.6621 139.664 56.0526C139.454 56.3297 139.244 56.5816 139.051 56.821C138.908 56.9809 138.783 57.1554 138.677 57.3417C138.665 57.3662 138.649 57.3889 138.63 57.4089C138.601 57.4347 138.568 57.4573 138.534 57.476C138.496 57.4889 138.456 57.4922 138.417 57.4856C138.379 57.479 138.342 57.4627 138.311 57.4382C138.233 57.3837 138.174 57.3079 138.139 57.2199C137.976 56.9785 137.79 56.7535 137.584 56.5481L136.802 55.6663C136.217 55.0715 135.57 54.5408 134.873 54.0832C134.637 53.9157 134.411 53.7348 134.196 53.5416C133.919 53.3106 133.688 53.1217 133.507 53.0083C133.385 52.9373 133.271 52.8543 133.166 52.7606C133.095 52.7396 133.07 52.7102 133.07 52.6892Z" fill="black"/>
<path fill-rule="evenodd" clip-rule="evenodd" d="M77.5008 36.5315C77.788 36.5265 78.0703 36.6069 78.3118 36.7624C78.5533 36.918 78.743 37.1417 78.857 37.4052C78.971 37.6687 79.0041 37.9601 78.952 38.2424C78.8999 38.5247 78.7651 38.7851 78.5646 38.9908C78.3641 39.1964 78.107 39.3378 77.8259 39.3972C77.5448 39.4566 77.2524 39.4312 76.9857 39.3243C76.7191 39.2174 76.4903 39.0337 76.3283 38.7966C76.1663 38.5596 76.0785 38.2798 76.0759 37.9927C76.0725 37.6107 76.2204 37.2427 76.4872 36.9691C76.7541 36.6954 77.1184 36.5381 77.5008 36.5315Z" fill="black"/>
<path fill-rule="evenodd" clip-rule="evenodd" d="M137.559 5.23612C137.31 5.3797 137.025 5.44647 136.739 5.42799C136.452 5.40951 136.178 5.30661 135.95 5.13231C135.723 4.95801 135.552 4.72014 135.459 4.4488C135.367 4.17746 135.357 3.88484 135.431 3.60797C135.506 3.33111 135.66 3.08243 135.876 2.89341C136.092 2.70439 136.358 2.58352 136.643 2.5461C136.927 2.50867 137.216 2.55637 137.474 2.68317C137.731 2.80996 137.945 3.01014 138.088 3.25839C138.279 3.59113 138.331 3.98579 138.231 4.35628C138.132 4.72677 137.89 5.04304 137.559 5.23612Z" fill="black"/>
<path fill-rule="evenodd" clip-rule="evenodd" d="M38.9796 77.4505C38.945 77.7341 38.8271 78.0011 38.6407 78.2178C38.4543 78.4344 38.2078 78.591 37.9324 78.6677C37.6569 78.7444 37.3648 78.7377 37.0932 78.6486C36.8215 78.5595 36.5823 78.3919 36.406 78.167C36.2297 77.9421 36.124 77.67 36.1025 77.3851C36.081 77.1002 36.1444 76.8154 36.2849 76.5665C36.4254 76.3177 36.6366 76.1161 36.8918 75.9872C37.147 75.8583 37.4348 75.8079 37.7186 75.8423C37.9071 75.8652 38.0893 75.925 38.2546 76.0182C38.42 76.1114 38.5654 76.2362 38.6825 76.3855C38.7996 76.5349 38.8861 76.7058 38.9371 76.8885C38.988 77.0713 39.0025 77.2622 38.9796 77.4505Z" fill="black"/>
<path fill-rule="evenodd" clip-rule="evenodd" d="M75.5715 40.4617C75.7625 40.4478 75.945 40.3775 76.096 40.2598C76.2469 40.1421 76.3595 39.9822 76.4194 39.8005C76.4793 39.6188 76.4838 39.4234 76.4324 39.2391C76.3809 39.0549 76.2759 38.89 76.1305 38.7654C75.9852 38.6409 75.8061 38.5623 75.6159 38.5395C75.4258 38.5168 75.2332 38.551 75.0625 38.6378C74.8919 38.7247 74.7509 38.8601 74.6574 39.0271C74.5639 39.1941 74.5222 39.385 74.5375 39.5757C74.5579 39.8298 74.6781 40.0656 74.8718 40.2316C75.0655 40.3975 75.317 40.4803 75.5715 40.4617Z" fill="black"/>
<path fill-rule="evenodd" clip-rule="evenodd" d="M74.7645 38.8743C74.64 39.0193 74.5612 39.198 74.5383 39.3877C74.5154 39.5774 74.5494 39.7697 74.6359 39.9401C74.7224 40.1105 74.8575 40.2515 75.0242 40.3452C75.191 40.4388 75.3817 40.481 75.5725 40.4663C75.7632 40.4516 75.9452 40.3807 76.0956 40.2626C76.2459 40.1445 76.3579 39.9845 76.4172 39.8028C76.4765 39.6211 76.4805 39.426 76.4287 39.242C76.3769 39.058 76.2717 38.8936 76.1263 38.7694C75.9317 38.6031 75.679 38.5208 75.4237 38.5405C75.1684 38.5601 74.9313 38.6802 74.7645 38.8743Z" fill="black"/>
</g>
<defs>
<clipPath id="clip0_1_45">
<rect width="151" height="79" fill="white"/>
</clipPath>
</defs>
</svg>
