<svg width="25" height="25" viewBox="0 0 25 25" fill="none" xmlns="http://www.w3.org/2000/svg">
<path fill-rule="evenodd" clip-rule="evenodd" d="M15.6023 3.90974C18.7727 7.08009 18.7727 12.2202 15.6023 15.3906C12.432 18.5609 7.29182 18.5609 4.12147 15.3906C0.951127 12.2202 0.951127 7.08009 4.12147 3.90974C7.29182 0.739396 12.432 0.739396 15.6023 3.90974ZM16.663 2.84908C20.4191 6.60521 20.4191 12.6951 16.663 16.4512C12.9068 20.2074 6.81694 20.2074 3.06081 16.4512C-0.695319 12.6951 -0.695319 6.60521 3.06081 2.84908C6.81694 -0.907051 12.9068 -0.90705 16.663 2.84908ZM17.203 15.9113L16.1423 16.972L23.2134 24.0431L24.274 22.9824L17.203 15.9113Z" fill="black"/>
</svg>
