<svg width="15" height="19" viewBox="0 0 15 19" fill="none" xmlns="http://www.w3.org/2000/svg">
<path d="M12.5556 8H2.44444C1.6467 8 1 8.81403 1 9.81818V16.1818C1 17.186 1.6467 18 2.44444 18H12.5556C13.3533 18 14 17.186 14 16.1818V9.81818C14 8.81403 13.3533 8 12.5556 8Z" stroke="black" stroke-linecap="round" stroke-linejoin="round"/>
<path d="M3 8V4.88889C3 3.85749 3.47411 2.86834 4.31802 2.13903C5.16193 1.40972 6.30653 1 7.5 1C8.69347 1 9.83807 1.40972 10.682 2.13903C11.5259 2.86834 12 3.85749 12 4.88889V8" stroke="black" stroke-linecap="round" stroke-linejoin="round"/>
<rect x="7" y="13" width="1" height="3" rx="0.5" fill="black"/>
</svg>
